<?xml version="1.0" encoding="UTF-8"?>
<svg width="280px" height="170px" viewBox="0 0 280 170" version="1.1" xmlns="http://www.w3.org/2000/svg" xmlns:xlink="http://www.w3.org/1999/xlink">
    <!-- Generator: Sketch 55 (78076) - https://sketchapp.com -->
    <title>1@2x</title>
    <desc>Created with Sketch.</desc>
    <defs>
        <linearGradient x1="13.6925937%" y1="15.2998835%" x2="84.9058246%" y2="83.3825659%" id="linearGradient-1">
            <stop stop-color="#FF7800" offset="0%"></stop>
            <stop stop-color="#FFAB2C" offset="100%"></stop>
        </linearGradient>
    </defs>
    <g id="1" stroke="none" stroke-width="1" fill="none" fill-rule="evenodd">
        <g id="Group-44" transform="translate(5.000000, 5.000000)">
            <ellipse id="Oval" fill="#F3F4F7" cx="122" cy="95" rx="105" ry="65"></ellipse>
            <g id="Group-33">
                <g id="Group-13" transform="translate(0.000000, 32.000000)">
                    <g id="Group-7">
                        <rect id="Rectangle-4" fill="#E4E7EE" transform="translate(35.000000, 31.500000) scale(-1, 1) translate(-35.000000, -31.500000) " x="3.18181818" y="0" width="63.6363636" height="63"></rect>
                        <rect id="Rectangle" fill="#FFFFFF" x="12.7272727" y="32.0338983" width="18.030303" height="18.1525424"></rect>
                        <rect id="Rectangle" fill="#FFFFFF" x="40.3030303" y="32.0338983" width="16.969697" height="30.9661017"></rect>
                        <polygon id="Rectangle-4" fill="#BFC4CE" transform="translate(35.000000, 16.016949) scale(-1, 1) translate(-35.000000, -16.016949) " points="3.18181818 7.47457627 66.8181818 7.47457627 70 24.559322 -2.11948514e-14 24.559322"></polygon>
                        <polygon id="Rectangle" fill="#FFFFFF" points="7.42424242 7.47457627 11.6666667 7.47457627 9.54545455 24.559322 4.24242424 24.559322"></polygon>
                        <polygon id="Rectangle" fill="#FFFFFF" points="15.9090909 7.47457627 21.2121212 7.47457627 20.1515152 24.559322 14.8484848 24.559322"></polygon>
                        <polygon id="Rectangle" fill="#FFFFFF" points="26.5151515 7.47457627 31.8181818 7.47457627 31.8181818 24.559322 26.5151515 24.559322"></polygon>
                        <polygon id="Rectangle" fill="#FFFFFF" points="37.1212121 7.47457627 42.4242424 7.47457627 42.4242424 24.559322 37.1212121 24.559322"></polygon>
                        <polygon id="Rectangle" fill="#FFFFFF" points="47.7272727 7.47457627 53.030303 7.47457627 54.0909091 24.559322 48.7878788 24.559322"></polygon>
                        <polygon id="Rectangle" fill="#FFFFFF" points="58.3333333 7.47457627 62.5757576 7.47457627 64.6969697 24.559322 60.4545455 24.559322"></polygon>
                    </g>
                </g>
                <path d="M204.966307,98.7751875 C204.791839,98.1201938 204.611392,97.4708079 204.425036,96.827179 C204.271437,96.2966833 203.716869,95.9911483 203.186373,96.1447475 C202.655877,96.2983467 202.350342,96.8529152 202.503941,97.383411 C202.686301,98.0132382 202.862908,98.6488075 203.033693,99.2899716 C203.175847,99.8236482 203.723715,100.14104 204.257392,99.9988866 C204.791069,99.8567329 205.108461,99.3088642 204.966307,98.7751875 Z M203.213375,92.9673072 C202.995417,92.3247136 202.771309,91.6888175 202.541144,91.0597944 C202.351364,90.5411404 201.777064,90.2745356 201.25841,90.4643158 C200.739756,90.654096 200.473152,91.2283954 200.662932,91.7470493 C200.887639,92.3611561 201.106479,92.9821073 201.319361,93.6097307 C201.496761,94.1327485 202.064562,94.4129267 202.58758,94.2355264 C203.110598,94.058126 203.390776,93.4903249 203.213375,92.9673072 Z M201.050672,87.2809792 C200.785048,86.6549107 200.513114,86.0369122 200.234992,85.4271897 C200.005789,84.9247114 199.412644,84.7031779 198.910166,84.9323809 C198.407688,85.1615838 198.186154,85.7547287 198.415357,86.257207 C198.686071,86.8506891 198.950836,87.4523966 199.209529,88.0621278 C199.425237,88.5705453 200.012257,88.8078331 200.520675,88.5921249 C201.029092,88.3764167 201.26638,87.7893968 201.050672,87.2809792 Z M198.448538,81.7853639 C198.130109,81.181095 197.805231,80.5866551 197.474068,80.0022863 C197.201772,79.5217936 196.591516,79.353017 196.111024,79.6253132 C195.630531,79.8976094 195.461754,80.5078653 195.73405,80.988358 C196.055123,81.5549217 196.370221,82.1314668 196.679177,82.7177578 C196.93665,83.2063536 197.541459,83.3937153 198.030054,83.1362418 C198.51865,82.8787683 198.706012,82.2739597 198.448538,81.7853639 Z M195.348019,76.5198981 C194.971306,75.9471514 194.588102,75.3864573 194.198626,74.8380966 C193.87882,74.3878271 193.25455,74.2820655 192.804281,74.6018714 C192.354012,74.9216773 192.24825,75.5459468 192.568056,75.9962163 C192.943657,76.5250431 193.313401,77.0660407 193.677059,77.6189398 C193.980551,78.0803627 194.600637,78.2083909 195.06206,77.904899 C195.523483,77.601407 195.651511,76.981321 195.348019,76.5198981 Z M191.709351,71.6034192 C191.268377,71.0753585 190.821028,70.5621742 190.367602,70.0641846 C189.995778,69.6558162 189.363306,69.6261918 188.954938,69.9980166 C188.546569,70.3698415 188.516945,71.002313 188.88877,71.4106814 C189.322876,71.8874523 189.751464,72.3791147 190.174228,72.8853707 C190.52823,73.309283 191.158853,73.3659572 191.582765,73.0119561 C192.006678,72.6579549 192.063352,72.0273315 191.709351,71.6034192 Z M187.475437,67.168999 C186.963372,66.7037332 186.445305,66.2569738 185.921635,65.8290704 C185.493969,65.4796137 184.863986,65.5430152 184.514529,65.9706815 C184.165073,66.3983478 184.228474,67.0283305 184.656141,67.3777872 C185.152572,67.7834336 185.644154,68.2073533 186.130483,68.6492349 C186.539238,69.0206337 187.171679,68.9903499 187.543078,68.581594 C187.914476,68.1728382 187.884193,67.5403979 187.475437,67.168999 Z M182.565639,63.3946024 C181.978331,63.0203827 181.385883,62.6691293 180.788828,62.3412006 C180.304753,62.0753254 179.696798,62.2522114 179.430922,62.7362866 C179.165047,63.2203618 179.341933,63.8283167 179.826008,64.094192 C180.384823,64.4011175 180.939962,64.7302511 181.490911,65.0813031 C181.95668,65.3780811 182.574847,65.2410864 182.871625,64.7753168 C183.168403,64.3095472 183.031408,63.6913803 182.565639,63.3946024 Z M176.978559,60.5898416 C176.323259,60.3459114 175.664513,60.1296034 175.002992,59.9412274 C174.471824,59.7899707 173.918609,60.09795 173.767352,60.6291184 C173.616096,61.1602868 173.924075,61.7135016 174.455243,61.8647583 C175.065898,62.0386498 175.674628,62.2385343 176.280845,62.4641939 C176.798434,62.656862 177.37421,62.3934624 177.566878,61.8758743 C177.759546,61.3582862 177.496147,60.7825097 176.978559,60.5898416 Z M170.98373,59.1461484 C170.289773,59.0686961 169.594947,59.0219566 168.899994,59.0061016 C168.347853,58.9935048 167.890043,59.4308918 167.877446,59.9830329 C167.864849,60.535174 168.302236,60.9929845 168.854377,61.0055813 C169.490318,61.0200899 170.126347,61.0628743 170.761889,61.1338069 C171.310765,61.1950668 171.805379,60.7997753 171.866639,60.2508986 C171.927899,59.7020219 171.532607,59.2074084 170.98373,59.1461484 Z M164.704067,59.2877684 C164.233387,59.3620527 163.763623,59.4507185 163.294989,59.5537668 C163.078219,59.6015282 162.87139,59.6483703 162.664471,59.6965434 C162.126571,59.8217721 161.792035,60.3593441 161.917264,60.8972439 C162.042492,61.4351437 162.580064,61.7696796 163.117964,61.6444509 C163.317124,61.5980844 163.516237,61.5529897 163.72492,61.50701 C164.154169,61.4126221 164.584672,61.3313667 165.015854,61.2633161 C165.561387,61.1772183 165.933832,60.6651809 165.847734,60.1196485 C165.761637,59.574116 165.249599,59.2016707 164.704067,59.2877684 Z M158.728027,60.7812356 C158.071139,60.9921583 157.426746,61.2150319 156.794438,61.4497605 C156.276678,61.6419659 156.012764,62.2175067 156.204969,62.7352668 C156.397175,63.2530269 156.972715,63.5169411 157.490476,63.3247357 C158.094751,63.1004135 158.710938,62.8872956 159.339468,62.6854783 C159.86531,62.5166337 160.154714,61.9534788 159.985869,61.4276367 C159.817024,60.9017945 159.253869,60.6123909 158.728027,60.7812356 Z M153.007086,63.0650728 C152.386859,63.3663288 151.779494,63.6806649 151.18432,64.0080396 C150.700409,64.2742137 150.523898,64.8822778 150.790072,65.3661887 C151.056246,65.8500996 151.66431,66.0266101 152.148221,65.760436 C152.713803,65.4493392 153.29113,65.1505488 153.880901,64.8640857 C154.377685,64.6227883 154.584798,64.0244554 154.3435,63.5276718 C154.102203,63.0308881 153.50387,62.8237754 153.007086,63.0650728 Z M147.697221,66.1679771 C147.134092,66.558544 146.58253,66.9626827 146.041355,67.3806411 C145.604253,67.7182216 145.523576,68.3462256 145.861156,68.7833272 C146.198737,69.2204288 146.826741,69.3011066 147.263842,68.963526 C147.778157,68.5663126 148.302165,68.1823632 148.837039,67.8113927 C149.290855,67.4966406 149.403589,66.8735925 149.088837,66.4197758 C148.774085,65.9659591 148.151037,65.853225 147.697221,66.1679771 Z M142.919587,70.0468735 C142.427202,70.50959 141.942229,70.9861106 141.46221,71.477936 C141.076458,71.8731752 141.084149,72.5062935 141.479389,72.8920452 C141.874628,73.277797 142.507746,73.2701059 142.893498,72.8748667 C143.353699,72.4033467 143.818145,71.9469952 144.289211,71.5043135 C144.691672,71.1261023 144.71133,70.4932426 144.333119,70.0907817 C143.954908,69.6883208 143.322048,69.6686624 142.919587,70.0468735 Z M138.733434,74.491874 C138.309475,74.9931095 137.883462,75.5113003 137.445858,76.0567788 C137.100261,76.4875697 137.169324,77.1169569 137.600115,77.4625543 C138.030906,77.8081518 138.660293,77.7390888 139.00589,77.3082978 C139.433048,76.7758414 139.848134,76.2709409 140.260451,75.7834695 C140.617116,75.3617953 140.564415,74.7308274 140.14274,74.3741632 C139.721066,74.017499 139.090098,74.0701999 138.733434,74.491874 Z M134.9643,79.2563034 C134.849035,79.4080543 134.438779,79.9486521 134.354646,80.0594395 C134.118681,80.3701628 133.933597,80.6133333 133.755566,80.8463295 C133.420249,81.2851702 133.504172,81.9127488 133.943013,82.2480654 C134.381853,82.583382 135.009432,82.4994591 135.344749,82.0606184 C135.524174,81.8257981 135.710366,81.5811717 135.947426,81.2690061 C136.031844,81.1578437 136.442019,80.6173527 136.556959,80.4660285 C136.891016,80.0262277 136.805293,79.3988924 136.365492,79.0648361 C135.925691,78.7307797 135.298356,78.8165025 134.9643,79.2563034 Z M131.300244,83.9342174 C130.85321,84.4622062 130.425338,84.9429104 130.005902,85.3864703 C129.626443,85.7877546 129.644136,86.4206724 130.04542,86.8001316 C130.446704,87.1795909 131.079622,87.1618981 131.459081,86.7606138 C131.905004,86.2890432 132.356977,85.7812623 132.826625,85.2265635 C133.183497,84.8050647 133.131106,84.174071 132.709608,83.8171995 C132.288109,83.460328 131.657115,83.5127187 131.300244,83.9342174 Z M127.158549,87.9205744 C126.637866,88.2920967 126.11202,88.6159679 125.575521,88.8939329 C125.085145,89.1480007 124.89358,89.7514911 125.147648,90.2418665 C125.401716,90.7322419 126.005206,90.923807 126.495581,90.6697393 C127.117949,90.3472853 127.724217,89.9738819 128.320209,89.5486242 C128.769783,89.2278406 128.874188,88.6033428 128.553404,88.1537693 C128.232621,87.7041958 127.608123,87.5997909 127.158549,87.9205744 Z M122.054736,90.0067936 C121.468719,90.1157827 120.830759,90.2116437 120.141137,90.2941801 C119.592765,90.3598111 119.201427,90.8575582 119.267058,91.4059295 C119.332689,91.9543007 119.830436,92.345639 120.378807,92.280008 C121.109867,92.1925122 121.790314,92.0902672 122.420431,91.9730762 C122.963405,91.8720923 123.321708,91.3500613 123.220724,90.8070874 C123.11974,90.2641134 122.59771,89.9058097 122.054736,90.0067936 Z M116.224852,90.5967428 C115.593685,90.6240108 114.935411,90.6440005 114.250068,90.6566986 C113.697878,90.6669295 113.258533,91.1228618 113.268764,91.6750518 C113.278995,92.2272417 113.734927,92.6665863 114.287117,92.6563554 C114.988576,92.6433587 115.66325,92.622871 116.311177,92.5948789 C116.862947,92.571041 117.290921,92.1044185 117.267083,91.5526485 C117.243245,91.0008784 116.776622,90.5729048 116.224852,90.5967428 Z M110.269407,90.6540266 C109.625445,90.6427634 108.963293,90.6265563 108.282962,90.6054031 C107.730944,90.5882395 107.269531,91.0218246 107.252367,91.5738426 C107.235204,92.1258606 107.668789,92.5872734 108.220807,92.604437 C108.910076,92.6258681 109.581281,92.6422968 110.234432,92.6537207 C110.786632,92.663379 111.242108,92.2235617 111.251767,91.6713614 C111.261425,91.1191611 110.821608,90.6636848 110.269407,90.6540266 Z M104.326281,90.437508 C103.677142,90.4032599 103.014333,90.3652799 102.337855,90.3235674 C101.786617,90.2895773 101.312196,90.7088895 101.278206,91.2601273 C101.244216,91.8113651 101.663528,92.285786 102.214766,92.3197761 C102.897088,92.361849 103.565801,92.4001672 104.220909,92.4347303 C104.772427,92.4638279 105.243109,92.0403228 105.272206,91.4888051 C105.301304,90.9372875 104.877799,90.4666057 104.326281,90.437508 Z M98.3583403,90.0472504 C97.7068729,89.9973098 97.0444809,89.9443811 96.3711661,89.8884641 C95.8207761,89.8427556 95.3375428,90.2518808 95.2918343,90.8022708 C95.2461258,91.3526609 95.6552511,91.8358942 96.2056411,91.8816027 C96.8831391,91.9378671 97.5497487,91.9911328 98.2054717,92.0413996 C98.7561408,92.0836131 99.2367671,91.6714284 99.2789806,91.1207593 C99.3211941,90.5700902 98.9090094,90.0894639 98.3583403,90.0472504 Z M92.3947489,89.5354664 C91.7421364,89.4740132 91.0804336,89.410071 90.4096413,89.3436394 C89.8600451,89.2892105 89.370386,89.6906229 89.3159571,90.240219 C89.2615281,90.7898152 89.6629405,91.2794742 90.2125367,91.3339032 C90.8865077,91.4006495 91.5514114,91.4649011 92.2072487,91.5266579 C92.7571011,91.5784346 93.2448178,91.1746646 93.2965945,90.6248122 C93.3483713,90.0749599 92.9446012,89.5872431 92.3947489,89.5354664 Z M86.4319728,88.9320225 C85.7781085,88.8615953 85.1164483,88.789032 84.4469929,88.7143327 C83.8981145,88.6530876 83.4035117,89.0483924 83.3422666,89.5972708 C83.2810215,90.1461492 83.6763264,90.640752 84.2252048,90.7019971 C84.8971808,90.7769777 85.5613768,90.8498191 86.2177933,90.9205212 C86.766902,90.9796652 87.2599884,90.5824704 87.3191324,90.0333616 C87.3782765,89.4842528 86.9810816,88.9911665 86.4319728,88.9320225 Z M80.4740467,88.2568035 C79.8200313,88.1792464 79.1592069,88.0998229 78.4915738,88.0185328 C77.9433379,87.9517804 77.4447914,88.3420999 77.378039,88.8903357 C77.3112866,89.4385716 77.701606,89.9371181 78.2498419,90.0038705 C78.919534,90.0854113 79.5824283,90.1650836 80.238525,90.2428874 C80.786967,90.307925 81.2842903,89.9160482 81.3493278,89.3676063 C81.4143654,88.8191644 81.0224886,88.321841 80.4740467,88.2568035 Z M74.5555916,87.5277322 C73.9014964,87.4443205 73.2413529,87.3592504 72.5751611,87.2725219 C72.0274978,87.201224 71.5257307,87.5873945 71.4544329,88.1350578 C71.383135,88.682721 71.7693055,89.1844882 72.3169687,89.255786 C72.9848845,89.342739 73.6467602,89.4280323 74.3025961,89.5116659 C74.8504443,89.5815287 75.351198,89.194045 75.4210608,88.6461968 C75.4909235,88.0983486 75.1034398,87.5975949 74.5555916,87.5277322 Z M68.6092303,86.7462792 C67.9549692,86.6578817 67.2952682,86.5679922 66.6301274,86.4766108 C66.0829822,86.4014404 65.5784958,86.7840516 65.5033254,87.3311968 C65.428155,87.878342 65.8107661,88.3828284 66.3579113,88.4579988 C67.0245219,88.5495821 67.6856989,88.6396727 68.3414424,88.7282706 C68.8887542,88.8022181 69.3923845,88.4184806 69.466332,87.8711688 C69.5402796,87.323857 69.1565421,86.8202268 68.6092303,86.7462792 Z M62.6708221,85.9241353 C62.0164955,85.831467 61.3572264,85.737443 60.6930149,85.6420633 C60.1463378,85.5635614 59.63953,85.9430923 59.561028,86.4897695 C59.4825261,87.0364466 59.862057,87.5432544 60.4087342,87.6217563 C61.0742178,87.7173187 61.7347641,87.8115248 62.3903729,87.9043747 C62.9372009,87.9818186 63.4432733,87.6013076 63.5207172,87.0544796 C63.5981611,86.5076515 63.2176501,86.0015792 62.6708221,85.9241353 Z M56.7409014,85.0671396 C56.0865293,84.9707548 55.4276281,84.8731275 54.7641982,84.7742578 C54.2179461,84.6928509 53.7091279,85.0696824 53.627721,85.6159345 C53.5463141,86.1621866 53.9231456,86.6710048 54.4693977,86.7524117 C55.1339429,86.8514476 55.7939632,86.9492407 56.4494587,87.0457909 C56.9958482,87.1262706 57.5040261,86.7485761 57.5845058,86.2021866 C57.6649854,85.6557971 57.2872909,85.1476193 56.7409014,85.0671396 Z" id="Line-5" fill="#C1C5CF" fill-rule="nonzero" transform="translate(129.308455, 79.519331) scale(1, -1) translate(-129.308455, -79.519331) "></path>
                <path d="M69.3605799,86.6825675 C68.8424057,87.1135069 68.3296439,87.6048955 67.8202479,88.1560041 C67.4453739,88.5615752 67.4702588,89.194251 67.8758299,89.569125 C68.281401,89.943999 68.9140768,89.9191141 69.2889508,89.513543 C69.7411,89.0243689 70.1910856,88.5931398 70.6394201,88.2202825 C71.0640484,87.8671405 71.1219995,87.2366332 70.7688575,86.8120049 C70.4157155,86.3873766 69.7852081,86.3294255 69.3605799,86.6825675 Z M65.2639434,91.4484063 C64.8988334,91.9925234 64.5330199,92.5684707 64.1651176,93.1772837 C63.8794782,93.6499661 64.0311066,94.2647073 64.503789,94.5503466 C64.9764713,94.8359859 65.5912125,94.6843576 65.8768518,94.2116752 C66.2288574,93.6291684 66.5777743,93.0798237 66.9247045,92.5627998 C67.2324357,92.1041933 67.1101272,91.4829538 66.6515207,91.1752226 C66.1929142,90.8674913 65.5716747,90.9897998 65.2639434,91.4484063 Z M62.185244,96.7228345 C61.884732,97.2993031 61.5804923,97.8990525 61.2703449,98.5255899 C61.0253303,99.0205508 61.2279518,99.6204195 61.7229127,99.8654341 C62.2178736,100.110449 62.8177422,99.9078273 63.0627569,99.4128664 C63.3669049,98.7984484 63.6648692,98.2110698 63.9587344,97.6473515 C64.2140327,97.1576157 64.0239835,96.5536461 63.5342477,96.2983478 C63.0445118,96.0430495 62.4405423,96.2330986 62.185244,96.7228345 Z M59.5299923,102.179184 C59.2641876,102.7553 58.9896284,103.357213 58.6966257,104.005479 C58.4691596,104.508746 58.6927404,105.101122 59.1960073,105.328589 C59.6992743,105.556055 60.2916504,105.332474 60.5191165,104.829207 C60.8100889,104.185433 61.0825246,103.588175 61.3460251,103.017053 C61.5773963,102.51557 61.3584269,101.921473 60.8569433,101.690102 C60.3554597,101.458731 59.7613635,101.6777 59.5299923,102.179184 Z M57.0684961,107.644625 C56.7140012,108.440477 56.4874792,108.948065 56.2537451,109.469617 C56.0278821,109.973605 56.2533474,110.565267 56.7573359,110.79113 C57.2613244,111.016993 57.8529858,110.791527 58.0788488,110.287539 C58.3133518,109.764271 58.5403861,109.255535 58.8954514,108.458403 C59.1201699,107.953903 58.8933624,107.362755 58.3888626,107.138036 C57.8843628,106.913318 57.2932146,107.140125 57.0684961,107.644625 Z M54.5988481,113.097684 C54.3032406,113.72985 54.0201288,114.324441 53.7450135,114.890098 C53.5034572,115.386756 53.7102578,115.985196 54.2069156,116.226753 C54.7035734,116.468309 55.3020142,116.261509 55.5435705,115.764851 C55.8233473,115.189609 56.1108051,114.585892 56.4105586,113.944859 C56.6444994,113.444569 56.4285807,112.849357 55.9282907,112.615416 C55.4280006,112.381475 54.8327889,112.597394 54.5988481,113.097684 Z M51.9302313,118.408902 C51.5958902,119.012433 51.2688,119.575137 50.9470768,120.099169 C50.6581199,120.569831 50.8054206,121.185623 51.2760822,121.47458 C51.7467438,121.763537 52.3625363,121.616237 52.6514932,121.145575 C52.9894505,120.5951 53.3314367,120.00677 53.6797187,119.378073 C53.9473481,118.894966 53.7726685,118.286373 53.2895609,118.018744 C52.8064533,117.751114 52.1978607,117.925794 51.9302313,118.408902 Z M48.725045,123.194855 C48.2799146,123.700847 47.8440489,124.122198 47.4173239,124.458595 C46.9836023,124.800507 46.9091763,125.429283 47.2510886,125.863004 C47.5930009,126.296726 48.2217764,126.371152 48.655498,126.029239 C49.1832222,125.613223 49.7053636,125.10847 50.2266828,124.515871 C50.5914714,124.101205 50.5510379,123.469333 50.136372,123.104544 C49.7217062,122.739755 49.0898336,122.780189 48.725045,123.194855 Z" id="Line-5" fill="#C1C5CF" fill-rule="nonzero" transform="translate(58.500013, 106.347679) scale(1, -1) translate(-58.500013, -106.347679) "></path>
                <g id="Group-8" transform="translate(135.000000, 79.000000)">
                    <g id="Group-10" transform="translate(0.526316, 0.000000)">
                        <ellipse id="Oval" fill="#1246C1" cx="19.4736842" cy="19.5" rx="19.4736842" ry="19.5"></ellipse>
                        <path d="M19.3688197,23.9895578 C19.3650705,23.9874176 19.3612708,23.985281 19.3574208,23.9831481 C18.505347,23.5110927 17.2375284,23.0104109 15.6326335,21.765216 C13.7538005,20.1697117 12.5611882,17.9818063 12.3872925,15.490055 C12.3497978,14.9527944 12.3573323,14.5724191 12.4151353,13.9956668 C12.4921145,13.2276387 12.6744786,12.487797 12.9563542,11.798575 C14.0004514,9.24562369 16.306529,7.60419404 19.0860507,7.58353073 C19.0949118,7.58333333 19.1037681,7.58334978 19.1126197,7.58338265 C19.1214713,7.58334978 19.1303276,7.58333333 19.1391887,7.58333333 C21.9187104,7.60419404 24.2247879,9.24562369 25.2688851,11.798575 C25.5507608,12.487797 25.7331249,13.2276387 25.8101041,13.9956668 C25.867907,14.5724191 25.8754415,14.9527944 25.8379469,15.490055 C25.6553688,18.1062164 24.349808,20.3874331 22.3060917,21.9997345 C22.3740521,22.0399617 22.4416235,22.0803864 22.5089375,22.1210938 C23.9257308,22.9778829 25.0722127,23.8705641 25.9510698,24.8851526 C26.0181902,24.9626392 26.0835517,25.0406651 26.1471258,25.1192293 C26.2106999,25.0406651 26.2760614,24.9626392 26.3431818,24.8851526 C27.2220389,23.8705641 28.3685209,22.9778829 29.7853141,22.1210938 C30.3698636,21.7675943 30.9738257,21.4354055 31.683373,21.0688268 L31.683373,24.7094297 C29.3871913,25.5172985 27.7537971,27.7317339 27.7538966,29.25 L24.5844153,29.25 L24.5403768,29.25 C24.5437095,27.7384626 23.2806845,26.2862214 20.8663901,24.8262051 C20.4083092,24.5491861 19.9271324,24.2817235 19.3688197,23.9895578 Z M17.0008333,24.9400954 C14.9060419,26.3613488 13.8124671,27.7780443 13.8154827,29.25 L10.8187113,29.25 C10.8166583,27.6176856 11.4136578,26.1353518 12.4816538,24.8084485 C12.9819439,24.1868762 13.5739545,23.6102682 14.2582398,23.0595238 C14.956323,23.7343755 15.8705209,24.3612327 17.0008333,24.9400954 Z M18.9327464,19.9642857 C18.9383233,19.9614036 18.9434546,19.9587445 18.948119,19.9563189 C20.969361,18.9052704 22.2508704,17.1407062 22.3952524,15.0725967 C22.4192544,14.728795 22.4153644,14.5324809 22.3760471,14.1403168 C22.3304649,13.6857016 22.2243132,13.2552039 22.0632243,12.8614617 C21.5076235,11.5034327 20.3620708,10.688268 18.9327464,10.6785714 C17.5034221,10.688268 16.3578694,11.5034327 15.8022686,12.8614617 C15.6411797,13.2552039 15.535028,13.6857016 15.4894458,14.1403168 C15.4501284,14.5324809 15.4462385,14.728795 15.4702405,15.0725967 C15.6146225,17.1407062 16.8961318,18.9052704 18.9173738,19.9563189 C18.9220383,19.9587445 18.9271696,19.9614036 18.9327464,19.9642857 Z" id="Combined-Shape" fill="#FFFFFF" fill-rule="nonzero"></path>
                    </g>
                </g>
                <g id="Group-22" transform="translate(175.000000, 0.000000)">
                    <ellipse id="Oval-6" fill="url(#linearGradient-1)" cx="30.8154854" cy="38.669774" rx="26.4101695" ry="26.5"></ellipse>
                    <path d="M19.5717907,7.84135684 C15.1438152,9.59802996 12.1081335,10.1683617 10.4647458,9.5523521 C3.88066293,7.08436592 1.51685147,3.58245572 1.49189515,3.74265431 C-1.06683364,20.1675405 5.45596187,22.2993485 10.4647458,22.2993485 C12.8232053,22.2993485 26.0642591,16.0462809 32.9281767,22.2993485 C34.8841651,24.0812649 51.2048154,22.1498018 53.7711893,11.4713736 C57.0045026,-1.98212298 45.604703,-3.19212858 19.5717907,7.84135684 Z" id="Path-10" fill="#303542"></path>
                    <ellipse id="Oval-7" fill="#303542" cx="23.3409091" cy="33.5983454" rx="3.20338983" ry="3.21428571"></ellipse>
                    <ellipse id="Oval-7" fill="#303542" cx="39.3578582" cy="33.5983454" rx="3.20338983" ry="3.21428571"></ellipse>
                    <path d="M45.0849082,41.4363113 C41.4444215,44.8100983 37.8352416,46.8030511 34.2586948,47.4417408 C30.7360852,48.0707985 25.8097263,46.8097222 19.524257,43.6022807 C19.0323209,43.3512483 18.4300258,43.5465394 18.1789934,44.0384755 C17.9279611,44.5304117 18.1232521,45.1327067 18.6151883,45.3837391 C25.2531763,48.771069 30.5699963,50.1320977 34.610287,49.4105939 C38.5966405,48.6987222 42.540892,46.5207461 46.4443676,42.9032367 C46.8494479,42.5278324 46.873505,41.8951246 46.4981006,41.4900443 C46.1226963,41.084964 45.4899885,41.0609069 45.0849082,41.4363113 Z" id="Line-3" fill="#303542" fill-rule="nonzero"></path>
                </g>
                <g id="Group" transform="translate(70.305897, 125.787582) rotate(-10.000000) translate(-70.305897, -125.787582) translate(52.805897, 108.287582)">
                    <ellipse id="Oval" fill="#FFFFFF" cx="17.8099742" cy="17.0570873" rx="17.0322581" ry="17.0285714"></ellipse>
                    <path d="M9.87639927,21.55217 C9.19581712,21.55217 8.62038971,21.4418007 8.15009979,21.2210589 C7.67980988,21.000317 7.32805359,20.722423 7.09482038,20.3873684 C6.86158717,20.0523138 6.73732543,19.7074098 6.72203145,19.3526462 C6.72203145,19.2816934 6.74497208,19.222567 6.79085402,19.1752652 C6.83673597,19.1279634 6.89408754,19.1043128 6.96291045,19.1043128 L8.01818987,19.1043128 C8.18642366,19.1043128 8.30112679,19.183148 8.36230272,19.3408208 C8.53053651,19.900559 9.03523031,20.1804239 9.87639927,20.1804239 C10.3428657,20.1804239 10.708004,20.0700547 10.9718252,19.8493128 C11.2356464,19.628571 11.367555,19.3132302 11.367555,18.9032811 C11.367555,18.4933319 11.2471167,18.1957291 11.0062365,18.0104636 C10.7653563,17.8251981 10.4116883,17.7325668 9.94522184,17.7325668 L8.76376771,17.7325668 C8.68729781,17.7325668 8.62229936,17.7049745 8.56877043,17.649789 C8.5152415,17.5946036 8.48847743,17.5275936 8.48847743,17.4487573 L8.48847743,16.9402652 C8.48847743,16.7904761 8.53818212,16.6722233 8.637593,16.5855033 L10.6793293,14.5278843 L7.41025716,14.5278843 C7.32614026,14.5278843 7.25731838,14.5002919 7.20378945,14.4451065 C7.15026051,14.389921 7.12349645,14.3229111 7.12349645,14.2440747 L7.12349645,13.4517731 C7.12349645,13.3650531 7.15026051,13.2941015 7.20378945,13.238916 C7.25731838,13.1837305 7.32614026,13.1561382 7.41025716,13.1561382 L12.3425414,13.1561382 C12.4266583,13.1561382 12.4954802,13.1837305 12.5490091,13.238916 C12.602538,13.2941015 12.6293021,13.3650531 12.6293021,13.4517731 L12.6293021,14.1731224 C12.6293021,14.3071442 12.5795974,14.4175135 12.4801865,14.5042335 L10.5072728,16.5973287 L10.644918,16.6091541 C11.3790291,16.6722232 11.9621033,16.9008452 12.3941583,17.2950271 C12.8262133,17.689209 13.0422375,18.2528806 13.0422375,18.9860589 C13.0422375,19.5063789 12.9065055,19.9596813 12.6350373,20.3459795 C12.3635691,20.7322777 11.9888722,21.0298806 11.5109353,21.238797 C11.0329984,21.4477133 10.4881585,21.55217 9.87639927,21.55217 Z M17.3092369,21.55217 C16.2845402,21.55217 15.5217643,21.2604798 15.0208864,20.6770906 C14.5200085,20.0937014 14.2466327,19.3290001 14.2007508,18.3829636 C14.1931038,18.1701054 14.1892804,17.8074635 14.1892804,17.2950271 C14.1892804,16.7747071 14.1931038,16.4041817 14.2007508,16.1834398 C14.2389857,15.2531706 14.5142733,14.4963528 15.0266216,13.9129636 C15.53897,13.3295745 16.2998341,13.0378843 17.3092369,13.0378843 C18.3186396,13.0378843 19.0795038,13.3295745 19.5918522,13.9129636 C20.1042005,14.4963528 20.379488,15.2531706 20.417723,16.1834398 C20.433017,16.6249235 20.4406639,16.9954489 20.4406639,17.2950271 C20.4406639,17.5946053 20.433017,17.9572472 20.417723,18.3829636 C20.3718411,19.3290001 20.0984652,20.0937014 19.5975874,20.6770906 C19.0967095,21.2604798 18.3339336,21.55217 17.3092369,21.55217 Z M17.3092369,20.1685985 C17.7833503,20.1685985 18.13893,20.0089573 18.3759867,19.68967 C18.6130434,19.3703827 18.7392169,18.9151094 18.7545109,18.3238366 C18.7621579,18.0952112 18.7659813,17.7443946 18.7659813,17.2713763 C18.7659813,16.7983581 18.7621579,16.455425 18.7545109,16.2425668 C18.7392169,15.6670613 18.6130434,15.2177007 18.3759867,14.8944716 C18.13893,14.5712424 17.7833503,14.4056885 17.3092369,14.3978049 C16.8351235,14.4056885 16.4795438,14.5712424 16.2424871,14.8944716 C16.0054303,15.2177007 15.8792569,15.6670613 15.8639629,16.2425668 C15.8563159,16.455425 15.8524925,16.7983581 15.8524925,17.2713763 C15.8524925,17.7443946 15.8563159,18.0952112 15.8639629,18.3238366 C15.8792569,18.9151094 16.0054303,19.3703827 16.2424871,19.68967 C16.4795438,20.0089573 16.8351235,20.1685985 17.3092369,20.1685985 Z M24.7561842,22.4236968 C24.6797143,22.4236968 24.6147158,22.3980754 24.5611869,22.3468317 C24.507658,22.2955881 24.4808939,22.2266073 24.4808939,22.1398873 L24.4808939,21.3121095 C23.9303106,21.256924 23.458116,21.1189625 23.064296,20.8982206 C22.670476,20.6774788 22.3722478,20.4074682 22.1696026,20.0881809 C21.9669573,19.7688936 21.8579894,19.4279314 21.8426954,19.0652841 C21.8426954,19.002215 21.8675477,18.9450595 21.9172532,18.8938159 C21.9669586,18.8425722 22.0262219,18.8169508 22.0950448,18.8169508 L23.1273834,18.8169508 C23.2191472,18.8169508 23.2898808,18.8346887 23.3395863,18.8701651 C23.3892917,18.9056414 23.4370847,18.9627969 23.4829666,19.0416333 C23.5670835,19.309677 23.7448734,19.5343573 24.0163416,19.7156809 C24.2878097,19.8970046 24.6605949,19.9876651 25.1347083,19.9876651 C25.6623507,19.9876651 26.0618999,19.8950337 26.3333681,19.7097682 C26.6048363,19.5245028 26.7405683,19.2702593 26.7405683,18.9470301 C26.7405683,18.7341719 26.6717464,18.5567928 26.5341006,18.4148873 C26.3964548,18.2729818 26.1880774,18.1488164 25.9089623,18.0423873 C25.6298471,17.9359582 25.2188275,17.807851 24.6758912,17.6580619 C23.7735463,17.43732 23.1120916,17.1456298 22.6915071,16.7829825 C22.2709226,16.4203352 22.0606335,15.9000229 22.0606335,15.2220301 C22.0606335,14.6071064 22.2766578,14.0867942 22.7087127,13.6610778 C23.1407677,13.2353613 23.7314888,12.9752052 24.4808939,12.8806016 L24.4808939,12.0646492 C24.4808939,11.9779292 24.507658,11.9089484 24.5611869,11.8577047 C24.6147158,11.8064611 24.6797143,11.7808397 24.7561842,11.7808397 L25.4673508,11.7808397 C25.5514677,11.7808397 25.6183778,11.8064611 25.6680833,11.8577047 C25.7177887,11.9089484 25.742641,11.9779292 25.742641,12.0646492 L25.742641,12.9042524 C26.2396954,12.9752051 26.6660087,13.1269628 27.0215938,13.3595301 C27.3771789,13.5920974 27.648643,13.862108 27.8359942,14.1695698 C28.0233455,14.4770317 28.1246666,14.7766054 28.1399606,15.0683 C28.1399606,15.1392527 28.11702,15.1983791 28.071138,15.2456809 C28.0252561,15.2929828 27.9679045,15.3166333 27.8990816,15.3166333 L26.8093909,15.3166333 C26.6488041,15.3166333 26.5379244,15.2456816 26.4767485,15.1037762 C26.4308665,14.8514998 26.2798407,14.6406156 26.0236665,14.4711174 C25.7674924,14.3016192 25.4482353,14.2168714 25.0658858,14.2168714 C24.6453013,14.2168714 24.3145739,14.2996484 24.0736937,14.4652047 C23.8328135,14.6307611 23.7123752,14.8712085 23.7123752,15.1865539 C23.7123752,15.3994122 23.7716385,15.5767913 23.8901668,15.7186968 C24.0086952,15.8606023 24.1998671,15.9867386 24.4636883,16.0971095 C24.7275094,16.2074804 25.1041181,16.3257332 25.5935255,16.4518714 C26.2741076,16.6095442 26.8151241,16.7869233 27.2165911,16.9840143 C27.6180581,17.1811052 27.9143745,17.429436 28.1055493,17.7290143 C28.2967241,18.0285925 28.39231,18.4109432 28.39231,18.8760778 C28.39231,19.5619542 28.1533451,20.1177423 27.6754082,20.5434587 C27.1974713,20.9691751 26.553222,21.2253895 25.742641,21.3121095 L25.742641,22.1398873 C25.742641,22.2266073 25.7177887,22.2955881 25.6680833,22.3468317 C25.6183778,22.3980754 25.5514677,22.4236968 25.4673508,22.4236968 L24.7561842,22.4236968 Z" id="300$" fill="#303542" fill-rule="nonzero"></path>
                </g>
                <g id="Group-4" transform="translate(85.000000, 118.000000)">
                    <circle id="Oval" fill="#FFFFFF" cx="9" cy="9" r="9"></circle>
                    <polygon id="Line" fill="#303542" fill-rule="nonzero" points="3.35735603 4.83769265 13.3744574 13.0520129 14.642644 11.5054998 4.62554265 3.29117956"></polygon>
                    <polygon id="Line" fill="#303542" fill-rule="nonzero" points="3.95794402 13.0338093 15.1514564 5.57146775 14.042056 3.90736716 2.84854363 11.3697087"></polygon>
                </g>
                <g id="Group-2" transform="translate(100.825548, 70.135542) rotate(-6.000000) translate(-100.825548, -70.135542) translate(81.325548, 50.635542)">
                    <ellipse id="Oval" fill="#FFFFFF" cx="19.777163" cy="19.7663152" rx="19.1612903" ry="19.1571429"></ellipse>
                    <path d="M7.06296694,23.6406073 C6.97216698,23.6406073 6.89498817,23.6074965 6.83142819,23.541274 C6.76786822,23.4750514 6.73608871,23.3946395 6.73608871,23.3000359 L6.73608871,22.5621311 C6.73608871,22.2972409 6.84958696,22.0749257 7.07658686,21.8951787 L9.20129534,19.6956549 C9.84597506,19.1658745 10.3430974,18.7330693 10.6926772,18.3972263 C11.0422571,18.0613834 11.3033031,17.7515611 11.475823,17.4677502 C11.6483429,17.1839392 11.7346016,16.9048626 11.7346016,16.6305121 C11.7346016,16.1858749 11.6211033,15.8358467 11.3941034,15.5804168 C11.1671035,15.324987 10.8220689,15.197274 10.3589891,15.197274 C9.90498925,15.197274 9.54860474,15.3368122 9.28982485,15.615893 C9.03104496,15.8949738 8.86987745,16.2568273 8.80631748,16.7014644 C8.77907749,16.8149888 8.7268683,16.8977658 8.64968833,16.9497978 C8.57250836,17.0018298 8.48851966,17.0278454 8.3977197,17.0278454 L7.17192635,17.0278454 C7.09020638,17.0278454 7.02210743,16.9994647 6.96762745,16.9427025 C6.91314748,16.8859403 6.8859079,16.8149887 6.8859079,16.7298454 C6.90406789,16.1716839 7.05161561,15.6490066 7.3285555,15.1617978 C7.60549538,14.674589 8.00273925,14.2819897 8.52029903,13.9839882 C9.03785881,13.6859868 9.64620943,13.5369882 10.3453691,13.5369882 C11.0717688,13.5369882 11.6891993,13.6670663 12.1976791,13.9272263 C12.7061589,14.1873864 13.087513,14.5445098 13.3417529,14.9986073 C13.5959928,15.4527048 13.7231108,15.968287 13.7231108,16.5453692 C13.7231108,17.1792136 13.5528634,17.7539222 13.2123636,18.2695121 C12.8718637,18.7851019 12.3429619,19.3361599 11.6256422,19.9227025 L9.73247245,21.9235597 L13.5869115,21.9235597 C13.6867915,21.9235597 13.7685102,21.9566705 13.8320702,22.022893 C13.8956302,22.0891156 13.9274097,22.1742576 13.9274097,22.2783216 L13.9274097,23.3000359 C13.9274097,23.4040999 13.8956302,23.4868768 13.8320702,23.5483692 C13.7685102,23.6098616 13.6867915,23.6406073 13.5869115,23.6406073 L7.06296694,23.6406073 Z M18.7488635,23.7967025 C17.9952239,23.7967025 17.3437439,23.6642594 16.7944041,23.3993692 C16.2450644,23.134479 15.8296608,22.7844507 15.5481809,22.349274 C15.266701,21.9140972 15.1168833,21.4458162 15.0987233,20.9444168 L15.0987233,20.9160359 C15.0987233,20.8403529 15.1282329,20.7764964 15.1872529,20.7244644 C15.2462728,20.6724324 15.3121018,20.6464168 15.3847418,20.6464168 L16.6786348,20.6464168 C16.8874747,20.6464168 17.0191326,20.741019 17.0736126,20.9302263 C17.2007326,21.3464824 17.4118393,21.6539396 17.7069392,21.8526073 C18.0020391,22.051275 18.3493437,22.1506073 18.7488635,22.1506073 C19.2573433,22.1506073 19.6772868,21.9897835 20.0087067,21.6681311 C20.3401266,21.3464787 20.505834,20.9018482 20.505834,20.3342263 C20.505834,19.8233666 20.3401266,19.4094819 20.0087067,19.0925597 C19.6772868,18.7756375 19.2573433,18.6171787 18.7488635,18.6171787 C18.4764636,18.6171787 18.2540071,18.6550196 18.0814872,18.7307025 C17.9089672,18.8063855 17.7409898,18.9104479 17.5775499,19.042893 C17.5593899,19.0523534 17.5185305,19.080734 17.4549706,19.1280359 C17.3914106,19.1753377 17.3346615,19.2084485 17.2847215,19.2273692 C17.2347815,19.2462899 17.1825723,19.2557502 17.1280923,19.2557502 L15.8478193,19.2557502 C15.7660993,19.2557502 15.6957304,19.2250044 15.6367104,19.1635121 C15.5776904,19.1020197 15.5481809,19.028703 15.5481809,18.9435597 L16.0112584,14.1046073 C16.0203384,13.9816226 16.0634677,13.8846553 16.1406477,13.8137025 C16.2178277,13.7427498 16.3108962,13.707274 16.4198562,13.707274 L21.5409484,13.707274 C21.6408283,13.707274 21.7202771,13.7380197 21.7792971,13.7995121 C21.8383171,13.8610044 21.8678266,13.9437814 21.8678266,14.0478454 L21.8678266,15.0127978 C21.8678266,15.1074014 21.8383171,15.1878133 21.7792971,15.2540359 C21.7202771,15.3202584 21.6408283,15.3533692 21.5409484,15.3533692 L17.6047897,15.3533692 L17.3868709,17.6522263 C17.5957108,17.5103209 17.8363271,17.3944331 18.108727,17.3045597 C18.3811269,17.2146862 18.7352414,17.1697502 19.1710812,17.1697502 C19.761281,17.1697502 20.3083426,17.2998282 20.8122823,17.5599882 C21.3162221,17.8201483 21.7202759,18.1938271 22.0244558,18.6810359 C22.3286356,19.1682447 22.4807233,19.733493 22.4807233,20.3767978 C22.4807233,21.0674044 22.3263657,21.6704936 22.0176458,22.1860835 C21.7089259,22.7016734 21.2730927,23.0990027 20.7101329,23.3780835 C20.1471731,23.6571642 19.4934232,23.7967025 18.7488635,23.7967025 Z M28.0106957,24.2252938 C27.9198958,24.2252938 27.8427169,24.1945481 27.779157,24.1330557 C27.715597,24.0715633 27.6838175,23.9887864 27.6838175,23.8847224 L27.6838175,22.891389 C27.0300578,22.8251665 26.4693764,22.6596126 26.0017566,22.3947224 C25.5341368,22.1298321 25.1800223,21.8058195 24.9394024,21.4226747 C24.6987825,21.03953 24.5693945,20.6303753 24.5512345,20.1951986 C24.5512345,20.1195156 24.580744,20.050929 24.639764,19.9894366 C24.698784,19.9279443 24.7691529,19.8971986 24.8508729,19.8971986 L26.0766662,19.8971986 C26.1856262,19.8971986 26.2696149,19.9184841 26.3286348,19.9610557 C26.3876548,20.0036273 26.4444039,20.072214 26.4988839,20.1668176 C26.5987639,20.48847 26.8098706,20.7580864 27.1322105,20.9756747 C27.4545503,21.1932631 27.8971935,21.3020557 28.4601533,21.3020557 C29.086673,21.3020557 29.5610957,21.1908981 29.8834356,20.9685795 C30.2057754,20.7462609 30.3669429,20.4411687 30.3669429,20.0532938 C30.3669429,19.7978639 30.2852242,19.5850089 30.1217843,19.4147224 C29.9583443,19.2444358 29.7109181,19.0954373 29.3794983,18.9677224 C29.0480784,18.8400074 28.560036,18.6862788 27.9153562,18.5065319 C26.8439167,18.2416417 26.0585088,17.8916134 25.559109,17.4564366 C25.0597092,17.0212599 24.8100131,16.3968852 24.8100131,15.5832938 C24.8100131,14.8453853 25.0665191,14.2210106 25.5795389,13.7101509 C26.0925587,13.1992912 26.7939779,12.8871039 27.6838175,12.7735795 L27.6838175,11.7944366 C27.6838175,11.6903726 27.715597,11.6075957 27.779157,11.5461033 C27.8427169,11.4846109 27.9198958,11.4538652 28.0106957,11.4538652 L28.8551311,11.4538652 C28.9550111,11.4538652 29.0344599,11.4846109 29.0934798,11.5461033 C29.1524998,11.6075957 29.1820094,11.6903726 29.1820094,11.7944366 L29.1820094,12.8019605 C29.7722091,12.8871037 30.2784113,13.069213 30.7006311,13.3482938 C31.1228509,13.6273745 31.445186,13.9513872 31.6676459,14.3203414 C31.8901058,14.6892956 32.0104139,15.0487841 32.0285739,15.3988176 C32.0285739,15.4839609 32.0013343,15.5549126 31.9468544,15.6116747 C31.8923744,15.6684369 31.8242754,15.6968176 31.7425555,15.6968176 L30.4486625,15.6968176 C30.2579826,15.6968176 30.1263246,15.6116756 30.0536846,15.441389 C29.9992047,15.1386574 29.8198774,14.8855964 29.5156975,14.6821986 C29.2115177,14.4788007 28.8324335,14.3771033 28.3784337,14.3771033 C27.8790339,14.3771033 27.48633,14.4764357 27.2003101,14.6751033 C26.9142902,14.873771 26.7712824,15.1623078 26.7712824,15.5407224 C26.7712824,15.7961522 26.8416514,16.0090072 26.9823913,16.1792938 C27.1231312,16.3495804 27.3501277,16.5009439 27.6633876,16.633389 C27.9766475,16.7658341 28.4238306,16.9077375 29.0049503,17.0591033 C29.81307,17.2483106 30.4554701,17.4611656 30.9321699,17.6976747 C31.4088697,17.9341839 31.7607142,18.2321809 31.9877141,18.5916747 C32.214714,18.9511686 32.3282123,19.4099894 32.3282123,19.9681509 C32.3282123,20.7912027 32.0444667,21.4581484 31.4769669,21.9690081 C30.9094671,22.4798678 30.1444889,22.787325 29.1820094,22.891389 L29.1820094,23.8847224 C29.1820094,23.9887864 29.1524998,24.0715633 29.0934798,24.1330557 C29.0344599,24.1945481 28.9550111,24.2252938 28.8551311,24.2252938 L28.0106957,24.2252938 Z" id="250$" fill="#303542" fill-rule="nonzero"></path>
                </g>
                <g id="Group-34" transform="translate(213.000000, 43.000000)">
                    <path d="M6.32975884,13.6842105 C6.32975884,13.6842105 4.32117565,21.7020595 0.304009269,37.7377574 L26.5033219,40 L29.2325807,16.2984936 C13.9640328,14.5556382 6.32975884,13.6842105 6.32975884,13.6842105 Z" id="Path-8" fill="#BFC4CE"></path>
                    <path d="M24.2289538,15.9323215 C25.9316076,4.13520619 24.147167,-2.09073124 19.4910583,-0.871560731 C15.7953128,0.0961451629 11.7496766,6.47786916 10.0426126,14.076568 L11.9939774,14.5149462 C13.554111,7.57028242 17.2177643,1.7911112 19.9976656,1.0632129 C22.4195909,0.429048194 23.7671877,5.13083202 22.2494645,15.6466258 L24.2289538,15.9323215 Z" id="Path-9" fill="#303542" fill-rule="nonzero"></path>
                </g>
                <g id="Group-5" transform="translate(116.000000, 59.000000)">
                    <circle id="Oval" fill="#303542" cx="9.5" cy="9.5" r="9.5"></circle>
                    <polygon id="Line" fill="#FFFFFF" fill-rule="nonzero" points="7.73386859 11.7522489 4.79670749 8.61433573 3.33655796 9.98107029 7.79556758 14.7448489 15.132538 6.22840791 13.6172968 4.92301753"></polygon>
                </g>
                <path d="M48.5823274,76.7832449 L48.5824621,85.7235997 L36.872781,84.6591365 L36.8726657,77.0100707 L32.5163268,79.8679717 L30.3189533,78.1957839 L36.872566,70.3871252 L40.6536113,70.3138832 C40.7527246,71.1796628 41.4757463,71.6125628 42.8226761,71.612583 C43.492418,71.6125931 44.2216232,71.1540978 45.0102915,70.2370972 C45.8912489,70.2200323 47.0818943,70.194433 48.5822276,70.1602993 L55.3266133,79.2604474 L53.0982324,79.7309091 L48.5823274,76.7832449 Z" id="Path" fill="#303542" transform="translate(42.822783, 77.941950) rotate(-4.000000) translate(-42.822783, -77.941950) "></path>
            </g>
        </g>
    </g>
</svg>