<?xml version="1.0" encoding="UTF-8"?>
<svg width="280px" height="170px" viewBox="0 0 280 170" version="1.1" xmlns="http://www.w3.org/2000/svg" xmlns:xlink="http://www.w3.org/1999/xlink">
    <!-- Generator: Sketch 55 (78076) - https://sketchapp.com -->
    <title>10@2x</title>
    <desc>Created with Sketch.</desc>
    <defs>
        <linearGradient x1="13.4451845%" y1="16.270468%" x2="85.143683%" y2="82.4488342%" id="linearGradient-1">
            <stop stop-color="#FF7800" offset="0%"></stop>
            <stop stop-color="#FFAB2C" offset="100%"></stop>
        </linearGradient>
    </defs>
    <g id="10" stroke="none" stroke-width="1" fill="none" fill-rule="evenodd">
        <g id="Group-53" transform="translate(5.000000, 19.000000)">
            <ellipse id="Oval" fill="#F3F4F7" cx="115.5" cy="75.5" rx="115.5" ry="71.5"></ellipse>
            <g id="Group-42">
                <g id="Group-24" transform="translate(0.000000, 24.000000)">
                    <g id="Group-26" transform="translate(66.536585, -0.000000)">
                        <path d="M23.6097561,0 L96.5853659,0 C104.692794,0 108.746509,5.39820995 108.746509,16.1946299 L108.746509,56.6019417 L12.8780488,56.6019417 L12.8780488,15.6710786 C12.8780488,5.22369286 16.4552846,0 23.6097561,0 Z" id="Rectangle" fill="#BFC4CE"></path>
                        <path d="M10.7317073,2.27373675e-13 L94.4390244,2.27373675e-13 C87.2845528,2.27373675e-13 83.7073171,5.39820995 83.7073171,16.1946299 L83.7073171,110 L0,110 L0,15.6710786 C0,5.22369286 3.57723577,2.27373675e-13 10.7317073,2.27373675e-13 Z" id="Rectangle" fill="#FFFFFF"></path>
                        <rect id="Rectangle" fill="#D3D6DE" x="9.65853659" y="22.4271845" width="34.3414634" height="41.6504854"></rect>
                        <polygon id="Rectangle" fill="#D3D6DE" points="49.3658537 22.4271845 74.0487805 22.4271845 74.0487805 25.631068 49.3658537 25.631068"></polygon>
                        <polygon id="Rectangle" fill="#D3D6DE" points="49.3658537 28.8349515 74.0487805 28.8349515 74.0487805 32.038835 49.3658537 32.038835"></polygon>
                        <polygon id="Rectangle" fill="#D3D6DE" points="49.3658537 35.2427184 74.0487805 35.2427184 74.0487805 38.4466019 49.3658537 38.4466019"></polygon>
                        <polygon id="Rectangle" fill="#D3D6DE" points="49.3658537 41.6504854 55.804878 41.6504854 55.804878 44.8543689 49.3658537 44.8543689"></polygon>
                        <polygon id="Rectangle" fill="#D3D6DE" points="9.65853659 71.5533981 44 71.5533981 44 73.6893204 9.65853659 73.6893204"></polygon>
                        <polygon id="Rectangle" fill="#D3D6DE" points="9.65853659 75.8252427 44 75.8252427 44 77.961165 9.65853659 77.961165"></polygon>
                        <polygon id="Rectangle" fill="#D3D6DE" points="9.65853659 80.0970874 44 80.0970874 44 82.2330097 9.65853659 82.2330097"></polygon>
                        <polygon id="Rectangle" fill="#D3D6DE" points="9.65853659 84.368932 16.097561 84.368932 16.097561 86.5048544 9.65853659 86.5048544"></polygon>
                        <polygon id="Rectangle" fill="#D3D6DE" points="48.2926829 71.5533981 74.0487805 71.5533981 74.0487805 73.6893204 48.2926829 73.6893204"></polygon>
                        <polygon id="Rectangle" fill="#D3D6DE" points="48.2926829 75.8252427 74.0487805 75.8252427 74.0487805 77.961165 48.2926829 77.961165"></polygon>
                        <polygon id="Rectangle" fill="#D3D6DE" points="48.2926829 80.0970874 74.0487805 80.0970874 74.0487805 82.2330097 48.2926829 82.2330097"></polygon>
                        <polygon id="Rectangle" fill="#D3D6DE" points="48.2926829 84.368932 54.7317073 84.368932 54.7317073 86.5048544 48.2926829 86.5048544"></polygon>
                    </g>
                    <g id="Group-18" transform="translate(0.000000, 49.126214)">
                        <g id="Group-16" transform="translate(0.000000, 0.000000)"></g>
                        <g id="Group-16" transform="translate(42.926829, 6.407767) scale(-1, 1) translate(-42.926829, -6.407767) translate(27.902439, 0.000000)"></g>
                    </g>
                </g>
                <g id="Group-27">
                    <ellipse id="Oval-6" fill="url(#linearGradient-1)" cx="43.5759494" cy="47.3417722" rx="38.1962025" ry="37.6582278"></ellipse>
                    <path d="M25.7266641,3.98889858 C22.3086131,5.59260809 12.366857,1.84743222 6.05671966,9.09896288 C-0.605126458,16.7546728 -3.31943647,35.5157668 6.05671966,40.8721377 C6.90779592,41.358337 10.5402113,28.9806748 14.7249547,26.2754054 C21.3142119,22.0157141 29.4520702,26.4572121 31.6246572,26.2754054 C32.4828499,26.2035901 50.6412562,31.7457044 58.2051135,31.5192549 C64.0798948,31.3433735 62.3252745,19.5287162 64.5742774,21.454201 C66.6387551,23.2217045 76.4545526,24.6169676 78.4378585,26.2754054 C82.7254107,29.8606511 77.2606904,37.8999239 78.4378585,37.5158507 C82.9429501,36.04598 86.8951857,17.8072259 80.8147961,9.09896288 C76.178168,2.4584384 64.2693289,1.7981684 56.4659072,0.500156219 C48.1786665,-0.878333844 32.7532783,0.692093433 25.7266641,3.98889858 Z" id="Path-7" fill="#303542"></path>
                    <circle id="Oval-7" fill="#303542" cx="33.3544304" cy="39.8101266" r="3.2278481"></circle>
                    <circle id="Oval-7" fill="#303542" cx="54.8734177" cy="39.8101266" r="3.2278481"></circle>
                    <path d="M40.2362652,63.482949 C42.583569,62.1078713 44.0728321,59.2400679 44.0728321,57.3036547 C44.0728321,55.3672414 42.4875134,53.7974684 40.5319236,53.7974684 C34.9506808,53.7974684 35.5292084,57.3076104 26.0489873,58.3508722 C22.9052826,58.6968248 19.2433839,58.0610175 15.0632911,56.4434504 C17.5171804,62.2607807 21.1790791,65.4019411 26.0489873,65.8669317 C33.3538497,66.5644176 37.9281273,64.8350829 40.2362652,63.482949 Z" id="Oval" fill="#303542"></path>
                    <path d="M68.9226268,62.7835219 C70.1968263,61.8607095 72.7591938,59.2400679 72.7591938,57.3036547 C72.7591938,55.3672414 71.173875,53.7974684 69.2182853,53.7974684 C63.6370425,53.7974684 64.2155701,57.3076104 54.735349,58.3508722 C51.5916443,58.6968248 47.9297455,58.0610175 43.7496528,56.4434504 C46.203542,62.2607807 49.8654407,65.4019411 54.735349,65.8669317 C62.0402113,66.5644176 66.9883831,64.1843575 68.9226268,62.7835219 Z" id="Oval" fill="#303542" transform="translate(58.254423, 59.894821) scale(-1, 1) translate(-58.254423, -59.894821) "></path>
                    <circle id="Oval" fill-opacity="0.5" fill="#FFFFFF" cx="60.2531646" cy="44.1139241" r="12.9113924"></circle>
                    <path d="M60.2531646,57.0253165 C67.3839297,57.0253165 73.164557,51.2446892 73.164557,44.1139241 C73.164557,36.9831589 67.3839297,31.2025316 60.2531646,31.2025316 C53.1223994,31.2025316 47.3417722,36.9831589 47.3417722,44.1139241 C47.3417722,51.2446892 53.1223994,57.0253165 60.2531646,57.0253165 Z M60.2531646,55.0253165 C54.2269689,55.0253165 49.3417722,50.1401197 49.3417722,44.1139241 C49.3417722,38.0877284 54.2269689,33.2025316 60.2531646,33.2025316 C66.2793602,33.2025316 71.164557,38.0877284 71.164557,44.1139241 C71.164557,50.1401197 66.2793602,55.0253165 60.2531646,55.0253165 Z" id="Oval" fill="#FFFFFF" fill-rule="nonzero"></path>
                    <polygon id="Rectangle" fill="#FFFFFF" transform="translate(74.490181, 68.322785) rotate(-30.000000) translate(-74.490181, -68.322785) " points="72.8762572 51.6455696 76.1041053 51.6455696 76.1041053 85 72.8762572 85"></polygon>
                </g>
            </g>
        </g>
    </g>
</svg>