<?xml version="1.0" encoding="UTF-8"?>
<svg width="280px" height="170px" viewBox="0 0 280 170" version="1.1" xmlns="http://www.w3.org/2000/svg" xmlns:xlink="http://www.w3.org/1999/xlink">
    <!-- Generator: Sketch 55 (78076) - https://sketchapp.com -->
    <title>11@2x</title>
    <desc>Created with Sketch.</desc>
    <defs>
        <linearGradient x1="13.4451845%" y1="15.5300661%" x2="85.143683%" y2="83.1611233%" id="linearGradient-1">
            <stop stop-color="#FF7800" offset="0%"></stop>
            <stop stop-color="#FFAB2C" offset="100%"></stop>
        </linearGradient>
    </defs>
    <g id="11" stroke="none" stroke-width="1" fill="none" fill-rule="evenodd">
        <g id="Group-54" transform="translate(6.000000, 14.000000)">
            <ellipse id="Oval" fill="#F3F4F7" cx="110" cy="86.5" rx="110" ry="63.5"></ellipse>
            <g id="Group-43" transform="translate(38.000000, 0.000000)">
                <g id="Group-29" transform="translate(75.500000, 60.000000) scale(-1, 1) translate(-75.500000, -60.000000) ">
                    <path d="M40.9402985,3.58444794 L40.9402985,85.171688 L149.5,89.2832357 L149.5,1.52867413 L40.9402985,3.58444794 Z" id="Rectangle" stroke="#FFFFFF" stroke-width="3" fill="#F3F4F7"></path>
                    <polygon id="Rectangle" fill="#FFFFFF" points="0 105.307753 105.399023 112.149533 149.873134 90.6542056 38.1174645 86.3551402"></polygon>
                    <path d="M73.2462687,102.056075 C80.0921266,102.056075 85.641791,100.047633 85.641791,97.5700935 C85.641791,96.6028252 85.641791,94.3598345 85.641791,90.8411215 C79.2692896,92.3364486 75.1374488,93.0841121 73.2462687,93.0841121 C69.9826513,93.0841121 65.8508105,92.3364486 60.8507463,90.8411215 C60.8507463,94.8565242 60.8507463,97.0995149 60.8507463,97.5700935 C60.8507463,100.047633 66.4004107,102.056075 73.2462687,102.056075 Z" id="Oval" fill="#0940C8"></path>
                    <path d="M136.914179,81.9906542 C138.515102,81.9906542 138.731343,81.4921513 138.731343,78.5046729 C138.731343,75.5171945 138.515102,75.0186916 136.914179,75.0186916 C135.313257,75.0186916 135.097015,75.5171945 135.097015,78.5046729 C135.097015,81.4921513 135.313257,81.9906542 136.914179,81.9906542 Z" id="Oval" stroke="#303542" stroke-width="2"></path>
                    <path d="M130.152985,81.9906542 C131.753908,81.9906542 131.970149,81.4921513 131.970149,78.5046729 C131.970149,75.5171945 131.753908,75.0186916 130.152985,75.0186916 C128.552062,75.0186916 128.335821,75.5171945 128.335821,78.5046729 C128.335821,81.4921513 128.552062,81.9906542 130.152985,81.9906542 Z" id="Oval" stroke="#303542" stroke-width="2"></path>
                    <path d="M120.011194,81.9906542 C121.612117,81.9906542 121.828358,81.4921513 121.828358,78.5046729 C121.828358,75.5171945 121.612117,75.0186916 120.011194,75.0186916 C118.410271,75.0186916 118.19403,75.5171945 118.19403,78.5046729 C118.19403,81.4921513 118.410271,81.9906542 120.011194,81.9906542 Z" id="Oval" stroke="#303542" stroke-width="2"></path>
                    <path d="M113.25,81.9906542 C114.850923,81.9906542 115.067164,81.4921513 115.067164,78.5046729 C115.067164,75.5171945 114.850923,75.0186916 113.25,75.0186916 C111.649077,75.0186916 111.432836,75.5171945 111.432836,78.5046729 C111.432836,81.4921513 111.649077,81.9906542 113.25,81.9906542 Z" id="Oval" stroke="#303542" stroke-width="2"></path>
                    <ellipse id="Oval" fill="#D3D6DE" cx="125.08209" cy="77.3831776" rx="1.12686567" ry="1.12149533"></ellipse>
                    <ellipse id="Oval" fill="#D3D6DE" cx="125.08209" cy="80.7476636" rx="1.12686567" ry="1.12149533"></ellipse>
                    <ellipse id="Oval" fill="#1B55E3" cx="73.2462687" cy="90.8411215" rx="12.3955224" ry="4.48598131"></ellipse>
                    <polygon id="Rectangle" fill="#E7E8EE" points="0.279793221 105.420561 105.731713 111.881046 105.925373 120 0 110.680542"></polygon>
                    <polygon id="Rectangle" fill="#CFD2DB" points="151 89.7196262 105.925373 111.655872 106.121035 120 150.717314 95.1254896"></polygon>
                </g>
                <path d="M55.3018035,49.8925167 C55.548992,49.8925167 55.7874212,49.8009646 55.9710846,49.6355259 L73.4978156,33.8479546 L84.1006025,46.6246224 C84.5503745,47.1666109 85.4045536,47.0862219 85.745308,46.469835 L102.87517,15.4838161 C103.142374,15.0004733 102.967159,14.3920346 102.483816,14.1248303 C102.000473,13.8576261 101.392035,14.032841 101.12483,14.5161839 L84.7039148,44.2197978 L74.3718431,31.7693497 C74.0089941,31.3321061 73.3551974,31.2846643 72.933026,31.664944 L54.9178232,47.8925167 L31.2054186,47.8925167 C30.8864707,47.8925167 30.5866545,48.0446613 30.3983356,48.3020787 L21.8404829,60 L11,60 C10.4477153,60 10,60.4477153 10,61 C10,61.5522847 10.4477153,62 11,62 L22.3479425,62 C22.6668904,62 22.9667066,61.8478554 23.1550255,61.590438 L31.7128782,49.8925167 L55.3018035,49.8925167 Z" id="Path-23" fill="#D3D6DE" fill-rule="nonzero"></path>
                <circle id="Oval" fill="#303542" cx="103" cy="14" r="3"></circle>
                <path d="M12,69 L13,69 C13.5522847,69 14,68.5522847 14,68 C14,67.4477153 13.5522847,67 13,67 L12,67 C11.4477153,67 11,67.4477153 11,68 C11,68.5522847 11.4477153,69 12,69 Z M17,69 L18,69 C18.5522847,69 19,68.5522847 19,68 C19,67.4477153 18.5522847,67 18,67 L17,67 C16.4477153,67 16,67.4477153 16,68 C16,68.5522847 16.4477153,69 17,69 Z M22,69 L23,69 C23.5522847,69 24,68.5522847 24,68 C24,67.4477153 23.5522847,67 23,67 L22,67 C21.4477153,67 21,67.4477153 21,68 C21,68.5522847 21.4477153,69 22,69 Z M27.1350933,67.2669382 L27.727296,66.4611492 C28.0543606,66.0161243 27.9587348,65.390222 27.5137098,65.0631575 C27.0686848,64.7360929 26.4427826,64.8317187 26.1157181,65.2767437 L25.5235153,66.0825327 C25.1964507,66.5275577 25.2920766,67.1534599 25.7371015,67.4805244 C26.1821265,67.807589 26.8080287,67.7119632 27.1350933,67.2669382 Z M30.0961071,63.2379933 L30.6883098,62.4322043 C31.0153744,61.9871793 30.9197486,61.3612771 30.4747236,61.0342126 C30.0296987,60.707148 29.4037964,60.8027738 29.0767319,61.2477988 L28.4845291,62.0535878 C28.1574646,62.4986127 28.2530904,63.124515 28.6981153,63.4515795 C29.1431403,63.7786441 29.7690425,63.6830183 30.0961071,63.2379933 Z M33.0571209,59.2090484 L33.6493237,58.4032594 C33.9763882,57.9582344 33.8807624,57.3323322 33.4357374,57.0052676 C32.9907125,56.6782031 32.3648103,56.7738289 32.0377457,57.2188539 L31.4455429,58.0246429 C31.1184784,58.4696678 31.2141042,59.09557 31.6591292,59.4226346 C32.1041541,59.7496992 32.7300563,59.6540733 33.0571209,59.2090484 Z M35.3714845,55.9023518 L36.3714845,55.9023518 C36.9237693,55.9023518 37.3714845,55.4546366 37.3714845,54.9023518 C37.3714845,54.3500671 36.9237693,53.9023518 36.3714845,53.9023518 L35.3714845,53.9023518 C34.8191998,53.9023518 34.3714845,54.3500671 34.3714845,54.9023518 C34.3714845,55.4546366 34.8191998,55.9023518 35.3714845,55.9023518 Z M40.3714845,55.9023518 L41.3714845,55.9023518 C41.9237693,55.9023518 42.3714845,55.4546366 42.3714845,54.9023518 C42.3714845,54.3500671 41.9237693,53.9023518 41.3714845,53.9023518 L40.3714845,53.9023518 C39.8191998,53.9023518 39.3714845,54.3500671 39.3714845,54.9023518 C39.3714845,55.4546366 39.8191998,55.9023518 40.3714845,55.9023518 Z M45.3714845,55.9023518 L46.3714845,55.9023518 C46.9237693,55.9023518 47.3714845,55.4546366 47.3714845,54.9023518 C47.3714845,54.3500671 46.9237693,53.9023518 46.3714845,53.9023518 L45.3714845,53.9023518 C44.8191998,53.9023518 44.3714845,54.3500671 44.3714845,54.9023518 C44.3714845,55.4546366 44.8191998,55.9023518 45.3714845,55.9023518 Z M50.3714845,55.9023518 L51.3714845,55.9023518 C51.9237693,55.9023518 52.3714845,55.4546366 52.3714845,54.9023518 C52.3714845,54.3500671 51.9237693,53.9023518 51.3714845,53.9023518 L50.3714845,53.9023518 C49.8191998,53.9023518 49.3714845,54.3500671 49.3714845,54.9023518 C49.3714845,55.4546366 49.8191998,55.9023518 50.3714845,55.9023518 Z M55.3714845,55.9023518 L56.3714845,55.9023518 C56.9237693,55.9023518 57.3714845,55.4546366 57.3714845,54.9023518 C57.3714845,54.3500671 56.9237693,53.9023518 56.3714845,53.9023518 L55.3714845,53.9023518 C54.8191998,53.9023518 54.3714845,54.3500671 54.3714845,54.9023518 C54.3714845,55.4546366 54.8191998,55.9023518 55.3714845,55.9023518 Z M60.0036461,56.2291602 L60.9548817,56.5376254 C61.4802346,56.707986 62.0442219,56.4202079 62.2145826,55.894855 C62.3849432,55.3695021 62.0971651,54.8055148 61.5718122,54.6351542 L60.6205766,54.3266889 C60.0952236,54.1563283 59.5312363,54.4441064 59.3608757,54.9694593 C59.1905151,55.4948122 59.4782932,56.0587995 60.0036461,56.2291602 Z M64.7598242,57.7714863 L65.7110598,58.0799516 C66.2364127,58.2503122 66.8004,57.9625341 66.9707606,57.4371812 C67.1411213,56.9118283 66.8533432,56.347841 66.3279903,56.1774803 L65.3767546,55.8690151 C64.8514017,55.6986545 64.2874144,55.9864326 64.1170538,56.5117855 C63.9466931,57.0371384 64.2344712,57.6011257 64.7598242,57.7714863 Z M69.5160023,59.3138125 L70.4672379,59.6222777 C70.9925908,59.7926384 71.5565781,59.5048603 71.7269387,58.9795074 C71.8972994,58.4541544 71.6095213,57.8901671 71.0841683,57.7198065 L70.1329327,57.4113413 C69.6075798,57.2409806 69.0435925,57.5287587 68.8732319,58.0541117 C68.7028712,58.5794646 68.9906493,59.1434519 69.5160023,59.3138125 Z M74.2721803,60.8561387 L75.223416,61.1646039 C75.7487689,61.3349645 76.3127562,61.0471864 76.4831168,60.5218335 C76.6534775,59.9964806 76.3656994,59.4324933 75.8403464,59.2621327 L74.8891108,58.9536674 C74.3637579,58.7833068 73.7997706,59.0710849 73.62941,59.5964378 C73.4590493,60.1217907 73.7468274,60.685778 74.2721803,60.8561387 Z M79.6388988,60.4599551 L80.4260867,59.843242 C80.8608386,59.5026407 80.9371628,58.8740928 80.5965615,58.4393409 C80.2559603,58.0045889 79.6274123,57.9282648 79.1926604,58.268866 L78.4054725,58.8855792 C77.9707205,59.2261805 77.8943964,59.8547284 78.2349976,60.2894803 C78.5755989,60.7242322 79.2041468,60.8005564 79.6388988,60.4599551 Z M83.5748386,57.3763894 L84.3620265,56.7596762 C84.7967784,56.419075 84.8731026,55.790527 84.5325013,55.3557751 C84.1919001,54.9210232 83.5633521,54.844699 83.1286002,55.1853003 L82.3414123,55.8020134 C81.9066604,56.1426147 81.8303362,56.7711626 82.1709375,57.2059146 C82.5115387,57.6406665 83.1400867,57.7169906 83.5748386,57.3763894 Z M87.5107784,54.2928236 L88.2979664,53.6761105 C88.7327183,53.3355092 88.8090424,52.7069613 88.4684412,52.2722094 C88.1278399,51.8374574 87.499292,51.7611333 87.0645401,52.1017345 L86.2773521,52.7184477 C85.8426002,53.059049 85.766276,53.6875969 86.1068773,54.1223488 C86.4474785,54.5571007 87.0760265,54.6334249 87.5107784,54.2928236 Z M91.1898821,53.3822765 L92.1779414,53.5363512 C92.7236314,53.6214443 93.2349821,53.2480567 93.3200752,52.7023666 C93.4051683,52.1566766 93.0317807,51.6453258 92.4860906,51.5602328 L91.4980314,51.4061581 C90.9523414,51.321065 90.4409906,51.6944527 90.3558976,52.2401427 C90.2708045,52.7858327 90.6441921,53.2971835 91.1898821,53.3822765 Z M96.1301782,54.1526498 L97.1182374,54.3067244 C97.6639274,54.3918175 98.1752782,54.0184299 98.2603713,53.4727398 C98.3454643,52.9270498 97.9720767,52.415699 97.4263867,52.330606 L96.4383275,52.1765313 C95.8926374,52.0914383 95.3812867,52.4648259 95.2961936,53.0105159 C95.2111006,53.5562059 95.5844882,54.0675567 96.1301782,54.1526498 Z M101.070474,54.923023 L102.058533,55.0770976 C102.604223,55.1621907 103.115574,54.7888031 103.200667,54.243113 C103.28576,53.697423 102.912373,53.1860723 102.366683,53.1009792 L101.378624,52.9469045 C100.832934,52.8618115 100.321583,53.2351991 100.23649,53.7808891 C100.151397,54.3265791 100.524784,54.8379299 101.070474,54.923023 Z" id="Path-23" fill="#D3D6DE" fill-rule="nonzero"></path>
                <g id="Group-23" transform="translate(154.000000, 69.500000) scale(-1, 1) translate(-154.000000, -69.500000) translate(118.000000, 29.000000)">
                    <g id="Group-9-Copy" transform="translate(0.562500, 0.000000)">
                        <ellipse id="Oval-6" fill="url(#linearGradient-1)" cx="37.6841609" cy="48.1241817" rx="32.919319" ry="32.8099524"></ellipse>
                        <path d="M55.807531,55.2419837 C53.4439005,60.6233111 49.43384,62.9520494 43.5607699,62.3520165 C40.7477802,62.0646222 38.8034749,61.2843995 37.0455614,59.9959019 C36.6156892,59.6808186 34.8645573,58.2062236 34.3806821,57.8875957 C33.9781642,57.622541 33.5901722,57.4291609 33.1822042,57.3037705 C32.6542918,57.1415148 32.0948,57.4379381 31.9325442,57.9658505 C31.7702885,58.4937629 32.0667117,59.0532547 32.5946241,59.2155105 C32.8050754,59.2801934 33.0265376,59.3905729 33.280753,59.5579717 C33.6445663,59.7975398 35.3423645,61.2272235 35.8632154,61.6089915 C37.9005747,63.1023144 40.1800294,64.0170279 43.3574944,64.3416594 C50.0929276,65.0297973 54.9255165,62.2233971 57.6386817,56.0462766 C57.8607811,55.5406183 57.6309111,54.9506542 57.1252528,54.7285548 C56.6195945,54.5064554 56.0296304,54.7363254 55.807531,55.2419837 Z" id="Line-3" fill="#303542" fill-rule="nonzero"></path>
                        <path d="M3.02045214,23.9939663 C10.2415527,22.8896561 15.2943824,22.337501 18.1789412,22.337501 C24.2086846,22.337501 28.7258143,25.7548359 32.3128543,25.7548359 C34.8799018,25.7548359 43.065588,24.0950222 47.8220954,30.3319253 C51.0772203,34.6001619 50.6880944,46.7164386 53.8796996,49.1301462 C57.217484,51.6544044 57.8565379,51.6993491 59.7845294,45.6084071 C61.7125209,39.517465 63.4097682,23.0931874 62.1747666,19.0808549 C57.1760687,2.84084517 48.1180157,6.70266162 42.3232367,4.84526466 C31.4835406,1.3708235 19.9849186,-0.558798928 13.3230599,1.83192028 C6.60890576,4.24140654 2.16062129,2.33362641 0.254082185,12.8590426 C-0.0786347172,14.6958703 0.8434886,18.4075116 3.02045214,23.9939663 Z" id="Path-11" fill="#303542" transform="translate(31.391316, 25.753431) scale(-1, 1) translate(-31.391316, -25.753431) "></path>
                    </g>
                    <path d="M31.2983357,36 L61.9286063,36 C64.69003,36 66.9286063,38.2385763 66.9286063,41 C66.9286063,41.4826891 66.8587116,41.9628347 66.7210977,42.4254914 L66.2240238,44.0966504 C65.1150208,47.8251102 61.4012157,50.1425081 57.5647482,49.5 L55.8765764,49.2172754 C52.7745035,48.6977592 50.2011544,46.5308541 49.1611411,43.5625 C48.7892739,42.5011352 47.6274098,41.942187 46.5660451,42.3140541 C46.0393282,42.4985983 45.6114414,42.8912413 45.3824126,43.4001942 L45.309375,43.5625 C43.9580296,46.5654898 41.1838056,48.6848326 37.9311612,49.1990183 L36.0272061,49.5 C31.9573568,50.1433714 28.0425599,47.66515 26.8829275,43.7113097 L26.5004382,42.4071883 C25.7232695,39.7573826 27.2413418,36.9792711 29.8911475,36.2021024 C30.34819,36.0680552 30.8220412,36 31.2983357,36 Z" id="Rectangle" fill="#303542"></path>
                </g>
                <path d="M22,39 C28.0751322,39 33,34.0751322 33,28 L23.0179771,28.0188884 L22,17 C15.9248678,17 11,21.9248678 11,28 C11,34.0751322 15.9248678,39 22,39 Z" id="Oval" fill="#FFFFFF"></path>
                <path d="M37.4717693,24.9763955 L36.4334156,13.7144508 C30.2395633,13.7141843 25.2186699,18.7474496 25.2189364,24.9565634 L37.4717693,24.9763955 Z" id="Oval" fill="#FFFFFF" transform="translate(31.345353, 19.345423) rotate(91.000000) translate(-31.345353, -19.345423) "></path>
            </g>
        </g>
    </g>
</svg>