<?xml version="1.0" encoding="UTF-8"?>
<svg width="280px" height="170px" viewBox="0 0 280 170" version="1.1" xmlns="http://www.w3.org/2000/svg" xmlns:xlink="http://www.w3.org/1999/xlink">
    <!-- Generator: Sketch 55 (78076) - https://sketchapp.com -->
    <title>2@2x</title>
    <desc>Created with Sketch.</desc>
    <defs>
        <linearGradient x1="13.4694018%" y1="15.2998835%" x2="85.1204006%" y2="83.3825659%" id="linearGradient-1">
            <stop stop-color="#FF7800" offset="0%"></stop>
            <stop stop-color="#FFAB2C" offset="100%"></stop>
        </linearGradient>
    </defs>
    <g id="2" stroke="none" stroke-width="1" fill="none" fill-rule="evenodd">
        <g id="Group-56" transform="translate(31.000000, 5.000000)">
            <g id="Group-45">
                <ellipse id="Oval" fill="#F3F4F7" cx="114" cy="95" rx="105" ry="65"></ellipse>
                <g id="Group-31">
                    <g id="Group-6">
                        <g id="Group-3" transform="translate(0.000000, 32.686558)" fill="#E3E5EB">
                            <path d="M9.24829874,16.0952222 L0,27.3843639 L4.62414937,32.431516 L6.80559237,43.7545434 L9.24829874,43.8193083 L16.1034533,52.7822473 L11.7632243,55.7659035 L8.05172663,65.5060895 L1.94425267,74.1154249 L16.1034533,99.5175638 L26.0781916,104.051879 L38.2308329,104.051879 L47.8841252,91.1695057 L38.2308329,78.1420655 L42.3147547,69.4098692 L42.3147547,55.7659035 L45.9894347,46.6710431 L38.2308329,43.8193083 L42.3147547,40.7732875 L51.5149074,40.7732875 C57.8843527,46.6062811 61.0690754,48.5721996 61.0690754,46.6710431 C61.0690754,44.7698865 61.9248487,41.8410909 63.6363952,37.8846562 L66.5166647,26.5694814 L55.3750915,19.6181347 L55.3750915,12.0807846 L42.3147547,6.21875 L23.1285352,12.0807846 L9.24829874,16.0952222 Z" id="Path-2"></path>
                            <polygon id="Path-3" points="73.765112 41.3918982 70.113089 51.4492681 73.765112 56.3193015 80.905222 51.4492681 84.0258948 56.3193015 86.739069 51.4492681 95.0990996 51.4492681 98.2558985 56.3193015 95.0990996 61.2268964 84.0258948 65.3118115 70.113089 65.3118115 70.113089 72.4149774 70.113089 79.5764178 80.905222 89.5865312 92.0917821 102.697942 95.0990996 107.219509 104.945374 105.198119 111.007534 94.0684352 111.007534 83.6030584 115.760371 76.6223534 118.768968 74.8708621 122.973255 83.6030584 127.423937 87.6005548 132.254123 81.4768915 135.219356 74.8708621 139.177249 81.4768915 146.052228 87.6005548 153.35769 89.5865312 166.960378 83.6030584 162.736266 73.9110722 177.576593 77.4854653 183.08184 83.6749042 187.110936 82.8530136 177.576593 67.3826146 181.310747 65.3118115 187.110936 56.3193015 194.133186 43.3456491 200.062236 32.0304743 213.688997 22.785764 194.133186 17.5417775 187.110936 11.6797429 173.339736 6.34419798 156.859611 6.38356808 139.177249 7.30309593 132.254123 13.833421 118.768968 13.833421 115.760371 7.30309593 104.945374 2.26379654 100.343173 0.0793993794 92.0917821 6.34419798 95.0990996 11.6797429 95.0990996 20.2331752 86.739069 24.6145055 86.739069 32.0304743 73.765112 35.029754"></polygon>
                            <polygon id="Path-4" points="75.188741 18.1213136 76.676384 24.1245894 82.7930915 24.1245894 82.7930915 19.5062364 77.7070081 15.4715918"></polygon>
                            <polygon id="Path-5" points="193.251205 87.4424867 181.814655 90.610116 177.969388 96.5541987 185.610296 112.084492 205.681889 119.718324 212.034104 103.580405 212.034104 93.064767 197.646392 90.610116"></polygon>
                            <polygon id="Path-6" points="205.565406 39.3289719 202.562191 43.7545434 196.595783 55.1353147 202.562191 59.8508185 208.131586 50.2373961 213.688997 43.7545434"></polygon>
                        </g>
                        <path d="M18.9471239,38.1542556 L20.2259825,39.6919553 C20.5791296,40.1165794 21.2096377,40.174523 21.6342617,39.8213759 C22.0588858,39.4682288 22.1168293,38.8377208 21.7636823,38.4130967 L20.4848236,36.8753969 C20.1316766,36.4507729 19.5011685,36.3928293 19.0765444,36.7459764 C18.6519204,37.0991234 18.5939768,37.7296315 18.9471239,38.1542556 Z M22.7836998,42.7673549 L24.0625584,44.3050546 C24.4157055,44.7296787 25.0462136,44.7876222 25.4708377,44.4344752 C25.8954617,44.0813281 25.9534053,43.45082 25.6002582,43.026196 L24.3213996,41.4884962 C23.9682525,41.0638722 23.3377444,41.0059286 22.9131204,41.3590757 C22.4884963,41.7122227 22.4305527,42.3427308 22.7836998,42.7673549 Z M26.6202757,47.3804542 L27.8991344,48.9181539 C28.2522815,49.342778 28.8827895,49.4007215 29.3074136,49.0475745 C29.7320377,48.6944274 29.7899812,48.0639193 29.4368342,47.6392953 L28.1579755,46.1015955 C27.8048284,45.6769714 27.1743204,45.6190279 26.7496963,45.9721749 C26.3250722,46.325322 26.2671287,46.9558301 26.6202757,47.3804542 Z M30.4568517,51.9935534 L31.7357103,53.5312532 C32.0888574,53.9558773 32.7193655,54.0138208 33.1439895,53.6606738 C33.5686136,53.3075267 33.6265572,52.6770186 33.2734101,52.2523946 L31.9945514,50.7146948 C31.6414044,50.2900707 31.0108963,50.2321272 30.5862722,50.5852742 C30.1616482,50.9384213 30.1037046,51.5689294 30.4568517,51.9935534 Z M34.2934276,56.6066527 L35.5722863,58.1443525 C35.9254333,58.5689766 36.5559414,58.6269201 36.9805655,58.2737731 C37.4051895,57.920626 37.4631331,57.2901179 37.109986,56.8654939 L35.8311274,55.3277941 C35.4779803,54.90317 34.8474722,54.8452265 34.4228482,55.1983735 C33.9982241,55.5515206 33.9402806,56.1820287 34.2934276,56.6066527 Z M38.1300036,61.219752 L39.4088622,62.7574518 C39.7620093,63.1820759 40.3925173,63.2400194 40.8171414,62.8868724 C41.2417655,62.5337253 41.299709,61.9032172 40.946562,61.4785931 L39.6677033,59.9408934 C39.3145563,59.5162693 38.6840482,59.4583258 38.2594241,59.8114728 C37.8348,60.1646199 37.7768565,60.795128 38.1300036,61.219752 Z M41.9665795,65.8328513 L43.2454381,67.3705511 C43.5985852,67.7951751 44.2290933,67.8531187 44.6537173,67.4999716 C45.0783414,67.1468246 45.136285,66.5163165 44.7831379,66.0916924 L43.5042793,64.5539927 C43.1511322,64.1293686 42.5206241,64.0714251 42.0960001,64.4245721 C41.671376,64.7777192 41.6134324,65.4082273 41.9665795,65.8328513 Z M45.8031554,70.4459506 L47.0820141,71.9836504 C47.4351611,72.4082744 48.0656692,72.466218 48.4902933,72.1130709 C48.9149173,71.7599239 48.9728609,71.1294158 48.6197138,70.7047917 L47.3408552,69.167092 C46.9877081,68.7424679 46.3572001,68.6845243 45.932576,69.0376714 C45.5079519,69.3908185 45.4500084,70.0213265 45.8031554,70.4459506 Z" id="Line-5" fill="#C1C5CF" fill-rule="nonzero" transform="translate(33.783419, 54.429524) scale(1, -1) translate(-33.783419, -54.429524) "></path>
                        <path d="M32.3094873,37.8305683 L32.9409714,39.7282584 C33.1153509,40.2522911 33.6815259,40.535741 34.2055585,40.3613614 C34.7295912,40.1869819 35.0130411,39.6208069 34.8386615,39.0967743 L34.2071774,37.1990842 C34.0327979,36.6750515 33.4666229,36.3916017 32.9425903,36.5659812 C32.4185576,36.7403607 32.1351077,37.3065357 32.3094873,37.8305683 Z M34.2039397,43.5236387 L34.8354238,45.4213288 C35.0098034,45.9453614 35.5759783,46.2288113 36.100011,46.0544318 C36.6240436,45.8800522 36.9074935,45.3138773 36.733114,44.7898446 L36.1016298,42.8921545 C35.9272503,42.3681219 35.3610753,42.084672 34.8370427,42.2590515 C34.31301,42.4334311 34.0295602,42.999606 34.2039397,43.5236387 Z M36.0983921,49.216709 L36.7298763,51.1143991 C36.9042558,51.6384318 37.4704308,51.9218816 37.9944634,51.7475021 C38.5184961,51.5731226 38.8019459,51.0069476 38.6275664,50.482915 L37.9960823,48.5852249 C37.8217027,48.0611922 37.2555278,47.7777424 36.7314951,47.9521219 C36.2074625,48.1265014 35.9240126,48.6926764 36.0983921,49.216709 Z M37.9928446,54.9097794 L38.6243287,56.8074695 C38.7987082,57.3315021 39.3648832,57.614952 39.8889158,57.4405725 C40.4129485,57.2661929 40.6963984,56.700018 40.5220188,56.1759853 L39.8905347,54.2782952 C39.7161552,53.7542626 39.1499802,53.4708127 38.6259476,53.6451922 C38.1019149,53.8195718 37.818465,54.3857467 37.9928446,54.9097794 Z M39.887297,60.6028497 L40.5187811,62.5005398 C40.6931607,63.0245725 41.2593356,63.3080223 41.7833683,63.1336428 C42.3074009,62.9592633 42.5908508,62.3930883 42.4164713,61.8690557 L41.7849871,59.9713656 C41.6106076,59.4473329 41.0444326,59.163883 40.5204,59.3382626 C39.9963673,59.5126421 39.7129175,60.0788171 39.887297,60.6028497 Z M41.7817494,66.2959201 L42.4132336,68.1936102 C42.5876131,68.7176428 43.1537881,69.0010927 43.6778207,68.8267132 C44.2018534,68.6523336 44.4853032,68.0861587 44.3109237,67.562126 L43.6794396,65.6644359 C43.50506,65.1404033 42.9388851,64.8569534 42.4148524,65.0313329 C41.8908198,65.2057125 41.6073699,65.7718874 41.7817494,66.2959201 Z M43.6762019,71.9889904 L44.307686,73.8866805 C44.4820655,74.4107132 45.0482405,74.694163 45.5722731,74.5197835 C46.0963058,74.345404 46.3797557,73.779229 46.2053761,73.2551964 L45.573892,71.3575063 C45.3995125,70.8334736 44.8333375,70.5500237 44.3093049,70.7244033 C43.7852722,70.8987828 43.5018223,71.4649577 43.6762019,71.9889904 Z M45.5706543,77.6820607 L46.2021385,79.5797509 C46.376518,80.1037835 46.9426929,80.3872334 47.4667256,80.2128538 C47.9907582,80.0384743 48.2742081,79.4722994 48.0998286,78.9482667 L47.4683444,77.0505766 C47.2939649,76.5265439 46.7277899,76.2430941 46.2037573,76.4174736 C45.6797246,76.5918532 45.3962748,77.1580281 45.5706543,77.6820607 Z M47.4651067,83.3751311 L48.0965909,85.2728212 C48.2709704,85.7968539 48.8371454,86.0803037 49.361178,85.9059242 C49.8852107,85.7315447 50.1686605,85.1653697 49.994281,84.6413371 L49.3627969,82.743647 C49.1884173,82.2196143 48.6222424,81.9361644 48.0982097,82.110544 C47.5741771,82.2849235 47.2907272,82.8510984 47.4651067,83.3751311 Z M49.3595592,89.0682014 L49.9910433,90.9658916 C50.1654228,91.4899242 50.7315978,91.7733741 51.2556304,91.5989945 C51.7796631,91.424615 52.063113,90.8584401 51.8887334,90.3344074 L51.2572493,88.4367173 C51.0828698,87.9126846 50.5166948,87.6292348 49.9926622,87.8036143 C49.4686295,87.9779938 49.1851796,88.5441688 49.3595592,89.0682014 Z M51.2540116,94.7612718 L51.8854958,96.6589619 C52.0598753,97.1829946 52.6260502,97.4664444 53.1500829,97.2920649 C53.6741155,97.1176854 53.9575654,96.5515104 53.7831859,96.0274778 L53.1517017,94.1297876 C52.9773222,93.605755 52.4111472,93.3223051 51.8871146,93.4966847 C51.3630819,93.6710642 51.0796321,94.2372391 51.2540116,94.7612718 Z M53.148464,100.454342 L53.7799482,102.352032 C53.9543277,102.876065 54.5205027,103.159515 55.0445353,102.985135 C55.568568,102.810756 55.8520178,102.244581 55.6776383,101.720548 L55.0461542,99.822858 C54.8717746,99.2988253 54.3055997,99.0153755 53.781567,99.189755 C53.2575344,99.3641345 52.9740845,99.9303095 53.148464,100.454342 Z M55.0429165,106.147412 L55.6744006,108.045103 C55.8487802,108.569135 56.4149551,108.852585 56.9389878,108.678206 C57.4630204,108.503826 57.7464703,107.937651 57.5720907,107.413618 L56.9406066,105.515928 C56.7662271,104.991896 56.2000521,104.708446 55.6760195,104.882825 C55.1519868,105.057205 54.8685369,105.62338 55.0429165,106.147412 Z M56.9373689,111.840483 L57.5688531,113.738173 C57.7432326,114.262206 58.3094075,114.545655 58.8334402,114.371276 C59.3574728,114.196896 59.6409227,113.630721 59.4665432,113.106689 L58.835059,111.208999 C58.6606795,110.684966 58.0945046,110.401516 57.5704719,110.575896 C57.0464392,110.750275 56.7629894,111.31645 56.9373689,111.840483 Z" id="Line-5" fill="#C1C5CF" fill-rule="nonzero" transform="translate(45.888015, 75.468629) scale(1, -1) translate(-45.888015, -75.468629) "></path>
                        <path d="M103.228922,34.0979747 L101.636276,35.3077186 C101.196479,35.6417801 101.110764,36.2691164 101.444825,36.7089133 C101.778887,37.1487102 102.406223,37.2344256 102.84602,36.9003641 L104.438665,35.6906202 C104.878462,35.3565586 104.964178,34.7292224 104.630116,34.2894255 C104.296055,33.8496286 103.668718,33.7639131 103.228922,34.0979747 Z M98.450985,37.7272064 L96.8583395,38.9369503 C96.4185426,39.2710119 96.3328272,39.8983481 96.6668887,40.338145 C97.0009503,40.7779419 97.6282865,40.8636574 98.0680834,40.5295958 L99.6607289,39.3198519 C100.100526,38.9857903 100.186241,38.3584541 99.8521797,37.9186572 C99.5181182,37.4788603 98.8907819,37.3931448 98.450985,37.7272064 Z M93.6730485,41.3564381 L92.080403,42.566182 C91.6406061,42.9002436 91.5548907,43.5275798 91.8889523,43.9673767 C92.2230138,44.4071737 92.85035,44.4928891 93.290147,44.1588275 L94.8827925,42.9490836 C95.3225894,42.6150221 95.4083048,41.9876858 95.0742432,41.5478889 C94.7401817,41.108092 94.1128455,41.0223766 93.6730485,41.3564381 Z M88.8951121,44.9856699 L87.3024666,46.1954138 C86.8626697,46.5294753 86.7769542,47.1568116 87.1110158,47.5966085 C87.4450773,48.0364054 88.0724136,48.1221208 88.5122105,47.7880593 L90.104856,46.5783154 C90.5446529,46.2442538 90.6303683,45.6169176 90.2963068,45.1771207 C89.9622452,44.7373238 89.334909,44.6516083 88.8951121,44.9856699 Z M84.1171756,48.6149016 L82.5245301,49.8246455 C82.0847332,50.1587071 81.9990177,50.7860433 82.3330793,51.2258402 C82.6671408,51.6656371 83.2944771,51.7513526 83.734274,51.417291 L85.3269195,50.2075471 C85.7667164,49.8734855 85.8524318,49.2461493 85.5183703,48.8063524 C85.1843087,48.3665555 84.5569725,48.28084 84.1171756,48.6149016 Z M79.3392391,52.2441333 L77.7465936,53.4538772 C77.3067967,53.7879388 77.2210813,54.415275 77.5551428,54.8550719 C77.8892044,55.2948689 78.5165406,55.3805843 78.9563375,55.0465227 L80.548983,53.8367788 C80.9887799,53.5027173 81.0744954,52.875381 80.7404338,52.4355841 C80.4063722,51.9957872 79.779036,51.9100718 79.3392391,52.2441333 Z M74.5613026,55.8733651 L72.9686571,57.083109 C72.5288602,57.4171705 72.4431448,58.0445068 72.7772063,58.4843037 C73.1112679,58.9241006 73.7386041,59.009816 74.178401,58.6757545 L75.7710465,57.4660106 C76.2108434,57.131949 76.2965589,56.5046128 75.9624973,56.0648159 C75.6284358,55.6250189 75.0010995,55.5393035 74.5613026,55.8733651 Z M69.7833661,59.5025968 L68.1907206,60.7123407 C67.7509237,61.0464023 67.6652083,61.6737385 67.9992698,62.1135354 C68.3333314,62.5533323 68.9606676,62.6390478 69.4004645,62.3049862 L70.99311,61.0952423 C71.4329069,60.7611807 71.5186224,60.1338445 71.1845608,59.6940476 C70.8504993,59.2542507 70.223163,59.1685352 69.7833661,59.5025968 Z M65.0054296,63.1318285 L63.6129991,64.1894929 C63.1732022,64.5235544 63.0874868,65.1508906 63.4215483,65.5906876 C63.7556099,66.0304845 64.3829461,66.1161999 64.822743,65.7821384 L66.2151736,64.724474 C66.6549705,64.3904125 66.7406859,63.7630762 66.4066243,63.3232793 C66.0725628,62.8834824 65.4452266,62.797767 65.0054296,63.1318285 Z" id="Line-5" fill="#C1C5CF" fill-rule="nonzero" transform="translate(84.025832, 49.940057) scale(1, -1) translate(-84.025832, -49.940057) "></path>
                        <path d="M94.2062077,36.7359335 L93.3056656,38.5217173 C93.0569878,39.0148479 93.2551559,39.6162025 93.7482865,39.8648803 C94.2414171,40.1135581 94.8427716,39.91539 95.0914495,39.4222594 L95.9919915,37.6364755 C96.2406693,37.1433449 96.0425012,36.5419904 95.5493706,36.2933126 C95.05624,36.0446347 94.4548855,36.2428029 94.2062077,36.7359335 Z M91.5045815,42.093285 L90.6040394,43.8790689 C90.3553616,44.3721995 90.5535297,44.973554 91.0466603,45.2222319 C91.5397909,45.4709097 92.1411455,45.2727416 92.3898233,44.779611 L93.2903653,42.9938271 C93.5390432,42.5006965 93.340875,41.899342 92.8477444,41.6506641 C92.3546138,41.4019863 91.7532593,41.6001544 91.5045815,42.093285 Z M88.8029553,47.4506366 L87.9024132,49.2364205 C87.6537354,49.7295511 87.8519035,50.3309056 88.3450341,50.5795834 C88.8381647,50.8282613 89.4395193,50.6300931 89.6881971,50.1369625 L90.5887392,48.3511787 C90.837417,47.8580481 90.6392489,47.2566935 90.1461183,47.0080157 C89.6529877,46.7593379 89.0516331,46.957506 88.8029553,47.4506366 Z M86.1013291,52.8079882 L85.2007871,54.5937721 C84.9521092,55.0869027 85.1502774,55.6882572 85.643408,55.936935 C86.1365386,56.1856129 86.7378931,55.9874447 86.9865709,55.4943141 L87.887113,53.7085303 C88.1357908,53.2153997 87.9376227,52.6140451 87.4444921,52.3653673 C86.9513615,52.1166895 86.3500069,52.3148576 86.1013291,52.8079882 Z M83.3997029,58.1653398 L82.4991609,59.9511237 C82.2504831,60.4442542 82.4486512,61.0456088 82.9417818,61.2942866 C83.4349124,61.5429644 84.0362669,61.3447963 84.2849447,60.8516657 L85.1854868,59.0658819 C85.4341646,58.5727513 85.2359965,57.9713967 84.7428659,57.7227189 C84.2497353,57.4740411 83.6483808,57.6722092 83.3997029,58.1653398 Z M80.6980768,63.5226914 L79.7975347,65.3084752 C79.5488569,65.8016058 79.747025,66.4029604 80.2401556,66.6516382 C80.7332862,66.900316 81.3346407,66.7021479 81.5833186,66.2090173 L82.4838606,64.4232334 C82.7325384,63.9301028 82.5343703,63.3287483 82.0412397,63.0800705 C81.5481091,62.8313927 80.9467546,63.0295608 80.6980768,63.5226914 Z M77.9964506,68.880043 L77.0959085,70.6658268 C76.8472307,71.1589574 77.0453988,71.760312 77.5385294,72.0089898 C78.03166,72.2576676 78.6330146,72.0594995 78.8816924,71.5663689 L79.7822344,69.780585 C80.0309123,69.2874544 79.8327441,68.6860999 79.3396135,68.4374221 C78.846483,68.1887442 78.2451284,68.3869124 77.9964506,68.880043 Z M75.2948244,74.2373945 L74.3942823,76.0231784 C74.1456045,76.516309 74.3437727,77.1176635 74.8369033,77.3663414 C75.3300338,77.6150192 75.9313884,77.4168511 76.1800662,76.9237205 L77.0806083,75.1379366 C77.3292861,74.644806 77.131118,74.0434515 76.6379874,73.7947736 C76.1448568,73.5460958 75.5435022,73.7442639 75.2948244,74.2373945 Z M72.5931982,79.5947461 L71.6926562,81.38053 C71.4439783,81.8736606 71.6421465,82.4750151 72.1352771,82.7236929 C72.6284077,82.9723708 73.2297622,82.7742026 73.47844,82.281072 L74.3789821,80.4952882 C74.6276599,80.0021576 74.4294918,79.400803 73.9363612,79.1521252 C73.4432306,78.9034474 72.8418761,79.1016155 72.5931982,79.5947461 Z M69.8915721,84.9520977 L68.99103,86.7378816 C68.7423522,87.2310122 68.9405203,87.8323667 69.4336509,88.0810445 C69.9267815,88.3297224 70.528136,88.1315542 70.7768139,87.6384236 L71.6773559,85.8526398 C71.9260337,85.3595092 71.7278656,84.7581546 71.234735,84.5094768 C70.7416044,84.260799 70.1402499,84.4589671 69.8915721,84.9520977 Z M67.1899459,90.3094493 L66.2894038,92.0952332 C66.040726,92.5883638 66.2388941,93.1897183 66.7320247,93.4383961 C67.2251553,93.6870739 67.8265099,93.4889058 68.0751877,92.9957752 L68.9757297,91.2099914 C69.2244076,90.7168608 69.0262394,90.1155062 68.5331088,89.8668284 C68.0399782,89.6181506 67.4386237,89.8163187 67.1899459,90.3094493 Z M64.4883197,95.6668009 L63.5877776,97.4525847 C63.3390998,97.9457153 63.5372679,98.5470699 64.0303985,98.7957477 C64.5235291,99.0444255 65.1248837,98.8462574 65.3735615,98.3531268 L66.2741036,96.5673429 C66.5227814,96.0742123 66.3246133,95.4728578 65.8314827,95.22418 C65.3383521,94.9755022 64.7369975,95.1736703 64.4883197,95.6668009 Z M61.7866935,101.024152 L60.8861515,102.809936 C60.6374736,103.303067 60.8356418,103.904421 61.3287724,104.153099 C61.821903,104.401777 62.4232575,104.203609 62.6719353,103.710478 L63.5724774,101.924695 C63.8211552,101.431564 63.6229871,100.830209 63.1298565,100.581532 C62.6367259,100.332854 62.0353713,100.531022 61.7866935,101.024152 Z M59.0850673,106.381504 L58.5972923,107.348767 C58.3486145,107.841897 58.5467826,108.443252 59.0399132,108.69193 C59.5330438,108.940608 60.1343983,108.742439 60.3830762,108.249309 L60.8708512,107.282046 C61.119529,106.788916 60.9213609,106.187561 60.4282303,105.938883 C59.9350997,105.690205 59.3337452,105.888373 59.0850673,106.381504 Z" id="Line-5" fill="#C1C5CF" fill-rule="nonzero" transform="translate(77.294642, 72.492621) scale(1, -1) translate(-77.294642, -72.492621) "></path>
                        <path d="M202.852554,30.675973 L200.970536,31.3527382 C200.450832,31.5396217 200.181027,32.1124247 200.36791,32.6321294 C200.554794,33.1518341 201.127597,33.421639 201.647302,33.2347554 L203.529319,32.5579902 C204.049024,32.3711067 204.318828,31.7983037 204.131945,31.278599 C203.945061,30.7588943 203.372258,30.4890894 202.852554,30.675973 Z M197.206502,32.7062686 L195.324485,33.3830338 C194.80478,33.5699173 194.534975,34.1427203 194.721859,34.662425 C194.908742,35.1821297 195.481545,35.4519346 196.00125,35.265051 L197.883267,34.5882858 C198.402972,34.4014023 198.672777,33.8285993 198.485893,33.3088946 C198.29901,32.7891899 197.726207,32.519385 197.206502,32.7062686 Z M191.56045,34.7365642 L189.678433,35.4133294 C189.158728,35.6002129 188.888924,36.1730159 189.075807,36.6927206 C189.262691,37.2124253 189.835494,37.4822302 190.355198,37.2953466 L192.237216,36.6185814 C192.75692,36.4316979 193.026725,35.8588949 192.839842,35.3391902 C192.652958,34.8194855 192.080155,34.5496806 191.56045,34.7365642 Z M185.914399,36.7668598 L184.032381,37.443625 C183.512677,37.6305086 183.242872,38.2033115 183.429755,38.7230162 C183.616639,39.2427209 184.189442,39.5125258 184.709147,39.3256422 L186.591164,38.648877 C187.110869,38.4619935 187.380673,37.8891905 187.19379,37.3694858 C187.006906,36.8497811 186.434103,36.5799763 185.914399,36.7668598 Z M180.268347,38.7971554 L178.38633,39.4739206 C177.866625,39.6608042 177.59682,40.2336071 177.783704,40.7533118 C177.970587,41.2730165 178.54339,41.5428214 179.063095,41.3559378 L180.945112,40.6791726 C181.464817,40.4922891 181.734622,39.9194861 181.547738,39.3997814 C181.360855,38.8800767 180.788052,38.6102719 180.268347,38.7971554 Z M174.622295,40.827451 L172.740278,41.5042162 C172.220573,41.6910998 171.950768,42.2639027 172.137652,42.7836074 C172.324536,43.3033121 172.897338,43.573117 173.417043,43.3862334 L175.29906,42.7094682 C175.818765,42.5225847 176.08857,41.9497817 175.901686,41.430077 C175.714803,40.9103723 175.142,40.6405675 174.622295,40.827451 Z M168.976244,42.8577466 L167.094226,43.5345118 C166.574522,43.7213954 166.304717,44.2941983 166.4916,44.813903 C166.678484,45.3336077 167.251287,45.6034126 167.770992,45.416529 L169.653009,44.7397638 C170.172713,44.5528803 170.442518,43.9800773 170.255635,43.4603726 C170.068751,42.9406679 169.495948,42.6708631 168.976244,42.8577466 Z M163.330192,44.8880422 L161.448175,45.5648074 C160.92847,45.751691 160.658665,46.3244939 160.845549,46.8441986 C161.032432,47.3639033 161.605235,47.6337082 162.12494,47.4468246 L164.006957,46.7700594 C164.526662,46.5831759 164.796467,46.0103729 164.609583,45.4906682 C164.4227,44.9709635 163.849897,44.7011587 163.330192,44.8880422 Z M157.68414,46.9183378 L155.802123,47.595103 C155.282418,47.7819866 155.012613,48.3547895 155.199497,48.8744942 C155.38638,49.3941989 155.959183,49.6640038 156.478888,49.4771202 L158.360905,48.800355 C158.88061,48.6134715 159.150415,48.0406685 158.963531,47.5209638 C158.776648,47.0012591 158.203845,46.7314543 157.68414,46.9183378 Z M152.038088,48.9486334 L150.156071,49.6253986 C149.636367,49.8122822 149.366562,50.3850851 149.553445,50.9047898 C149.740329,51.4244945 150.313132,51.6942994 150.832836,51.5074158 L152.714854,50.8306506 C153.234558,50.6437671 153.504363,50.0709641 153.31748,49.5512594 C153.130596,49.0315547 152.557793,48.7617499 152.038088,48.9486334 Z M146.392037,50.978929 L144.51002,51.6556942 C143.990315,51.8425778 143.72051,52.4153807 143.907393,52.9350854 C144.094277,53.4547901 144.66708,53.724595 145.186785,53.5377114 L147.068802,52.8609462 C147.588507,52.6740627 147.858312,52.1012597 147.671428,51.581555 C147.484544,51.0618503 146.911741,50.7920455 146.392037,50.978929 Z M140.745985,53.0092246 L138.863968,53.6859898 C138.344263,53.8728734 138.074458,54.4456763 138.261342,54.965381 C138.448225,55.4850857 139.021028,55.7548906 139.540733,55.568007 L141.42275,54.8912418 C141.942455,54.7043583 142.21226,54.1315553 142.025376,53.6118506 C141.838493,53.0921459 141.26569,52.8223411 140.745985,53.0092246 Z M135.099933,55.0395202 L133.217916,55.7162854 C132.698211,55.903169 132.428407,56.4759719 132.61529,56.9956766 C132.802174,57.5153813 133.374977,57.7851862 133.894681,57.5983027 L135.776699,56.9215374 C136.296403,56.7346539 136.566208,56.1618509 136.379325,55.6421462 C136.192441,55.1224415 135.619638,54.8526367 135.099933,55.0395202 Z M129.453882,57.0698158 L127.571864,57.746581 C127.05216,57.9334646 126.782355,58.5062675 126.969238,59.0259722 C127.156122,59.5456769 127.728925,59.8154818 128.24863,59.6285983 L130.130647,58.9518331 C130.650352,58.7649495 130.920156,58.1921465 130.733273,57.6724418 C130.546389,57.1527371 129.973586,56.8829323 129.453882,57.0698158 Z M123.80783,59.1001114 L121.925813,59.7768766 C121.406108,59.9637602 121.136303,60.5365631 121.323187,61.0562678 C121.51007,61.5759725 122.082873,61.8457774 122.602578,61.6588939 L124.484595,60.9821287 C125.0043,60.7952451 125.274105,60.2224421 125.087221,59.7027374 C124.900338,59.1830327 124.327535,58.9132279 123.80783,59.1001114 Z M118.161778,61.130407 L116.279761,61.8071722 C115.760056,61.9940558 115.490251,62.5668587 115.677135,63.0865634 C115.864019,63.6062681 116.436822,63.876073 116.956526,63.6891895 L118.838543,63.0124243 C119.358248,62.8255407 119.628053,62.2527377 119.441169,61.733033 C119.254286,61.2133283 118.681483,60.9435235 118.161778,61.130407 Z M112.515727,63.1607026 L110.633709,63.8374678 C110.114005,64.0243514 109.8442,64.5971543 110.031083,65.116859 C110.217967,65.6365638 110.79077,65.9063686 111.310475,65.7194851 L113.192492,65.0427199 C113.712196,64.8558363 113.982001,64.2830333 113.795118,63.7633286 C113.608234,63.2436239 113.035431,62.9738191 112.515727,63.1607026 Z M106.869675,65.1909982 L104.987658,65.8677634 C104.467953,66.054647 104.198148,66.6274499 104.385032,67.1471546 C104.571915,67.6668594 105.144718,67.9366642 105.664423,67.7497807 L107.54644,67.0730155 C108.066145,66.8861319 108.33595,66.313329 108.149066,65.7936242 C107.962183,65.2739195 107.38938,65.0041147 106.869675,65.1909982 Z M101.223623,67.2212938 L99.3416059,67.898059 C98.8219012,68.0849426 98.5520964,68.6577455 98.7389799,69.1774502 C98.9258635,69.697155 99.4986664,69.9669598 100.018371,69.7800763 L101.900388,69.1033111 C102.420093,68.9164275 102.689898,68.3436246 102.503014,67.8239198 C102.316131,67.3042151 101.743328,67.0344103 101.223623,67.2212938 Z M95.5775715,69.2515894 L93.6955542,69.9283546 C93.1758495,70.1152382 92.9060447,70.6880411 93.0929282,71.2077458 C93.2798118,71.7274506 93.8526147,71.9972554 94.3723194,71.8103719 L96.2543367,71.1336067 C96.7740414,70.9467231 97.0438462,70.3739202 96.8569627,69.8542154 C96.6700791,69.3345107 96.0972762,69.0647059 95.5775715,69.2515894 Z M89.9315198,71.281885 L88.0495025,71.9586502 C87.5297978,72.1455338 87.259993,72.7183367 87.4468765,73.2380414 C87.6337601,73.7577462 88.206563,74.027551 88.7262677,73.8406675 L90.608285,73.1639023 C91.1279897,72.9770187 91.3977945,72.4042158 91.210911,71.884511 C91.0240274,71.3648063 90.4512245,71.0950015 89.9315198,71.281885 Z M84.2854681,73.3121806 L82.4034508,73.9889458 C81.8837461,74.1758294 81.6139413,74.7486323 81.8008248,75.2683371 C81.9877084,75.7880418 82.5605113,76.0578466 83.080216,75.8709631 L84.9622333,75.1941979 C85.481938,75.0073143 85.7517428,74.4345114 85.5648593,73.9148067 C85.3779757,73.3951019 84.8051728,73.1252971 84.2854681,73.3121806 Z M78.6394164,75.3424762 L76.7573991,76.0192414 C76.2376944,76.206125 75.9678896,76.7789279 76.1547731,77.2986327 C76.3416567,77.8183374 76.9144596,78.0881422 77.4341643,77.9012587 L79.3161816,77.2244935 C79.8358863,77.0376099 80.1056911,76.464807 79.9188076,75.9451023 C79.731924,75.4253975 79.1591211,75.1555927 78.6394164,75.3424762 Z M72.9933647,77.3727718 L71.1113475,78.049537 C70.5916427,78.2364206 70.3218379,78.8092235 70.5087214,79.3289283 C70.695605,79.848633 71.2684079,80.1184378 71.7881127,79.9315543 L73.6701299,79.2547891 C74.1898346,79.0679055 74.4596394,78.4951026 74.2727559,77.9753979 C74.0858723,77.4556931 73.5130694,77.1858883 72.9933647,77.3727718 Z" id="Line-5" fill="#C1C5CF" fill-rule="nonzero" transform="translate(137.320333, 55.303764) scale(1, -1) translate(-137.320333, -55.303764) "></path>
                        <ellipse id="Oval-6" fill="url(#linearGradient-1)" cx="59.7594153" cy="24.7195257" rx="20.3439892" ry="20.3507314"></ellipse>
                        <path d="M51.2592823,1.58603446 C49.4441676,2.39560646 45.2565546,3.83593881 41.9056322,7.49659935 C38.3679391,11.3612945 35.8347007,17.5011795 40.8137954,20.2051405 C41.9773914,20.8370461 52.5048993,12.9865983 54.3913405,12.8365331 C54.8470734,12.8002799 58.3523591,14.6499417 62.3690543,14.5356272 C65.4887861,14.4468402 69.9344991,11.8645251 71.128805,12.8365331 C74.59516,15.6576906 78.3366417,18.7944168 79.2509267,18.5108461 C83.4676172,17.2030157 76.547528,2.91178442 66.9693628,1.39724623 C62.5685236,0.701367747 54.9906811,-0.0782327155 51.2592823,1.58603446 Z" id="Path-7" fill="#303542"></path>
                        <ellipse id="Oval-7" fill="#303542" cx="55.4831772" cy="21.8567708" rx="2.18367347" ry="2.18439716"></ellipse>
                        <ellipse id="Oval-7" fill="#303542" cx="66.4015446" cy="21.8567708" rx="2.18367347" ry="2.18439716"></ellipse>
                        <g id="Group-18" opacity="0.112583705" transform="translate(45.857143, 29.489362)" fill="#000000">
                            <g id="Group-16" transform="translate(0.000000, 0.000000)">
                                <path d="M13.4135829,5.21380832 C14.664359,4.47358779 15.4579225,2.92981545 15.4579225,1.8874214 C15.4579225,0.845027343 14.6131751,0 13.5711264,0 C10.5971249,0 10.9053971,1.88955081 5.85379963,2.45115092 C4.17865613,2.63738128 2.22738959,2.29511873 2.84217094e-14,1.42436328 C1.30757082,4.55590071 3.25883737,6.24682438 5.85379963,6.4971343 C9.74624302,6.87259917 12.1836766,5.9416779 13.4135829,5.21380832 Z" id="Oval"></path>
                            </g>
                            <g id="Group-16" transform="translate(23.163265, 3.500000) scale(-1, 1) translate(-23.163265, -3.500000) translate(14.663265, 0.000000)">
                                <path d="M14.3332114,4.83729845 C15.0121768,4.3405377 16.377551,2.92981545 16.377551,1.8874214 C16.377551,0.845027343 15.5328036,0 14.4907549,0 C11.5167534,0 11.8250256,1.88955081 6.77342817,2.45115092 C5.09828467,2.63738128 3.14701813,2.29511873 0.91962854,1.42436328 C2.22719936,4.55590071 4.17846591,6.24682438 6.77342817,6.4971343 C10.6658716,6.87259917 13.3025371,5.59138478 14.3332114,4.83729845 Z" id="Oval"></path>
                            </g>
                        </g>
                        <g id="Group-18" transform="translate(45.857143, 27.304965)" fill="#303542">
                            <g id="Group-16" transform="translate(0.000000, 0.000000)">
                                <path d="M13.4135829,5.21380832 C14.664359,4.47358779 15.4579225,2.92981545 15.4579225,1.8874214 C15.4579225,0.845027343 14.6131751,0 13.5711264,0 C10.5971249,0 10.9053971,1.88955081 5.85379963,2.45115092 C4.17865613,2.63738128 2.22738959,2.29511873 2.84217094e-14,1.42436328 C1.30757082,4.55590071 3.25883737,6.24682438 5.85379963,6.4971343 C9.74624302,6.87259917 12.1836766,5.9416779 13.4135829,5.21380832 Z" id="Oval"></path>
                            </g>
                            <g id="Group-16" transform="translate(23.163265, 3.500000) scale(-1, 1) translate(-23.163265, -3.500000) translate(14.663265, 0.000000)">
                                <path d="M14.3332114,4.83729845 C15.0121768,4.3405377 16.377551,2.92981545 16.377551,1.8874214 C16.377551,0.845027343 15.5328036,0 14.4907549,0 C11.5167534,0 11.8250256,1.88955081 6.77342817,2.45115092 C5.09828467,2.63738128 3.14701813,2.29511873 0.91962854,1.42436328 C2.22719936,4.55590071 4.17846591,6.24682438 6.77342817,6.4971343 C10.6658716,6.87259917 13.3025371,5.59138478 14.3332114,4.83729845 Z" id="Oval"></path>
                            </g>
                            <polygon id="Line-2" fill-rule="nonzero" points="3.36575729 3.84088688 1.75572242 22.7060176 2.75210036 22.7910529 4.36213522 3.92592224"></polygon>
                        </g>
                    </g>
                    <circle id="Oval" fill="#303542" cx="18.5" cy="73.5" r="2.5"></circle>
                    <circle id="Oval" fill="#303542" cx="33.5" cy="117.5" r="2.5"></circle>
                    <circle id="Oval" fill="#303542" cx="95.5" cy="109.5" r="2.5"></circle>
                    <circle id="Oval" fill="#303542" cx="105.5" cy="67.5" r="2.5"></circle>
                    <circle id="Oval" fill="#303542" cx="203.5" cy="81.5" r="2.5"></circle>
                </g>
            </g>
        </g>
    </g>
</svg>