<?xml version="1.0" encoding="UTF-8"?>
<svg width="280px" height="170px" viewBox="0 0 280 170" version="1.1" xmlns="http://www.w3.org/2000/svg" xmlns:xlink="http://www.w3.org/1999/xlink">
    <!-- Generator: Sketch 55 (78076) - https://sketchapp.com -->
    <title>3@2x</title>
    <desc>Created with Sketch.</desc>
    <defs>
        <linearGradient x1="13.4451845%" y1="15.2998835%" x2="85.143683%" y2="83.3825659%" id="linearGradient-1">
            <stop stop-color="#FF7800" offset="0%"></stop>
            <stop stop-color="#FFAB2C" offset="100%"></stop>
        </linearGradient>
    </defs>
    <g id="3" stroke="none" stroke-width="1" fill="none" fill-rule="evenodd">
        <g id="Group-55" transform="translate(3.000000, 7.007812)">
            <g id="Group-46">
                <ellipse id="Oval" fill="#F3F4F7" cx="105" cy="95" rx="105" ry="65"></ellipse>
                <g id="Group-32" transform="translate(13.000000, 0.000000)">
                    <path d="M178.489159,39.1403245 L176.769808,40.1620057 C176.295023,40.4441352 176.138844,41.0577361 176.420974,41.5325218 C176.703103,42.0073074 177.316704,42.1634861 177.79149,41.8813566 L179.510841,40.8596755 C179.985626,40.577546 180.141805,39.9639451 179.859675,39.4891594 C179.577546,39.0143738 178.963945,38.8581951 178.489159,39.1403245 Z M173.331107,42.205368 L171.611756,43.2270492 C171.13697,43.5091787 170.980791,44.1227796 171.262921,44.5975653 C171.54505,45.0723509 172.158651,45.2285296 172.633437,44.9464001 L174.352788,43.924719 C174.827573,43.6425895 174.983752,43.0289886 174.701623,42.5542029 C174.419493,42.0794173 173.805892,41.9232386 173.331107,42.205368 Z M168.173054,45.2704116 L166.453703,46.2920927 C165.978917,46.5742222 165.822739,47.1878231 166.104868,47.6626088 C166.386998,48.1373944 167.000598,48.2935731 167.475384,48.0114436 L169.194735,46.9897625 C169.669521,46.707633 169.825699,46.0940321 169.54357,45.6192464 C169.26144,45.1444608 168.64784,44.9882821 168.173054,45.2704116 Z M163.015001,48.3354551 L161.29565,49.3571362 C160.820865,49.6392657 160.664686,50.2528666 160.946815,50.7276523 C161.228945,51.2024379 161.842546,51.3586166 162.317331,51.0764872 L164.036682,50.054806 C164.511468,49.7726765 164.667647,49.1590756 164.385517,48.6842899 C164.103388,48.2095043 163.489787,48.0533256 163.015001,48.3354551 Z M157.856948,51.4004986 L156.137597,52.4221797 C155.662812,52.7043092 155.506633,53.3179101 155.788763,53.7926958 C156.070892,54.2674814 156.684493,54.4236601 157.159279,54.1415307 L158.87863,53.1198495 C159.353415,52.83772 159.509594,52.2241191 159.227464,51.7493335 C158.945335,51.2745478 158.331734,51.1183691 157.856948,51.4004986 Z M152.698896,54.4655421 L150.979545,55.4872233 C150.504759,55.7693527 150.34858,56.3829537 150.63071,56.8577393 C150.912839,57.332525 151.52644,57.4887036 152.001226,57.2065742 L153.720577,56.184893 C154.195362,55.9027635 154.351541,55.2891626 154.069412,54.814377 C153.787282,54.3395913 153.173681,54.1834126 152.698896,54.4655421 Z M147.540843,57.5305856 L145.821492,58.5522668 C145.346706,58.8343962 145.190528,59.4479972 145.472657,59.9227828 C145.754787,60.3975685 146.368387,60.5537472 146.843173,60.2716177 L148.562524,59.2499365 C149.03731,58.9678071 149.193488,58.3542061 148.911359,57.8794205 C148.629229,57.4046348 148.015628,57.2484561 147.540843,57.5305856 Z M142.38279,60.5956291 L140.663439,61.6173103 C140.188654,61.8994397 140.032475,62.5130407 140.314604,62.9878263 C140.596734,63.462612 141.210335,63.6187907 141.68512,63.3366612 L143.404471,62.31498 C143.879257,62.0328506 144.035436,61.4192496 143.753306,60.944464 C143.471177,60.4696783 142.857576,60.3134996 142.38279,60.5956291 Z M137.224737,63.6606726 L135.505386,64.6823538 C135.030601,64.9644833 134.874422,65.5780842 135.156552,66.0528698 C135.438681,66.5276555 136.052282,66.6838342 136.527068,66.4017047 L138.246418,65.3800235 C138.721204,65.0978941 138.877383,64.4842931 138.595253,64.0095075 C138.313124,63.5347218 137.699523,63.3785432 137.224737,63.6606726 Z M132.066685,66.7257161 L130.347334,67.7473973 C129.872548,68.0295268 129.716369,68.6431277 129.998499,69.1179133 C130.280628,69.592699 130.894229,69.7488777 131.369015,69.4667482 L133.088366,68.445067 C133.563151,68.1629376 133.71933,67.5493366 133.437201,67.074551 C133.155071,66.5997654 132.54147,66.4435867 132.066685,66.7257161 Z M126.908632,69.7907596 L125.189281,70.8124408 C124.714495,71.0945703 124.558317,71.7081712 124.840446,72.1829569 C125.122575,72.6577425 125.736176,72.8139212 126.210962,72.5317917 L127.930313,71.5101106 C128.405099,71.2279811 128.561277,70.6143802 128.279148,70.1395945 C127.997018,69.6648089 127.383417,69.5086302 126.908632,69.7907596 Z M121.750579,72.8558031 L120.031228,73.8774843 C119.556442,74.1596138 119.400264,74.7732147 119.682393,75.2480004 C119.964523,75.722786 120.578124,75.8789647 121.052909,75.5968352 L122.77226,74.5751541 C123.247046,74.2930246 123.403225,73.6794237 123.121095,73.204638 C122.838966,72.7298524 122.225365,72.5736737 121.750579,72.8558031 Z M116.592526,75.9208467 L114.873175,76.9425278 C114.39839,77.2246573 114.242211,77.8382582 114.52434,78.3130439 C114.80647,78.7878295 115.420071,78.9440082 115.894857,78.6618787 L117.614207,77.6401976 C118.088993,77.3580681 118.245172,76.7444672 117.963042,76.2696815 C117.680913,75.7948959 117.067312,75.6387172 116.592526,75.9208467 Z M111.434474,78.9858902 L109.715123,80.0075713 C109.240337,80.2897008 109.084158,80.9033017 109.366288,81.3780874 C109.648417,81.852873 110.262018,82.0090517 110.736804,81.7269223 L112.456155,80.7052411 C112.93094,80.4231116 113.087119,79.8095107 112.80499,79.334725 C112.52286,78.8599394 111.909259,78.7037607 111.434474,78.9858902 Z M106.276421,82.0509337 L104.55707,83.0726148 C104.082284,83.3547443 103.926106,83.9683452 104.208235,84.4431309 C104.490364,84.9179165 105.103965,85.0740952 105.578751,84.7919658 L107.298102,83.7702846 C107.772888,83.4881551 107.929066,82.8745542 107.646937,82.3997686 C107.364807,81.9249829 106.751206,81.7688042 106.276421,82.0509337 Z M101.118368,85.1159772 L99.3990171,86.1376584 C98.9242314,86.4197878 98.7680527,87.0333888 99.0501822,87.5081744 C99.3323117,87.98296 99.9459126,88.1391387 100.420698,87.8570093 L102.140049,86.8353281 C102.614835,86.5531986 102.771014,85.9395977 102.488884,85.4648121 C102.206755,84.9900264 101.593154,84.8338477 101.118368,85.1159772 Z M95.9603152,88.1810207 L94.2409643,89.2027019 C93.7661787,89.4848313 93.61,90.0984323 93.8921294,90.5732179 C94.1742589,91.0480036 94.7878598,91.2041823 95.2626455,90.9220528 L96.9819964,89.9003716 C97.4567821,89.6182422 97.6129608,89.0046412 97.3308313,88.5298556 C97.0487018,88.0550699 96.4351009,87.8988912 95.9603152,88.1810207 Z M90.8022625,91.2460642 L89.0829116,92.2677454 C88.6081259,92.5498748 88.4519472,93.1634758 88.7340767,93.6382614 C89.0162062,94.1130471 89.6298071,94.2692258 90.1045927,93.9870963 L91.8239437,92.9654151 C92.2987293,92.6832857 92.454908,92.0696847 92.1727785,91.5948991 C91.8906491,91.1201134 91.2770481,90.9639347 90.8022625,91.2460642 Z M85.6442097,94.3111077 L84.4891594,94.9974674 C84.0143738,95.2795969 83.8581951,95.8931978 84.1403245,96.3679834 C84.422454,96.8427691 85.0360549,96.9989478 85.5108406,96.7168183 L86.6658909,96.0304586 C87.1406765,95.7483292 87.2968552,95.1347282 87.0147258,94.6599426 C86.7325963,94.1851569 86.1189954,94.0289783 85.6442097,94.3111077 Z" id="Line-5" fill="#C1C5CF" fill-rule="nonzero" transform="translate(132.000000, 67.928571) scale(1, -1) translate(-132.000000, -67.928571) "></path>
                    <path d="M155.240098,40.0642486 L153.940023,41.5840536 C153.581018,42.0037362 153.630206,42.6349876 154.049889,42.9939932 C154.469571,43.3529988 155.100823,43.3038103 155.459828,42.8841278 L156.759902,41.3643228 C157.118908,40.9446402 157.06972,40.3133888 156.650037,39.9543832 C156.230355,39.5953777 155.599103,39.6445661 155.240098,40.0642486 Z M151.339875,44.6236636 L150.039801,46.1434686 C149.680795,46.5631512 149.729984,47.1944026 150.149666,47.5534082 C150.569349,47.9124137 151.2006,47.8632253 151.559606,47.4435427 L152.85968,45.9237378 C153.218686,45.5040552 153.169497,44.8728038 152.749815,44.5137982 C152.330132,44.1547926 151.698881,44.2039811 151.339875,44.6236636 Z M147.439653,49.1830786 L146.139578,50.7028836 C145.780573,51.1225661 145.829761,51.7538176 146.249444,52.1128231 C146.669126,52.4718287 147.300378,52.4226403 147.659383,52.0029577 L148.959458,50.4831527 C149.318463,50.0634702 149.269275,49.4322187 148.849592,49.0732132 C148.42991,48.7142076 147.798658,48.763396 147.439653,49.1830786 Z M143.53943,53.7424936 L142.239356,55.2622985 C141.88035,55.6819811 141.929539,56.3132326 142.349221,56.6722381 C142.768904,57.0312437 143.400155,56.9820553 143.759161,56.5623727 L145.059235,55.0425677 C145.418241,54.6228851 145.369052,53.9916337 144.94937,53.6326281 C144.529687,53.2736226 143.898436,53.322811 143.53943,53.7424936 Z M139.639208,58.3019085 L138.339134,59.8217135 C137.980128,60.2413961 138.029316,60.8726475 138.448999,61.2316531 C138.868682,61.5906586 139.499933,61.5414702 139.858939,61.1217877 L141.159013,59.6019827 C141.518018,59.1823001 141.46883,58.5510487 141.049147,58.1920431 C140.629465,57.8330375 139.998213,57.882226 139.639208,58.3019085 Z M135.738985,62.8613235 L134.438911,64.3811285 C134.079906,64.800811 134.129094,65.4320625 134.548777,65.7910681 C134.968459,66.1500736 135.599711,66.1008852 135.958716,65.6812026 L137.25879,64.1613976 C137.617796,63.7417151 137.568607,63.1104636 137.148925,62.7514581 C136.729242,62.3924525 136.097991,62.4416409 135.738985,62.8613235 Z M131.838763,67.4207385 L130.538689,68.9405435 C130.179683,69.360226 130.228872,69.9914775 130.648554,70.350483 C131.068237,70.7094886 131.699488,70.6603002 132.058494,70.2406176 L133.358568,68.7208126 C133.717573,68.3011301 133.668385,67.6698786 133.248702,67.310873 C132.82902,66.9518675 132.197768,67.0010559 131.838763,67.4207385 Z M127.93854,71.9801534 L126.638466,73.4999584 C126.279461,73.919641 126.328649,74.5508924 126.748332,74.909898 C127.168014,75.2689036 127.799266,75.2197151 128.158271,74.8000326 L129.458345,73.2802276 C129.817351,72.860545 129.768163,72.2292936 129.34848,71.870288 C128.928797,71.5112825 128.297546,71.5604709 127.93854,71.9801534 Z M124.038318,76.5395684 L122.738244,78.0593734 C122.379238,78.479056 122.428427,79.1103074 122.848109,79.469313 C123.267792,79.8283185 123.899043,79.7791301 124.258049,79.3594475 L125.558123,77.8396426 C125.917128,77.41996 125.86794,76.7887086 125.448258,76.429703 C125.028575,76.0706974 124.397324,76.1198858 124.038318,76.5395684 Z M120.138095,81.0989834 L118.838021,82.6187884 C118.479016,83.0384709 118.528204,83.6697224 118.947887,84.0287279 C119.367569,84.3877335 119.998821,84.3385451 120.357826,83.9188625 L121.6579,82.3990575 C122.016906,81.979375 121.967718,81.3481235 121.548035,80.989118 C121.128353,80.6301124 120.497101,80.6793008 120.138095,81.0989834 Z M116.237873,85.6583984 L114.937799,87.1782033 C114.578793,87.5978859 114.627982,88.2291373 115.047664,88.5881429 C115.467347,88.9471485 116.098598,88.89796 116.457604,88.4782775 L117.757678,86.9584725 C118.116684,86.5387899 118.067495,85.9075385 117.647813,85.5485329 C117.22813,85.1895274 116.596879,85.2387158 116.237873,85.6583984 Z M112.337651,90.2178133 L111.037576,91.7376183 C110.678571,92.1573009 110.727759,92.7885523 111.147442,93.1475579 C111.567124,93.5065634 112.198376,93.457375 112.557381,93.0376925 L113.857456,91.5178875 C114.216461,91.0982049 114.167273,90.4669535 113.74759,90.1079479 C113.327908,89.7489423 112.696656,89.7981308 112.337651,90.2178133 Z M108.437428,94.7772283 L107.137354,96.2970333 C106.778348,96.7167158 106.827537,97.3479673 107.247219,97.7069729 C107.666902,98.0659784 108.298153,98.01679 108.657159,97.5971074 L109.957233,96.0773024 C110.316239,95.6576199 110.26705,95.0263684 109.847368,94.6673629 C109.427685,94.3083573 108.796434,94.3575457 108.437428,94.7772283 Z M104.537206,99.3366433 L103.237132,100.856448 C102.878126,101.276131 102.927314,101.907382 103.346997,102.266388 C103.76668,102.625393 104.397931,102.576205 104.756937,102.156522 L106.057011,100.636717 C106.416016,100.217035 106.366828,99.5857834 105.947145,99.2267778 C105.527463,98.8677723 104.896211,98.9169607 104.537206,99.3366433 Z M100.636983,103.896058 L99.3369091,105.415863 C98.9779036,105.835546 99.027092,106.466797 99.4467745,106.825803 C99.8664571,107.184808 100.497709,107.13562 100.856714,106.715937 L102.156788,105.196132 C102.515794,104.77645 102.466605,104.145198 102.046923,103.786193 C101.62724,103.427187 100.995989,103.476376 100.636983,103.896058 Z M96.7367608,108.455473 L95.4366867,109.975278 C95.0776811,110.394961 95.1268695,111.026212 95.5465521,111.385218 C95.9662347,111.744223 96.5974861,111.695035 96.9564917,111.275352 L98.2565658,109.755547 C98.6155714,109.335865 98.566383,108.704613 98.1467004,108.345608 C97.7270178,107.986602 97.0957664,108.035791 96.7367608,108.455473 Z M92.8365384,113.014888 L91.5364642,114.534693 C91.1774587,114.954376 91.2266471,115.585627 91.6463297,115.944633 C92.0660122,116.303638 92.6972637,116.25445 93.0562692,115.834767 L94.3563434,114.314962 C94.7153489,113.89528 94.6661605,113.264028 94.246478,112.905023 C93.8267954,112.546017 93.1955439,112.595206 92.8365384,113.014888 Z M88.9363159,117.574303 L87.6362418,119.094108 C87.2772362,119.513791 87.3264247,120.145042 87.7461072,120.504048 C88.1657898,120.863053 88.7970412,120.813865 89.1560468,120.394182 L90.4561209,118.874377 C90.8151265,118.454695 90.7659381,117.823443 90.3462555,117.464438 C89.9265729,117.105432 89.2953215,117.154621 88.9363159,117.574303 Z M85.0360935,122.133718 L84.2400975,123.064249 C83.8810919,123.483931 83.9302804,124.115183 84.3499629,124.474188 C84.7696455,124.833194 85.4008969,124.784005 85.7599025,124.364323 L86.5558985,123.433792 C86.914904,123.01411 86.8657156,122.382858 86.4460331,122.023853 C86.0263505,121.664847 85.3950991,121.714036 85.0360935,122.133718 Z" id="Line-5" fill="#C1C5CF" fill-rule="nonzero" transform="translate(120.500000, 82.214286) scale(1, -1) translate(-120.500000, -82.214286) "></path>
                    <path d="M114.097139,40.2843521 L113.237272,42.0900732 C112.999827,42.5887093 113.211563,43.1854215 113.710199,43.4228673 C114.208835,43.660313 114.805548,43.4485764 115.042993,42.9499403 L115.902861,41.1442193 C116.140306,40.6455832 115.92857,40.048871 115.429934,39.8114252 C114.931297,39.5739794 114.334585,39.785716 114.097139,40.2843521 Z M111.517538,45.7015152 L110.657671,47.5072363 C110.420225,48.0058724 110.631962,48.6025846 111.130598,48.8400304 C111.629234,49.0774761 112.225946,48.8657395 112.463392,48.3671034 L113.323259,46.5613824 C113.560705,46.0627463 113.348968,45.4660341 112.850332,45.2285883 C112.351696,44.9911425 111.754984,45.2028792 111.517538,45.7015152 Z M108.937937,51.1186784 L108.078069,52.9243994 C107.840624,53.4230355 108.05236,54.0197477 108.550996,54.2571935 C109.049632,54.4946393 109.646345,54.2829027 109.88379,53.7842666 L110.743658,51.9785455 C110.981103,51.4799094 110.769367,50.8831972 110.270731,50.6457514 C109.772095,50.4083057 109.175382,50.6200423 108.937937,51.1186784 Z M106.358335,56.5358415 L105.498468,58.3415625 C105.261022,58.8401986 105.472759,59.4369108 105.971395,59.6743566 C106.470031,59.9118024 107.066743,59.7000658 107.304189,59.2014297 L108.164056,57.3957086 C108.401502,56.8970725 108.189765,56.3003603 107.691129,56.0629145 C107.192493,55.8254688 106.595781,56.0372054 106.358335,56.5358415 Z M103.778734,61.9530046 L102.918866,63.7587256 C102.681421,64.2573617 102.893157,64.854074 103.391793,65.0915197 C103.890429,65.3289655 104.487142,65.1172289 104.724587,64.6185928 L105.584455,62.8128717 C105.8219,62.3142357 105.610164,61.7175234 105.111528,61.4800776 C104.612892,61.2426319 104.016179,61.4543685 103.778734,61.9530046 Z M101.199132,67.3701677 L100.339265,69.1758887 C100.101819,69.6745248 100.313556,70.2712371 100.812192,70.5086828 C101.310828,70.7461286 101.90754,70.534392 102.144986,70.0357559 L103.004853,68.2300349 C103.242299,67.7313988 103.030562,67.1346865 102.531926,66.8972408 C102.03329,66.659795 101.436578,66.8715316 101.199132,67.3701677 Z M98.6195306,72.7873308 L97.7596634,74.5930518 C97.5222177,75.0916879 97.7339543,75.6884002 98.2325904,75.9258459 C98.7312265,76.1632917 99.3279387,75.9515551 99.5653845,75.452919 L100.425252,73.647198 C100.662697,73.1485619 100.450961,72.5518496 99.9523247,72.3144039 C99.4536886,72.0769581 98.8569763,72.2886947 98.6195306,72.7873308 Z M96.0399291,78.2044939 L95.1800619,80.010215 C94.9426162,80.5088511 95.1543528,81.1055633 95.6529889,81.3430091 C96.151625,81.5804548 96.7483372,81.3687182 96.985783,80.8700821 L97.8456501,79.0643611 C98.0830959,78.565725 97.8713593,77.9690127 97.3727232,77.731567 C96.8740871,77.4941212 96.2773749,77.7058578 96.0399291,78.2044939 Z M93.4603276,83.621657 L92.6004605,85.4273781 C92.3630147,85.9260142 92.5747513,86.5227264 93.0733874,86.7601722 C93.5720235,86.9976179 94.1687357,86.7858813 94.4061815,86.2872452 L95.2660487,84.4815242 C95.5034944,83.9828881 95.2917578,83.3861759 94.7931217,83.1487301 C94.2944856,82.9112843 93.6977734,83.1230209 93.4603276,83.621657 Z M90.8807261,89.0388202 L90.020859,90.8445412 C89.7834132,91.3431773 89.9951498,91.9398895 90.4937859,92.1773353 C90.992422,92.414781 91.5891343,92.2030444 91.82658,91.7044083 L92.6864472,89.8986873 C92.9238929,89.4000512 92.7121563,88.803339 92.2135202,88.5658932 C91.7148841,88.3284475 91.1181719,88.5401841 90.8807261,89.0388202 Z M88.3011247,94.4559833 L87.4412575,96.2617043 C87.2038117,96.7603404 87.4155483,97.3570526 87.9141844,97.5944984 C88.4128205,97.8319442 89.0095328,97.6202076 89.2469785,97.1215715 L90.1068457,95.3158504 C90.3442915,94.8172143 90.1325549,94.2205021 89.6339188,93.9830563 C89.1352827,93.7456106 88.5385704,93.9573472 88.3011247,94.4559833 Z M85.7215232,99.8731464 L84.861656,101.678867 C84.6242103,102.177504 84.8359469,102.774216 85.334583,103.011662 C85.833219,103.249107 86.4299313,103.037371 86.6673771,102.538735 L87.5272442,100.733014 C87.76469,100.234377 87.5529534,99.6376652 87.0543173,99.4002194 C86.5556812,99.1627737 85.9589689,99.3745103 85.7215232,99.8731464 Z" id="Line-5" fill="#C1C5CF" fill-rule="nonzero" transform="translate(100.382258, 71.411543) scale(1, -1) translate(-100.382258, -71.411543) "></path>
                    <path d="M91.0040028,40.6249013 L90.8252341,42.6168958 C90.7758684,43.1669698 91.1817728,43.6529117 91.7318469,43.7022773 C92.281921,43.751643 92.7678629,43.3457386 92.8172285,42.7956645 L92.9959972,40.8036701 C93.0453628,40.253596 92.6394584,39.7676541 92.0893844,39.7182885 C91.5393103,39.6689229 91.0533684,40.0748273 91.0040028,40.6249013 Z M90.4676966,46.6008846 L90.2889279,48.592879 C90.2395623,49.1429531 90.6454666,49.628895 91.1955407,49.6782606 C91.7456148,49.7276262 92.2315567,49.3217218 92.2809223,48.7716477 L92.459691,46.7796533 C92.5090566,46.2295792 92.1031522,45.7436374 91.5530782,45.6942717 C91.0030041,45.6449061 90.5170622,46.0508105 90.4676966,46.6008846 Z M89.9313904,52.5768678 L89.7526217,54.5688622 C89.7032561,55.1189363 90.1091605,55.6048782 90.6592345,55.6542438 C91.2093086,55.7036094 91.6952505,55.297705 91.7446161,54.747631 L91.9233848,52.7556366 C91.9727505,52.2055625 91.5668461,51.7196206 91.016772,51.670255 C90.4666979,51.6208894 89.980756,52.0267938 89.9313904,52.5768678 Z M89.3950842,58.5528511 L89.2163155,60.5448455 C89.1669499,61.0949195 89.5728543,61.5808614 90.1229283,61.6302271 C90.6730024,61.6795927 91.1589443,61.2736883 91.2083099,60.7236142 L91.3870786,58.7316198 C91.4364443,58.1815457 91.0305399,57.6956038 90.4804658,57.6462382 C89.9303917,57.5968726 89.4444499,58.002777 89.3950842,58.5528511 Z M88.858778,64.5288343 L88.6800093,66.5208287 C88.6306437,67.0709028 89.0365481,67.5568447 89.5866222,67.6062103 C90.1366962,67.6555759 90.6226381,67.2496715 90.6720037,66.6995974 L90.8507725,64.707603 C90.9001381,64.157529 90.4942337,63.6715871 89.9441596,63.6222215 C89.3940855,63.5728558 88.9081437,63.9787602 88.858778,64.5288343 Z M88.3224719,70.5048175 L88.1437031,72.496812 C88.0943375,73.046886 88.5002419,73.5328279 89.050316,73.5821935 C89.60039,73.6315592 90.0863319,73.2256548 90.1356975,72.6755807 L90.3144663,70.6835863 C90.3638319,70.1335122 89.9579275,69.6475703 89.4078534,69.5982047 C88.8577794,69.5488391 88.3718375,69.9547435 88.3224719,70.5048175 Z M87.7861657,76.4808008 L87.6073969,78.4727952 C87.5580313,79.0228693 87.9639357,79.5088111 88.5140098,79.5581768 C89.0640838,79.6075424 89.5500257,79.201638 89.5993913,78.6515639 L89.7781601,76.6595695 C89.8275257,76.1094954 89.4216213,75.6235536 88.8715472,75.5741879 C88.3214732,75.5248223 87.8355313,75.9307267 87.7861657,76.4808008 Z M87.2498595,82.456784 L87.0710907,84.4487784 C87.0217251,84.9988525 87.4276295,85.4847944 87.9777036,85.53416 C88.5277777,85.5835256 89.0137195,85.1776212 89.0630852,84.6275472 L89.2418539,82.6355528 C89.2912195,82.0854787 88.8853151,81.5995368 88.335241,81.5501712 C87.785167,81.5008056 87.2992251,81.90671 87.2498595,82.456784 Z M86.7135533,88.4327673 L86.5347846,90.4247617 C86.4854189,90.9748357 86.8913233,91.4607776 87.4413974,91.5101432 C87.9914715,91.5595089 88.4774134,91.1536045 88.526779,90.6035304 L88.7055477,88.611536 C88.7549133,88.0614619 88.3490089,87.57552 87.7989349,87.5261544 C87.2488608,87.4767888 86.7629189,87.8826932 86.7135533,88.4327673 Z M86.1772471,94.4087505 L85.9984784,96.4007449 C85.9491127,96.950819 86.3550171,97.4367609 86.9050912,97.4861265 C87.4551653,97.5354921 87.9411072,97.1295877 87.9904728,96.5795136 L88.1692415,94.5875192 C88.2186071,94.0374452 87.8127027,93.5515033 87.2626287,93.5021377 C86.7125546,93.452772 86.2266127,93.8586764 86.1772471,94.4087505 Z M85.6409409,100.384734 L85.4621722,102.376728 C85.4128066,102.926802 85.818711,103.412744 86.368785,103.46211 C86.9188591,103.511475 87.404801,103.105571 87.4541666,102.555497 L87.6329353,100.563502 C87.6823009,100.013428 87.2763966,99.5274865 86.7263225,99.4781209 C86.1762484,99.4287553 85.6903065,99.8346597 85.6409409,100.384734 Z M85.1046347,106.360717 L84.925866,108.352711 C84.8765004,108.902785 85.2824048,109.388727 85.8324788,109.438093 C86.3825529,109.487459 86.8684948,109.081554 86.9178604,108.53148 L87.0966291,106.539486 C87.1459948,105.989412 86.7400904,105.50347 86.1900163,105.454104 C85.6399422,105.404739 85.1540003,105.810643 85.1046347,106.360717 Z M84.5683285,112.3367 L84.3895598,114.328695 C84.3401942,114.878769 84.7460986,115.364711 85.2961726,115.414076 C85.8462467,115.463442 86.3321886,115.057537 86.3815542,114.507463 L86.5603229,112.515469 C86.6096886,111.965395 86.2037842,111.479453 85.6537101,111.430087 C85.103636,111.380722 84.6176942,111.786626 84.5683285,112.3367 Z M84.0320223,118.312683 L84.0040028,118.624901 C83.9546372,119.174975 84.3605416,119.660917 84.9106156,119.710283 C85.4606897,119.759649 85.9466316,119.353744 85.9959972,118.80367 L86.0240168,118.491452 C86.0733824,117.941378 85.667478,117.455436 85.1174039,117.406071 C84.5673299,117.356705 84.081388,117.762609 84.0320223,118.312683 Z" id="Line-5" fill="#C1C5CF" fill-rule="nonzero" transform="translate(88.500000, 79.714286) scale(1, -1) translate(-88.500000, -79.714286) "></path>
                    <path d="M58.0934026,40.2791396 L58.9373961,42.0923343 C59.1704584,42.5930342 59.7652903,42.8099973 60.2659902,42.5769349 C60.7666901,42.3438726 60.9836532,41.7490407 60.7505908,41.2483408 L59.9065974,39.4351461 C59.673535,38.9344462 59.0787032,38.7174831 58.5780033,38.9505455 C58.0773034,39.1836079 57.8603403,39.7784397 58.0934026,40.2791396 Z M60.625383,45.7187237 L61.4693764,47.5319184 C61.7024388,48.0326183 62.2972706,48.2495814 62.7979705,48.0165191 C63.2986704,47.7834567 63.5156335,47.1886249 63.2825711,46.687925 L62.4385777,44.8747303 C62.2055153,44.3740304 61.6106835,44.1570673 61.1099836,44.3901296 C60.6092837,44.623192 60.3923206,45.2180238 60.625383,45.7187237 Z M63.1573633,51.1583079 L64.0013568,52.9715026 C64.2344191,53.4722025 64.829251,53.6891655 65.3299508,53.4561032 C65.8306507,53.2230408 66.0476138,52.628209 65.8145515,52.1275091 L64.970558,50.3143144 C64.7374957,49.8136145 64.1426638,49.5966514 63.641964,49.8297138 C63.1412641,50.0627761 62.924301,50.657608 63.1573633,51.1583079 Z M65.6893437,56.597892 L66.5333371,58.4110867 C66.7663995,58.9117866 67.3612313,59.1287497 67.8619312,58.8956873 C68.3626311,58.662625 68.5795942,58.0677931 68.3465318,57.5670933 L67.5025384,55.7538985 C67.269476,55.2531986 66.6746442,55.0362356 66.1739443,55.2692979 C65.6732444,55.5023603 65.4562813,56.0971921 65.6893437,56.597892 Z M68.221324,62.0374761 L69.0653174,63.8506708 C69.2983798,64.3513707 69.8932116,64.5683338 70.3939115,64.3352715 C70.8946114,64.1022091 71.1115745,63.5073773 70.8785122,63.0066774 L70.0345187,61.1934827 C69.8014564,60.6927828 69.2066245,60.4758197 68.7059246,60.708882 C68.2052247,60.9419444 67.9882616,61.5367762 68.221324,62.0374761 Z M70.7533043,67.4770603 L71.5972978,69.290255 C71.8303601,69.7909549 72.425192,70.007918 72.9258919,69.7748556 C73.4265918,69.5417932 73.6435549,68.9469614 73.4104925,68.4462615 L72.5664991,66.6330668 C72.3334367,66.1323669 71.7386049,65.9154038 71.237905,66.1484662 C70.7372051,66.3815285 70.520242,66.9763604 70.7533043,67.4770603 Z M73.2852847,72.9166444 L74.1292781,74.7298391 C74.3623405,75.230539 74.9571723,75.4475021 75.4578722,75.2144397 C75.9585721,74.9813774 76.1755352,74.3865455 75.9424728,73.8858457 L75.0984794,72.0726509 C74.865417,71.5719511 74.2705852,71.354988 73.7698853,71.5880503 C73.2691854,71.8211127 73.0522223,72.4159445 73.2852847,72.9166444 Z M75.817265,78.3562285 L76.6612585,80.1694232 C76.8943208,80.6701231 77.4891526,80.8870862 77.9898525,80.6540239 C78.4905524,80.4209615 78.7075155,79.8261297 78.4744532,79.3254298 L77.6304597,77.5122351 C77.3973974,77.0115352 76.8025655,76.7945721 76.3018657,77.0276344 C75.8011658,77.2606968 75.5842027,77.8555286 75.817265,78.3562285 Z M78.3492454,83.7958127 L79.1932388,85.6090074 C79.4263012,86.1097073 80.021133,86.3266704 80.5218329,86.093608 C81.0225328,85.8605457 81.2394959,85.2657138 81.0064335,84.7650139 L80.1624401,82.9518192 C79.9293777,82.4511193 79.3345459,82.2341562 78.833846,82.4672186 C78.3331461,82.7002809 78.116183,83.2951128 78.3492454,83.7958127 Z M80.8812257,89.2353968 L81.7252191,91.0485915 C81.9582815,91.5492914 82.5531133,91.7662545 83.0538132,91.5331921 C83.5545131,91.3001298 83.7714762,90.705298 83.5384139,90.2045981 L82.6944204,88.3914033 C82.4613581,87.8907035 81.8665262,87.6737404 81.3658263,87.9068027 C80.8651264,88.1398651 80.6481633,88.7346969 80.8812257,89.2353968 Z M83.413206,94.6749809 L84.0934026,96.1362824 C84.326465,96.6369823 84.9212968,96.8539454 85.4219967,96.6208831 C85.9226966,96.3878207 86.1396597,95.7929889 85.9065974,95.292289 L85.2264007,93.8309875 C84.9933384,93.3302876 84.3985066,93.1133245 83.8978067,93.3463869 C83.3971068,93.5794492 83.1801437,94.174281 83.413206,94.6749809 Z" id="Line-5" fill="#C1C5CF" fill-rule="nonzero" transform="translate(72.000000, 67.785714) scale(1, -1) translate(-72.000000, -67.785714) "></path>
                    <path d="M178.719846,38.7744198 L176.799936,39.334727 C176.269767,39.4894515 175.96541,40.0446672 176.120134,40.5748358 C176.274859,41.1050044 176.830075,41.4093619 177.360243,41.2546374 L179.280154,40.6943302 C179.810322,40.5396056 180.11468,39.98439 179.959955,39.4542214 C179.805231,38.9240528 179.250015,38.6196953 178.719846,38.7744198 Z M172.960115,40.4553413 L171.040205,41.0156485 C170.510036,41.1703731 170.205679,41.7255887 170.360403,42.2557573 C170.515128,42.7859259 171.070343,43.0902835 171.600512,42.9355589 L173.520422,42.3752517 C174.050591,42.2205272 174.354949,41.6653116 174.200224,41.1351429 C174.045499,40.6049743 173.490284,40.3006168 172.960115,40.4553413 Z M167.200384,42.1362629 L165.280474,42.6965701 C164.750305,42.8512946 164.445948,43.4065102 164.600672,43.9366788 C164.755397,44.4668475 165.310612,44.771205 165.840781,44.6164804 L167.760691,44.0561733 C168.29086,43.9014487 168.595217,43.3462331 168.440493,42.8160645 C168.285768,42.2858959 167.730553,41.9815383 167.200384,42.1362629 Z M161.440653,43.8171844 L159.520743,44.3774916 C158.990574,44.5322162 158.686216,45.0874318 158.840941,45.6176004 C158.995666,46.147769 159.550881,46.4521265 160.08105,46.297402 L162.00096,45.7370948 C162.531129,45.5823702 162.835486,45.0271546 162.680762,44.496986 C162.526037,43.9668174 161.970822,43.6624599 161.440653,43.8171844 Z M155.680922,45.498106 L153.761011,46.0584131 C153.230843,46.2131377 152.926485,46.7683533 153.08121,47.2985219 C153.235934,47.8286905 153.79115,48.1330481 154.321319,47.9783235 L156.241229,47.4180163 C156.771398,47.2632918 157.075755,46.7080762 156.921031,46.1779076 C156.766306,45.6477389 156.21109,45.3433814 155.680922,45.498106 Z M149.921191,47.1790275 L148.00128,47.7393347 C147.471112,47.8940592 147.166754,48.4492748 147.321479,48.9794434 C147.476203,49.5096121 148.031419,49.8139696 148.561588,49.659245 L150.481498,49.0989379 C151.011667,48.9442133 151.316024,48.3889977 151.161299,47.8588291 C151.006575,47.3286605 150.451359,47.0243029 149.921191,47.1790275 Z M144.16146,48.859949 L142.241549,49.4202562 C141.711381,49.5749808 141.407023,50.1301964 141.561748,50.660365 C141.716472,51.1905336 142.271688,51.4948911 142.801856,51.3401666 L144.721767,50.7798594 C145.251935,50.6251348 145.556293,50.0699192 145.401568,49.5397506 C145.246844,49.009582 144.691628,48.7052245 144.16146,48.859949 Z M138.401728,50.5408706 L136.481818,51.1011777 C135.951649,51.2559023 135.647292,51.8111179 135.802016,52.3412865 C135.956741,52.8714551 136.511957,53.1758127 137.042125,53.0210881 L138.962036,52.4607809 C139.492204,52.3060564 139.796562,51.7508408 139.641837,51.2206722 C139.487113,50.6905035 138.931897,50.386146 138.401728,50.5408706 Z M132.641997,52.2217921 L130.722087,52.7820993 C130.191918,52.9368238 129.887561,53.4920394 130.042285,54.0222081 C130.19701,54.5523767 130.752225,54.8567342 131.282394,54.7020097 L133.202304,54.1417025 C133.732473,53.9869779 134.036831,53.4317623 133.882106,52.9015937 C133.727382,52.3714251 133.172166,52.0670675 132.641997,52.2217921 Z M126.882266,53.9027136 L124.962356,54.4630208 C124.432187,54.6177454 124.12783,55.172961 124.282554,55.7031296 C124.437279,56.2332982 124.992494,56.5376557 125.522663,56.3829312 L127.442573,55.822624 C127.972742,55.6678995 128.277099,55.1126838 128.122375,54.5825152 C127.96765,54.0523466 127.412435,53.7479891 126.882266,53.9027136 Z M121.122535,55.5836352 L119.202625,56.1439423 C118.672456,56.2986669 118.368098,56.8538825 118.522823,57.3840511 C118.677548,57.9142197 119.232763,58.2185773 119.762932,58.0638527 L121.682842,57.5035455 C122.213011,57.348821 122.517368,56.7936054 122.362644,56.2634368 C122.207919,55.7332682 121.652704,55.4289106 121.122535,55.5836352 Z M115.362804,57.2645567 L113.442894,57.8248639 C112.912725,57.9795884 112.608367,58.534804 112.763092,59.0649727 C112.917816,59.5951413 113.473032,59.8994988 114.003201,59.7447743 L115.923111,59.1844671 C116.45328,59.0297425 116.757637,58.4745269 116.602913,57.9443583 C116.448188,57.4141897 115.892972,57.1098321 115.362804,57.2645567 Z M109.603073,58.9454782 L107.683162,59.5057854 C107.152994,59.66051 106.848636,60.2157256 107.003361,60.7458942 C107.158085,61.2760628 107.713301,61.5804203 108.24347,61.4256958 L110.16338,60.8653886 C110.693549,60.7106641 110.997906,60.1554484 110.843182,59.6252798 C110.688457,59.0951112 110.133241,58.7907537 109.603073,58.9454782 Z M103.843342,60.6263998 L101.923431,61.1867069 C101.393263,61.3414315 101.088905,61.8966471 101.24363,62.4268157 C101.398354,62.9569843 101.95357,63.2613419 102.483738,63.1066173 L104.403649,62.5463102 C104.933817,62.3915856 105.238175,61.83637 105.08345,61.3062014 C104.928726,60.7760328 104.37351,60.4716752 103.843342,60.6263998 Z M98.0836105,62.3073213 L96.1637001,62.8676285 C95.6335315,63.022353 95.3291739,63.5775687 95.4838985,64.1077373 C95.638623,64.6379059 96.1938387,64.9422634 96.7240073,64.7875389 L98.6439176,64.2272317 C99.1740863,64.0725071 99.4784438,63.5172915 99.3237192,62.9871229 C99.1689947,62.4569543 98.6137791,62.1525968 98.0836105,62.3073213 Z M92.3238793,63.9882428 L90.4039689,64.54855 C89.8738003,64.7032746 89.5694428,65.2584902 89.7241673,65.7886588 C89.8788919,66.3188274 90.4341075,66.623185 90.9642761,66.4684604 L92.8841865,65.9081532 C93.4143551,65.7534287 93.7187127,65.1982131 93.5639881,64.6680444 C93.4092636,64.1378758 92.8540479,63.8335183 92.3238793,63.9882428 Z" id="Line-5" fill="#C1C5CF" fill-rule="nonzero" transform="translate(134.842061, 52.621440) scale(1, -1) translate(-134.842061, -52.621440) "></path>
                    <path d="M76.7882467,25.0226769 L74.8336004,25.4461836 C74.2938397,25.5631317 73.9510824,26.0954994 74.0680306,26.63526 C74.1849787,27.1750207 74.7173464,27.517778 75.2571071,27.4008298 L77.2117533,26.9773231 C77.751514,26.860375 78.0942713,26.3280073 77.9773231,25.7882467 C77.860375,25.248486 77.3280073,24.9057287 76.7882467,25.0226769 Z M70.9243078,26.2931969 L68.9696615,26.7167036 C68.4299009,26.8336518 68.0871436,27.3660195 68.2040917,27.9057801 C68.3210399,28.4455408 68.8534076,28.7882981 69.3931682,28.6713499 L71.3478145,28.2478432 C71.8875752,28.1308951 72.2303324,27.5985274 72.1133843,27.0587667 C71.9964362,26.5190061 71.4640685,26.1762488 70.9243078,26.2931969 Z M65.060369,27.563717 L63.1057227,27.9872237 C62.565962,28.1041719 62.2232048,28.6365395 62.3401529,29.1763002 C62.457101,29.7160609 62.9894687,30.0588181 63.5292294,29.94187 L65.4838757,29.5183633 C66.0236363,29.4014152 66.3663936,28.8690475 66.2494455,28.3292868 C66.1324973,27.7895262 65.6001296,27.4467689 65.060369,27.563717 Z M59.1964301,28.8342371 L57.2417839,29.2577438 C56.7020232,29.3746919 56.3592659,29.9070596 56.4762141,30.4468203 C56.5931622,30.986581 57.1255299,31.3293382 57.6652905,31.2123901 L59.6199368,30.7888834 C60.1596975,30.6719352 60.5024548,30.1395676 60.3855066,29.5998069 C60.2685585,29.0600462 59.7361908,28.717289 59.1964301,28.8342371 Z M53.3324913,30.1047572 L51.377845,30.5282639 C50.8380843,30.645212 50.4953271,31.1775797 50.6122752,31.7173404 C50.7292234,32.257101 51.261591,32.5998583 51.8013517,32.4829102 L53.755998,32.0594035 C54.2957587,31.9424553 54.6385159,31.4100876 54.5215678,30.870327 C54.4046196,30.3305663 53.872252,29.987809 53.3324913,30.1047572 Z M47.4685525,31.3752773 L45.5139062,31.798784 C44.9741455,31.9157321 44.6313882,32.4480998 44.7483364,32.9878605 C44.8652845,33.5276211 45.3976522,33.8703784 45.9374129,33.7534302 L47.8920591,33.3299236 C48.4318198,33.2129754 48.7745771,32.6806077 48.6576289,32.1408471 C48.5406808,31.6010864 48.0083131,31.2583291 47.4685525,31.3752773 Z M41.6046136,32.6457974 L39.6499673,33.069304 C39.1102067,33.1862522 38.7674494,33.7186199 38.8843975,34.2583805 C39.0013457,34.7981412 39.5337134,35.1408985 40.073474,35.0239503 L42.0281203,34.6004436 C42.567881,34.4834955 42.9106382,33.9511278 42.7936901,33.4113671 C42.676742,32.8716065 42.1443743,32.5288492 41.6046136,32.6457974 Z M35.7406748,33.9163174 L33.7860285,34.3398241 C33.2462678,34.4567723 32.9035106,34.9891399 33.0204587,35.5289006 C33.1374068,36.0686613 33.6697745,36.4114186 34.2095352,36.2944704 L36.1641815,35.8709637 C36.7039421,35.7540156 37.0466994,35.2216479 36.9297513,34.6818872 C36.8128031,34.1421266 36.2804354,33.7993693 35.7406748,33.9163174 Z M29.8767359,35.1868375 L27.9220897,35.6103442 C27.382329,35.7272924 27.0395717,36.25966 27.1565199,36.7994207 C27.273468,37.3391814 27.8058357,37.6819386 28.3455963,37.5649905 L30.3002426,37.1414838 C30.8400033,37.0245357 31.1827606,36.492168 31.0658124,35.9524073 C30.9488643,35.4126466 30.4164966,35.0698894 29.8767359,35.1868375 Z M24.0127971,36.4573576 L22.0581508,36.8808643 C21.5183901,36.9978124 21.1756329,37.5301801 21.292581,38.0699408 C21.4095292,38.6097014 21.9418968,38.9524587 22.4816575,38.8355106 L24.4363038,38.4120039 C24.9760645,38.2950557 25.3188217,37.7626881 25.2018736,37.2229274 C25.0849254,36.6831667 24.5525578,36.3404095 24.0127971,36.4573576 Z M18.1488583,37.7278777 L16.7882467,38.0226769 C16.248486,38.139625 15.9057287,38.6719927 16.0226769,39.2117533 C16.139625,39.751514 16.6719927,40.0942713 17.2117533,39.9773231 L18.5723649,39.682524 C19.1121256,39.5655758 19.4548829,39.0332081 19.3379347,38.4934475 C19.2209866,37.9536868 18.6886189,37.6109295 18.1488583,37.7278777 Z" id="Line-5" fill="#C1C5CF" fill-rule="nonzero" transform="translate(47.000000, 32.500000) scale(1, -1) translate(-47.000000, -32.500000) "></path>
                    <g id="Group-9">
                        <circle id="Oval-6" fill="url(#linearGradient-1)" cx="20.6328125" cy="26.6328125" r="18.6328125"></circle>
                        <circle id="Oval-7" fill="#303542" cx="18.716258" cy="22.0117188" r="2"></circle>
                        <circle id="Oval-7" fill="#303542" cx="28.716258" cy="22.0117188" r="2"></circle>
                        <path d="M31.2338254,29.0420669 C29.3157833,31.7112034 27.1038634,33 24.5382965,33 C21.8410073,33 19.1908469,32.1032893 16.5691099,30.2887128 C16.1149874,29.9744021 15.4920492,30.087742 15.1777385,30.5418644 C14.8634278,30.9959869 14.9767677,31.6189251 15.4308901,31.9332358 C18.3746505,33.9706935 21.4166877,35 24.5382965,35 C27.7916274,35 30.5847755,33.3725451 32.8579714,30.2091786 C33.1802604,29.7606831 33.0779498,29.1358387 32.6294543,28.8135497 C32.1809588,28.4912607 31.5561144,28.5935713 31.2338254,29.0420669 Z" id="Line-3" fill="#303542" fill-rule="nonzero"></path>
                        <path d="M1.91306463,12.9292334 C6.00031238,12.3020943 8.86028736,11.9885247 10.4929896,11.9885247 C13.9059118,11.9885247 16.4626728,13.9292334 18.4929896,13.9292334 C19.9459757,13.9292334 24.579193,12.9866232 27.2714452,16.5285681 C29.1138932,18.952505 28.8936422,25.8333535 30.7001371,27.204101 C32.5893716,28.6376303 32.9510853,28.6631545 34.0423565,25.204101 C35.1336277,21.7450475 34.7671109,18.8071767 34.068082,16.5285681 C31.2387464,7.30584651 27.102559,6.25891901 23.82263,5.20410098 C17.6872046,3.23096156 13.5222729,6.66031451 8.32609853,2.05466208 C5.58065731,-0.378772035 1.42638788,0.628299622 0.347259069,6.60569648 C0.158936472,7.64883322 0.680871658,9.75667885 1.91306463,12.9292334 Z" id="Path-11" fill="#303542" transform="translate(17.521178, 14.470177) scale(-1, 1) translate(-17.521178, -14.470177) "></path>
                    </g>
                    <g id="Group-10" transform="translate(67.000000, 22.000000)">
                        <circle id="Oval" fill="#1246C1" cx="18" cy="18" r="18"></circle>
                        <path d="M17.9030712,22.1442072 C17.8996057,22.1422316 17.8960936,22.1402594 17.8925349,22.1382905 C17.1049424,21.7025471 15.9330668,21.2403793 14.4496234,20.0909686 C12.7129724,18.6181954 11.6106118,16.5985905 11.4498757,14.2985123 C11.4152185,13.8025795 11.4221828,13.4514638 11.4756115,12.919077 C11.5467653,12.2101281 11.7153289,11.5271973 11.9758734,10.8909923 C12.9409578,8.53442187 15.0725214,7.01925603 17.6417009,7.00018221 C17.6498914,7 17.6580775,7.00001518 17.6662593,7.00004552 C17.674441,7.00001518 17.6826271,7 17.6908176,7 C20.2599971,7.01925603 22.3915607,8.53442187 23.3566452,10.8909923 C23.6171897,11.5271973 23.7857533,12.2101281 23.856907,12.919077 C23.9103357,13.4514638 23.9173,13.8025795 23.8826428,14.2985123 C23.7138814,16.7134305 22.5071198,18.819169 20.6180631,20.3074472 C20.6808806,20.34458 20.7433385,20.3818952 20.8055585,20.4194712 C22.1151349,21.2103535 23.1748561,22.0343669 23.9872051,22.9709101 C24.0492461,23.0424362 24.1096613,23.1144601 24.1684244,23.1869809 C24.2271875,23.1144601 24.2876027,23.0424362 24.3496437,22.9709101 C25.1619927,22.0343669 26.2217139,21.2103535 27.5312903,20.4194712 C28.0716037,20.093164 28.6298605,19.7865282 29.2857123,19.4481478 L29.2857123,22.8087044 C27.1632958,23.5544294 25.6535097,25.5985236 25.6536017,27 L22.723973,27 L22.6832672,27 C22.6863477,25.6047347 21.518903,24.2642044 19.2873119,22.916497 C18.8638966,22.6607871 18.4191331,22.4138986 17.9030712,22.1442072 Z M15.7142838,23.0216266 C13.7780171,24.3335528 12.7671994,25.6412717 12.7699868,27 L9.99999805,27 C9.99810037,25.4932483 10.5499216,24.1249402 11.5370962,22.9001063 C11.9995265,22.3263473 12.5467363,21.7940938 13.1792379,21.2857143 C13.8244932,21.9086543 14.6695085,22.4872918 15.7142838,23.0216266 Z M17.499998,18.4285714 C17.5051529,18.425911 17.5098958,18.4234564 17.5142073,18.4212175 C19.3824904,17.4510188 20.5670207,15.8221903 20.7004765,13.9131662 C20.7226622,13.5958108 20.7190666,13.4145978 20.6827246,13.0526001 C20.6405918,12.6329553 20.5424733,12.2355728 20.3935748,11.8721185 C19.8800195,10.6185533 18.8211573,9.86609356 17.499998,9.85714286 C16.1788388,9.86609356 15.1199766,10.6185533 14.6064212,11.8721185 C14.4575228,12.2355728 14.3594043,12.6329553 14.3172715,13.0526001 C14.2809295,13.4145978 14.2773339,13.5958108 14.2995196,13.9131662 C14.4329754,15.8221903 15.6175057,17.4510188 17.4857888,18.4212175 C17.4901003,18.4234564 17.4948432,18.425911 17.499998,18.4285714 Z" id="Combined-Shape" fill="#FFFFFF" fill-rule="nonzero"></path>
                    </g>
                    <g id="Group-9" transform="translate(144.000000, 110.000000)">
                        <circle id="Oval-6" fill="url(#linearGradient-1)" cx="12" cy="12" r="12"></circle>
                        <circle id="Oval-7" fill="#303542" cx="6.5" cy="10.5" r="1.5"></circle>
                        <circle id="Oval-7" fill="#303542" cx="14.5" cy="9.5" r="1.5"></circle>
                        <path d="M15.162709,14.4532425 C14.0285534,16.1900607 12.765364,17 11.3211707,17 C9.73868122,17 8.17379476,16.4173174 6.60591477,15.2231422 C6.16655592,14.8885047 5.53910792,14.9733982 5.20447043,15.412757 C4.86983295,15.8521159 4.95472638,16.4795639 5.39408523,16.8142013 C7.29469124,18.2617971 9.27725191,19 11.3211707,19 C13.5033856,19 15.3594158,17.8099393 16.837291,15.5467575 C17.1392568,15.0843344 17.0091805,14.4646748 16.5467575,14.162709 C16.0843344,13.8607432 15.4646748,13.9908195 15.162709,14.4532425 Z" id="Line-3" fill="#303542" fill-rule="nonzero"></path>
                    </g>
                    <g id="Group-9" transform="translate(47.000000, 86.000000)">
                        <circle id="Oval-6" fill="url(#linearGradient-1)" cx="12" cy="12" r="12"></circle>
                        <circle id="Oval-7" fill="#303542" cx="7.5" cy="10.5" r="1.5"></circle>
                        <circle id="Oval-7" fill="#303542" cx="15.5" cy="9.5" r="1.5"></circle>
                        <path d="M15.162709,14.4532425 C14.0285534,16.1900607 12.765364,17 11.3211707,17 C9.73868122,17 8.17379476,16.4173174 6.60591477,15.2231422 C6.16655592,14.8885047 5.53910792,14.9733982 5.20447043,15.412757 C4.86983295,15.8521159 4.95472638,16.4795639 5.39408523,16.8142013 C7.29469124,18.2617971 9.27725191,19 11.3211707,19 C13.5033856,19 15.3594158,17.8099393 16.837291,15.5467575 C17.1392568,15.0843344 17.0091805,14.4646748 16.5467575,14.162709 C16.0843344,13.8607432 15.4646748,13.9908195 15.162709,14.4532425 Z" id="Line-3" fill="#303542" fill-rule="nonzero"></path>
                    </g>
                    <g id="Group-9" transform="translate(80.000000, 106.000000)">
                        <circle id="Oval-6" fill="url(#linearGradient-1)" cx="12" cy="12" r="12"></circle>
                        <circle id="Oval-7" fill="#303542" cx="5.5" cy="9.5" r="1.5"></circle>
                        <circle id="Oval-7" fill="#303542" cx="14.5" cy="8.5" r="1.5"></circle>
                        <path d="M15.162709,13.4532425 C14.0285534,15.1900607 12.765364,16 11.3211707,16 C9.73868122,16 8.17379476,15.4173174 6.60591477,14.2231422 C6.16655592,13.8885047 5.53910792,13.9733982 5.20447043,14.412757 C4.86983295,14.8521159 4.95472638,15.4795639 5.39408523,15.8142013 C7.29469124,17.2617971 9.27725191,18 11.3211707,18 C13.5033856,18 15.3594158,16.8099393 16.837291,14.5467575 C17.1392568,14.0843344 17.0091805,13.4646748 16.5467575,13.162709 C16.0843344,12.8607432 15.4646748,12.9908195 15.162709,13.4532425 Z" id="Line-3" fill="#303542" fill-rule="nonzero"></path>
                    </g>
                    <g id="Group-9" transform="translate(103.000000, 91.000000)">
                        <circle id="Oval-6" fill="url(#linearGradient-1)" cx="12" cy="12" r="12"></circle>
                        <circle id="Oval-7" fill="#303542" cx="6.5" cy="8.5" r="1.5"></circle>
                        <circle id="Oval-7" fill="#303542" cx="15.5" cy="8.5" r="1.5"></circle>
                        <path d="M15.162709,13.4532425 C14.0285534,15.1900607 12.765364,16 11.3211707,16 C9.73868122,16 8.17379476,15.4173174 6.60591477,14.2231422 C6.16655592,13.8885047 5.53910792,13.9733982 5.20447043,14.412757 C4.86983295,14.8521159 4.95472638,15.4795639 5.39408523,15.8142013 C7.29469124,17.2617971 9.27725191,18 11.3211707,18 C13.5033856,18 15.3594158,16.8099393 16.837291,14.5467575 C17.1392568,14.0843344 17.0091805,13.4646748 16.5467575,13.162709 C16.0843344,12.8607432 15.4646748,12.9908195 15.162709,13.4532425 Z" id="Line-3" fill="#303542" fill-rule="nonzero"></path>
                    </g>
                    <g id="Group-9" transform="translate(169.000000, 58.000000)">
                        <circle id="Oval-6" fill="url(#linearGradient-1)" cx="12" cy="12" r="12"></circle>
                        <circle id="Oval-7" fill="#303542" cx="6.5" cy="5.5" r="1.5"></circle>
                        <circle id="Oval-7" fill="#303542" cx="16.5" cy="5.5" r="1.5"></circle>
                        <ellipse id="Oval" fill="#303542" transform="translate(11.129410, 14.017037) rotate(15.000000) translate(-11.129410, -14.017037) " cx="11.1294095" cy="14.0170371" rx="1.71428571" ry="3"></ellipse>
                    </g>
                    <g id="Group-9" transform="translate(173.000000, 90.000000)">
                        <circle id="Oval-6" fill="url(#linearGradient-1)" cx="12" cy="12" r="12"></circle>
                        <circle id="Oval-7" fill="#303542" cx="6.5" cy="10.5" r="1.5"></circle>
                        <circle id="Oval-7" fill="#303542" cx="14.5" cy="9.5" r="1.5"></circle>
                        <path d="M15.162709,14.4532425 C14.0285534,16.1900607 12.765364,17 11.3211707,17 C9.73868122,17 8.17379476,16.4173174 6.60591477,15.2231422 C6.16655592,14.8885047 5.53910792,14.9733982 5.20447043,15.412757 C4.86983295,15.8521159 4.95472638,16.4795639 5.39408523,16.8142013 C7.29469124,18.2617971 9.27725191,19 11.3211707,19 C13.5033856,19 15.3594158,17.8099393 16.837291,15.5467575 C17.1392568,15.0843344 17.0091805,14.4646748 16.5467575,14.162709 C16.0843344,13.8607432 15.4646748,13.9908195 15.162709,14.4532425 Z" id="Line-3" fill="#303542" fill-rule="nonzero"></path>
                    </g>
                    <rect id="Rectangle" fill="#FFFFFF" x="19" y="100" width="36" height="18"></rect>
                    <rect id="Rectangle" fill="#FFFFFF" x="97" y="121.988281" width="36" height="18"></rect>
                    <rect id="Rectangle" fill="#E3E5EB" x="189" y="67" width="25" height="20"></rect>
                    <path d="M205.666667,74.8333333 L204.97619,74.8333333 L204.97619,73.452381 C204.97619,71.5466667 203.429524,70 201.52381,70 C199.618095,70 198.071429,71.5466667 198.071429,73.452381 L198.071429,74.8333333 L197.380952,74.8333333 C196.621429,74.8333333 196,75.4547619 196,76.2142857 L196,83.1190476 C196,83.8785714 196.621429,84.5 197.380952,84.5 L205.666667,84.5 C206.42619,84.5 207.047619,83.8785714 207.047619,83.1190476 L207.047619,76.2142857 C207.047619,75.4547619 206.42619,74.8333333 205.666667,74.8333333 Z M201.52381,81.047619 C200.764286,81.047619 200.142857,80.4261905 200.142857,79.6666667 C200.142857,78.9071429 200.764286,78.2857143 201.52381,78.2857143 C202.283333,78.2857143 202.904762,78.9071429 202.904762,79.6666667 C202.904762,80.4261905 202.283333,81.047619 201.52381,81.047619 Z M203.664286,74.8333333 L199.383333,74.8333333 L199.383333,73.452381 C199.383333,72.2716667 200.343095,71.3119048 201.52381,71.3119048 C202.704524,71.3119048 203.664286,72.2716667 203.664286,73.452381 L203.664286,74.8333333 Z" id="Shape" fill="#303542" fill-rule="nonzero"></path>
                    <rect id="Rectangle" fill="#E3E5EB" x="191" y="107" width="17" height="18"></rect>
                    <rect id="Rectangle" fill="#E3E5EB" x="161" y="128.988281" width="17" height="24"></rect>
                    <rect id="Rectangle" fill="#FFFFFF" x="119" y="110.988281" width="21" height="8"></rect>
                </g>
            </g>
        </g>
    </g>
</svg>