<?xml version="1.0" encoding="UTF-8"?>
<svg width="280px" height="170px" viewBox="0 0 280 170" version="1.1" xmlns="http://www.w3.org/2000/svg" xmlns:xlink="http://www.w3.org/1999/xlink">
    <!-- Generator: Sketch 55 (78076) - https://sketchapp.com -->
    <title>4@2x</title>
    <desc>Created with Sketch.</desc>
    <defs>
        <linearGradient x1="13.4451845%" y1="15.2998835%" x2="85.143683%" y2="83.3825659%" id="linearGradient-1">
            <stop stop-color="#FF7800" offset="0%"></stop>
            <stop stop-color="#FFAB2C" offset="100%"></stop>
        </linearGradient>
    </defs>
    <g id="4" stroke="none" stroke-width="1" fill="none" fill-rule="evenodd">
        <g id="Group-47" transform="translate(5.000000, 25.000000)">
            <ellipse id="Oval" fill="#F3F4F7" cx="105" cy="76" rx="105" ry="65"></ellipse>
            <g id="Group-35">
                <g id="Group-14">
                    <g id="Group-9" transform="translate(0.000000, 21.000000)">
                        <circle id="Oval-6" fill="url(#linearGradient-1)" cx="40" cy="47" r="40"></circle>
                        <path d="M22.0869193,8 C19.8793989,8.48300932 12.0400391,5.6639408 12.0400391,7 C12.0400391,13.5 7.2148991,11.6108235 5.4375,13 C3.91253036,14.1918831 5.09570313,23 8.11132813,23 C17.4298742,23 38.0005041,21.5049014 52.1850126,18.3726604 C60.5534183,16.5247385 63.6990565,18.8031137 64,15 C64.3626026,10.4176822 66.8920228,4.95164073 64,2.64462591 C63.3105074,2.09460618 61.1942413,5.67512628 59.5,6 C58.2233934,6.24479153 57.2910485,3.36143347 56.8024947,2.64462591 C55,-5.11812814e-14 52.4815872,3.64897763 51.0078125,3.41601563 C48.348014,2.99557687 46.0425853,-0.589030551 42,1 C39.5853863,1.94911911 37.3064696,6.76832788 35.0605469,7 C31.8771594,7.32837378 30.0009286,2.62925537 27.2958984,3.41601563 C24.8766587,4.11965348 23.9330533,7.59606267 22.0869193,8 Z" id="Path-7" fill="#303542"></path>
                        <circle id="Oval-7" fill="#000000" cx="37.5" cy="41.5" r="4.5"></circle>
                        <circle id="Oval-7" fill="#000000" cx="59.5" cy="41.5" r="4.5"></circle>
                        <path d="M62.8068165,57.0909823 C58.5064926,62.7356201 53.4765797,65.5 47.6240974,65.5 C41.5800385,65.5 35.6539959,63.6086704 29.8199908,59.7999838 C29.1263037,59.3471154 28.1968369,59.5423375 27.7439685,60.2360246 C27.2911001,60.9297116 27.4863222,61.8591785 28.1800092,62.3120469 C34.4857051,66.4286731 40.9757274,68.5 47.6240974,68.5 C54.4640441,68.5 60.3513996,65.2643799 65.1931835,58.9090177 C65.6952201,58.2500406 65.5679947,57.3088531 64.9090177,56.8068165 C64.2500406,56.3047799 63.3088531,56.4320053 62.8068165,57.0909823 Z" id="Line-3" fill="#303542" fill-rule="nonzero"></path>
                    </g>
                    <path d="M27.7687606,54.1977249 L66.4434628,55.8012757 C69.1220137,55.9123352 71.2363281,58.116131 71.2363281,60.7969834 L71.2363281,64.9936523 C71.2363281,69.4629816 67.6132209,73.0860888 63.1438916,73.0860888 C62.859529,73.0860888 62.5753641,73.0711004 62.2925794,73.0411859 L59.4285589,72.7382141 C55.2404388,72.2951717 51.7787666,69.275654 50.7710393,65.1865072 L50.7250765,65 C50.3744527,63.5772416 48.9368423,62.7081048 47.5140839,63.0587287 C46.7590282,63.2448042 46.1236184,63.7527631 45.7758446,64.4483107 L44.4772761,67.0454478 C42.9360871,70.1278257 39.9163691,72.1994444 36.4858457,72.527813 L31.2250325,73.0313762 C26.6382063,73.4704257 22.5639291,70.1079883 22.1248797,65.5211621 C22.0762614,65.0132389 22.0743404,64.5019265 22.1191406,63.9936523 L22.580936,58.7544251 C22.8154629,56.0936364 25.0999491,54.0870692 27.7687606,54.1977249 Z" id="Rectangle" fill="#303542"></path>
                    <g id="Group-11" transform="translate(91.000000, 0.000000)">
                        <path d="M85.3424041,43.776266 C85.5597298,43.740045 85.7796766,43.7218417 86,43.7218417 C88.209139,43.7218417 90,45.5127027 90,47.7218417 L90,117.278158 C90,117.498482 89.9817966,117.718429 89.9455757,117.935754 C89.5823955,120.114836 87.5214853,121.586914 85.3424041,121.223734 L33.3424041,112.557067 C31.4136522,112.235609 30,110.566848 30,108.611492 L30,56.3885084 C30,54.4331517 31.4136522,52.7643913 33.3424041,52.4429327 L85.3424041,43.776266 Z" id="Rectangle-4" fill="#BFC4CE"></path>
                        <path d="M71.3424041,23.776266 C71.5597298,23.740045 71.7796766,23.7218417 72,23.7218417 C74.209139,23.7218417 76,25.5127027 76,27.7218417 L76,97.2781583 C76,97.4984818 75.9817966,97.7184286 75.9455757,97.9357543 C75.5823955,100.114836 73.5214853,101.586914 71.3424041,101.223734 L19.3424041,92.5570673 C17.4136522,92.2356087 16,90.5668483 16,88.6114916 L16,36.3885084 C16,34.4331517 17.4136522,32.7643913 19.3424041,32.4429327 L71.3424041,23.776266 Z" id="Rectangle-4" fill="#E4E7EE"></path>
                        <path d="M55.3424041,0.776265992 C55.5597298,0.740045041 55.7796766,0.721841687 56,0.721841687 C58.209139,0.721841687 60,2.51270269 60,4.72184169 L60,74.6165629 C60,74.7384658 59.9944274,74.8603049 59.9832996,74.9816987 C59.7816407,77.1816144 57.8347798,78.8015215 55.6348642,78.5998626 L3.6348642,73.8331959 C1.57583646,73.6444517 3.55271368e-14,71.9175567 3.55271368e-14,69.8498963 L2.13162821e-14,13.3885084 C2.13162821e-14,11.4331517 1.41365217,9.7643913 3.34240405,9.44293266 L55.3424041,0.776265992 Z" id="Rectangle-4" fill="#FFFFFF"></path>
                    </g>
                    <polygon id="Rectangle" fill="#303542" points="96 15 114 12 114 39 96 38"></polygon>
                    <g id="Group-12" transform="translate(100.000000, 19.000000)" fill="#FFFFFF">
                        <circle id="Oval" cx="4.5" cy="3.5" r="3.5"></circle>
                        <path d="M9,14.5 L0,14.5 C0,10.9101491 2.01471863,8 4.5,8 C6.98528137,8 9,10.9101491 9,14.5 Z" id="Oval"></path>
                    </g>
                    <polygon id="Rectangle" fill="#D7DBE3" points="118 19 143 17 143 21 118 23"></polygon>
                    <polygon id="Rectangle" fill="#D7DBE3" points="118 25 143 24 143 28 118 29"></polygon>
                    <polygon id="Rectangle" fill="#D7DBE3" points="95 42 119 44 119 46 95 44"></polygon>
                    <polygon id="Rectangle" fill="#D7DBE3" points="95 46 105 47 105 49 95 48"></polygon>
                </g>
            </g>
        </g>
    </g>
</svg>