<?xml version="1.0" encoding="UTF-8"?>
<svg width="280px" height="170px" viewBox="0 0 280 170" version="1.1" xmlns="http://www.w3.org/2000/svg" xmlns:xlink="http://www.w3.org/1999/xlink">
    <!-- Generator: Sketch 55 (78076) - https://sketchapp.com -->
    <title>5@2x</title>
    <desc>Created with Sketch.</desc>
    <defs>
        <linearGradient x1="13.4451845%" y1="15.2998835%" x2="85.143683%" y2="83.3825659%" id="linearGradient-1">
            <stop stop-color="#FF7800" offset="0%"></stop>
            <stop stop-color="#FFAB2C" offset="100%"></stop>
        </linearGradient>
    </defs>
    <g id="5" stroke="none" stroke-width="1" fill="none" fill-rule="evenodd">
        <g id="Group-48" transform="translate(2.000000, 13.000000)">
            <ellipse id="Oval" fill="#F3F4F7" cx="105" cy="89" rx="105" ry="65"></ellipse>
            <g id="Group-36">
                <g id="Group-15" transform="translate(27.131621, 0.000000)">
                    <g id="Group-13">
                        <g id="Group-7">
                            <rect id="Rectangle-4" fill="#E4E7EE" transform="translate(28.500000, 25.000000) scale(-1, 1) translate(-28.500000, -25.000000) " x="3" y="0" width="51" height="50"></rect>
                            <rect id="Rectangle" fill="#FFFFFF" x="10" y="25" width="14" height="14"></rect>
                            <rect id="Rectangle" fill="#FFFFFF" x="32" y="25" width="14" height="25"></rect>
                            <polygon id="Rectangle-4" fill="#BFC4CE" transform="translate(28.000000, 13.000000) scale(-1, 1) translate(-28.000000, -13.000000) " points="2.54545455 6 53.4545455 6 56 20 -2.83245649e-14 20"></polygon>
                            <polygon id="Rectangle" fill="#FFFFFF" points="5.57142857 6 9 6 7.28571429 20 3 20"></polygon>
                            <polygon id="Rectangle" fill="#FFFFFF" points="12.8333333 6 17 6 16.1666667 20 12 20"></polygon>
                            <polygon id="Rectangle" fill="#FFFFFF" points="21 6 25 6 25 20 21 20"></polygon>
                            <polygon id="Rectangle" fill="#FFFFFF" points="30 6 34 6 34 20 30 20"></polygon>
                            <polygon id="Rectangle" fill="#FFFFFF" points="38 6 42.1666667 6 43 20 38.8333333 20"></polygon>
                            <polygon id="Rectangle" fill="#FFFFFF" points="47 6 50.3333333 6 52 20 48.6666667 20"></polygon>
                        </g>
                    </g>
                    <g id="Group-13" transform="translate(0.000000, 66.000000)">
                        <g id="Group-7">
                            <rect id="Rectangle-4" fill="#E4E7EE" transform="translate(28.500000, 25.000000) scale(-1, 1) translate(-28.500000, -25.000000) " x="3" y="0" width="51" height="50"></rect>
                            <rect id="Rectangle" fill="#FFFFFF" x="10" y="25" width="14" height="14"></rect>
                            <rect id="Rectangle" fill="#FFFFFF" x="32" y="25" width="14" height="25"></rect>
                            <polygon id="Rectangle-4" fill="#BFC4CE" transform="translate(28.000000, 13.000000) scale(-1, 1) translate(-28.000000, -13.000000) " points="2.54545455 6 53.4545455 6 56 20 -2.12191376e-14 20"></polygon>
                            <polygon id="Rectangle" fill="#FFFFFF" points="5.57142857 6 9 6 7.28571429 20 3 20"></polygon>
                            <polygon id="Rectangle" fill="#FFFFFF" points="12.8333333 6 17 6 16.1666667 20 12 20"></polygon>
                            <polygon id="Rectangle" fill="#FFFFFF" points="21 6 25 6 25 20 21 20"></polygon>
                            <polygon id="Rectangle" fill="#FFFFFF" points="30 6 34 6 34 20 30 20"></polygon>
                            <polygon id="Rectangle" fill="#FFFFFF" points="38 6 42.1666667 6 43 20 38.8333333 20"></polygon>
                            <polygon id="Rectangle" fill="#FFFFFF" points="47 6 50.3333333 6 52 20 48.6666667 20"></polygon>
                        </g>
                    </g>
                    <g id="Group-13" transform="translate(72.000000, 17.000000)">
                        <g id="Group-7">
                            <rect id="Rectangle-4" fill="#E4E7EE" transform="translate(28.500000, 25.000000) scale(-1, 1) translate(-28.500000, -25.000000) " x="3" y="0" width="51" height="50"></rect>
                            <rect id="Rectangle" fill="#FFFFFF" x="10" y="25" width="14" height="14"></rect>
                            <rect id="Rectangle" fill="#FFFFFF" x="32" y="25" width="14" height="25"></rect>
                            <polygon id="Rectangle-4" fill="#BFC4CE" transform="translate(28.000000, 13.000000) scale(-1, 1) translate(-28.000000, -13.000000) " points="2.54545455 6 53.4545455 6 56 20 9.71445147e-17 20"></polygon>
                            <polygon id="Rectangle" fill="#FFFFFF" points="5.57142857 6 9 6 7.28571429 20 3 20"></polygon>
                            <polygon id="Rectangle" fill="#FFFFFF" points="12.8333333 6 17 6 16.1666667 20 12 20"></polygon>
                            <polygon id="Rectangle" fill="#FFFFFF" points="21 6 25 6 25 20 21 20"></polygon>
                            <polygon id="Rectangle" fill="#FFFFFF" points="30 6 34 6 34 20 30 20"></polygon>
                            <polygon id="Rectangle" fill="#FFFFFF" points="38 6 42.1666667 6 43 20 38.8333333 20"></polygon>
                            <polygon id="Rectangle" fill="#FFFFFF" points="47 6 50.3333333 6 52 20 48.6666667 20"></polygon>
                        </g>
                    </g>
                    <g id="Group-13" transform="translate(72.000000, 83.000000)">
                        <g id="Group-7">
                            <rect id="Rectangle-4" fill="#E4E7EE" transform="translate(28.500000, 25.000000) scale(-1, 1) translate(-28.500000, -25.000000) " x="3" y="0" width="51" height="50"></rect>
                            <rect id="Rectangle" fill="#FFFFFF" x="10" y="25" width="14" height="14"></rect>
                            <rect id="Rectangle" fill="#FFFFFF" x="32" y="25" width="14" height="25"></rect>
                            <polygon id="Rectangle-4" fill="#BFC4CE" transform="translate(28.000000, 13.000000) scale(-1, 1) translate(-28.000000, -13.000000) " points="2.54545455 6 53.4545455 6 56 20 -2.12191376e-14 20"></polygon>
                            <polygon id="Rectangle" fill="#FFFFFF" points="5.57142857 6 9 6 7.28571429 20 3 20"></polygon>
                            <polygon id="Rectangle" fill="#FFFFFF" points="12.8333333 6 17 6 16.1666667 20 12 20"></polygon>
                            <polygon id="Rectangle" fill="#FFFFFF" points="21 6 25 6 25 20 21 20"></polygon>
                            <polygon id="Rectangle" fill="#FFFFFF" points="30 6 34 6 34 20 30 20"></polygon>
                            <polygon id="Rectangle" fill="#FFFFFF" points="38 6 42.1666667 6 43 20 38.8333333 20"></polygon>
                            <polygon id="Rectangle" fill="#FFFFFF" points="47 6 50.3333333 6 52 20 48.6666667 20"></polygon>
                        </g>
                    </g>
                    <g id="Group-13" transform="translate(139.000000, 47.000000)">
                        <g id="Group-7">
                            <rect id="Rectangle-4" fill="#E4E7EE" transform="translate(28.500000, 25.000000) scale(-1, 1) translate(-28.500000, -25.000000) " x="3" y="0" width="51" height="50"></rect>
                            <rect id="Rectangle" fill="#FFFFFF" x="10" y="25" width="14" height="14"></rect>
                            <rect id="Rectangle" fill="#FFFFFF" x="32" y="25" width="14" height="25"></rect>
                            <polygon id="Rectangle-4" fill="#BFC4CE" transform="translate(28.000000, 13.000000) scale(-1, 1) translate(-28.000000, -13.000000) " points="2.54545455 6 53.4545455 6 56 20 -2.12191376e-14 20"></polygon>
                            <polygon id="Rectangle" fill="#FFFFFF" points="5.57142857 6 9 6 7.28571429 20 3 20"></polygon>
                            <polygon id="Rectangle" fill="#FFFFFF" points="12.8333333 6 17 6 16.1666667 20 12 20"></polygon>
                            <polygon id="Rectangle" fill="#FFFFFF" points="21 6 25 6 25 20 21 20"></polygon>
                            <polygon id="Rectangle" fill="#FFFFFF" points="30 6 34 6 34 20 30 20"></polygon>
                            <polygon id="Rectangle" fill="#FFFFFF" points="38 6 42.1666667 6 43 20 38.8333333 20"></polygon>
                            <polygon id="Rectangle" fill="#FFFFFF" points="47 6 50.3333333 6 52 20 48.6666667 20"></polygon>
                        </g>
                    </g>
                </g>
                <g id="Group-9" transform="translate(6.131621, 110.000000)">
                    <circle id="Oval-6" fill="url(#linearGradient-1)" cx="18.6328125" cy="18.6328125" r="18.6328125"></circle>
                    <circle id="Oval-7" fill="#303542" cx="21" cy="12" r="2"></circle>
                    <circle id="Oval-7" fill="#303542" cx="29" cy="11" r="2"></circle>
                    <path d="M30.2338254,17.4164441 C28.3157833,20.0855806 26.1038634,21.3743773 23.5382965,21.3743773 C22.9860117,21.3743773 22.5382965,21.8220925 22.5382965,22.3743773 C22.5382965,22.926662 22.9860117,23.3743773 23.5382965,23.3743773 C26.7916274,23.3743773 29.5847755,21.7469224 31.8579714,18.5835559 C32.1802604,18.1350603 32.0779498,17.510216 31.6294543,17.187927 C31.1809588,16.865638 30.5561144,16.9679486 30.2338254,17.4164441 Z" id="Line-3" fill="#303542" fill-rule="nonzero"></path>
                </g>
                <path d="M10.355759,134.60574 C13.6295156,138.179951 15.4073179,140.02831 15.6891659,140.150819 C16.6502257,140.568557 17.9789805,139.133117 17.5395878,137.728286 C16.9067103,135.704844 14.3000154,132.097832 14.9476099,130.606886 C16.0308248,128.113018 20.9913919,128.918624 20.6110274,127.282191 C19.9031371,124.236649 16.5338484,121.910121 16.5338484,120.563019 C16.5338484,116.144741 19.3107925,114.402528 21.4453008,112.080051 C23.6368929,109.695463 23.9853983,107.72917 20.8130834,104.860915 C18.5516233,102.816211 15.3084232,101.543559 12.402544,104.729568 C10.3951619,106.930464 10.9633224,109.046524 10.6201383,110.699199 C9.67221233,115.264136 5.48558444,116.787944 6.05255476,123.554197 C6.43053498,128.065032 7.8649364,131.74888 10.355759,134.60574 Z" id="Oval" fill="#303542" transform="translate(14.571034, 121.511919) rotate(20.000000) translate(-14.571034, -121.511919) "></path>
            </g>
        </g>
    </g>
</svg>