<?xml version="1.0" encoding="UTF-8"?>
<svg width="280px" height="170px" viewBox="0 0 280 170" version="1.1" xmlns="http://www.w3.org/2000/svg" xmlns:xlink="http://www.w3.org/1999/xlink">
    <!-- Generator: Sketch 55 (78076) - https://sketchapp.com -->
    <title>6@2x</title>
    <desc>Created with Sketch.</desc>
    <defs>
        <linearGradient x1="13.4451845%" y1="15.2998835%" x2="85.143683%" y2="83.3825659%" id="linearGradient-1">
            <stop stop-color="#FF7800" offset="0%"></stop>
            <stop stop-color="#FFAB2C" offset="100%"></stop>
        </linearGradient>
    </defs>
    <g id="6" stroke="none" stroke-width="1" fill="none" fill-rule="evenodd">
        <g id="Group-49" transform="translate(2.000000, 19.000000)">
            <ellipse id="Oval" fill="#F3F4F7" cx="166" cy="81.8428571" rx="73" ry="42"></ellipse>
            <g id="Group-37">
                <g id="Group-21">
                    <g id="Group-25" transform="translate(146.867375, 20.000000)">
                        <path d="M19.1326251,1.98131006 L19.1326251,40.0370241 L70.1326251,41.9615524 L70.1326251,1.01904591 L19.1326251,1.98131006 Z" id="Rectangle" stroke="#E4E6EC" stroke-width="2" fill="#174BC9"></path>
                        <g id="Group-10" transform="translate(35.132625, 11.000000)" fill="#FFFFFF" fill-rule="nonzero">
                            <path d="M7.90307117,15.1442072 C7.89960568,15.1422316 7.89609359,15.1402594 7.8925349,15.1382905 C7.10494236,14.7025471 5.93306681,14.2403793 4.4496234,13.0909686 C2.71297237,11.6181954 1.6106118,9.59859046 1.44987575,7.29851234 C1.41521854,6.80257948 1.42218285,6.45146381 1.47561154,5.91907702 C1.54676527,5.21012806 1.71532886,4.52719727 1.97587338,3.8909923 C2.9409578,1.53442187 5.07252139,0.0192560348 7.64170089,0.000182211303 C7.64989141,0 7.65807754,1.51819784e-05 7.66625927,4.55248599e-05 C7.674441,1.51819784e-05 7.68262713,0 7.69081765,0 C10.2599971,0.0192560348 12.3915607,1.53442187 13.3566452,3.8909923 C13.6171897,4.52719727 13.7857533,5.21012806 13.856907,5.91907702 C13.9103357,6.45146381 13.9173,6.80257948 13.8826428,7.29851234 C13.7138814,9.71343052 12.5071198,11.819169 10.6180631,13.3074472 C10.6808806,13.34458 10.7433385,13.3818952 10.8055585,13.4194712 C12.1151349,14.2103535 13.1748561,15.0343669 13.9872051,15.9709101 C14.0492461,16.0424362 14.1096613,16.1144601 14.1684244,16.1869809 C14.2271875,16.1144601 14.2876027,16.0424362 14.3496437,15.9709101 C15.1619927,15.0343669 16.2217139,14.2103535 17.5312903,13.4194712 C18.0716037,13.093164 18.6298605,12.7865282 19.2857123,12.4481478 L19.2857123,15.8087044 C17.1632958,16.5544294 15.6535097,18.5985236 15.6536017,20 L12.723973,20 L12.6832672,20 C12.6863477,18.6047347 11.518903,17.2642044 9.28731192,15.916497 C8.8638966,15.6607871 8.41913315,15.4138986 7.90307117,15.1442072 Z M5.71428376,16.0216266 C3.77801712,17.3335528 2.76719936,18.6412717 2.76998675,20 L-1.95132637e-06,20 C-0.00189962916,18.4932483 0.54992155,17.1249402 1.53709617,15.9001063 C1.99952651,15.3263473 2.5467363,14.7940938 3.17923788,14.2857143 C3.82449317,14.9086543 4.66950847,15.4872918 5.71428376,16.0216266 Z M7.49999805,11.4285714 C7.50515288,11.425911 7.50989584,11.4234564 7.51420732,11.4212175 C9.38249045,10.4510188 10.5670207,8.82219032 10.7004765,6.91316619 C10.7226622,6.59581076 10.7190666,6.41459776 10.6827246,6.05260011 C10.6405918,5.6329553 10.5424733,5.23557282 10.3935748,4.87211851 C9.88001953,3.61855326 8.82115731,2.86609356 7.49999805,2.85714286 C6.17883879,2.86609356 5.11997656,3.61855326 4.60642125,4.87211851 C4.45752283,5.23557282 4.35940426,5.6329553 4.3172715,6.05260011 C4.28092953,6.41459776 4.27733392,6.59581076 4.29951956,6.91316619 C4.43297538,8.82219032 5.61750565,10.4510188 7.48578878,11.4212175 C7.49010026,11.4234564 7.49484322,11.425911 7.49999805,11.4285714 Z" id="Combined-Shape"></path>
                        </g>
                        <polygon id="Rectangle" fill="#FFFFFF" points="0.132625058 49.8170851 50.1179926 53 71.2097895 43 18.2097895 41"></polygon>
                        <polygon id="Rectangle" fill="#D3D6DE" points="0.132625058 49.8170851 50.1179926 53 50.2097895 57 -9.23705556e-14 52.4085426"></polygon>
                        <polygon id="Rectangle" fill="#CFD2DB" points="71.2652501 42.4842246 50.1179926 53 50.2097895 57 71.1326251 45.075682"></polygon>
                        <path d="M51.8397318,61.3483538 L50.4255183,62.7625674 L58.3178751,70.6549242 L58.9826385,69.5822216 C63.8249625,61.7683536 68.3562689,57.2370471 72.4846563,55.9550109 L71.891515,54.0449891 C67.4022684,55.4390871 62.7831922,59.921335 57.9540421,67.4626641 L51.8397318,61.3483538 Z" id="Path-16" fill="#303542" fill-rule="nonzero"></path>
                    </g>
                    <g id="Group-20" transform="translate(31.000000, 0.000000)">
                        <rect id="Rectangle" fill="#E6E8ED" x="0" y="0" width="36" height="24"></rect>
                        <rect id="Rectangle" fill="#D3D6DE" x="16.5" y="24" width="3" height="4.5"></rect>
                        <rect id="Rectangle" fill="#D3D6DE" x="9" y="28.5" width="19.5" height="1.5"></rect>
                        <rect id="Rectangle" fill="#FFFFFF" x="3" y="3" width="30" height="18"></rect>
                    </g>
                    <g id="Group-20" transform="translate(0.000000, 32.000000)">
                        <rect id="Rectangle" fill="#E6E8ED" x="0" y="0" width="36" height="24"></rect>
                        <rect id="Rectangle" fill="#D3D6DE" x="16.5" y="24" width="3" height="4.5"></rect>
                        <rect id="Rectangle" fill="#D3D6DE" x="9" y="28.5" width="19.5" height="1.5"></rect>
                        <rect id="Rectangle" fill="#FFFFFF" x="3" y="3" width="30" height="18"></rect>
                    </g>
                    <g id="Group-20" transform="translate(28.000000, 53.000000)">
                        <rect id="Rectangle" fill="#E6E8ED" x="0" y="0" width="36" height="24"></rect>
                        <rect id="Rectangle" fill="#D3D6DE" x="16.5" y="24" width="3" height="4.5"></rect>
                        <rect id="Rectangle" fill="#D3D6DE" x="9" y="28.5" width="19.5" height="1.5"></rect>
                        <rect id="Rectangle" fill="#FFFFFF" x="3" y="3" width="30" height="18"></rect>
                    </g>
                    <g id="Group-20" transform="translate(0.000000, 80.000000)">
                        <rect id="Rectangle" fill="#E6E8ED" x="0" y="0" width="36" height="24"></rect>
                        <rect id="Rectangle" fill="#D3D6DE" x="16.5" y="24" width="3" height="4.5"></rect>
                        <rect id="Rectangle" fill="#D3D6DE" x="9" y="28.5" width="19.5" height="1.5"></rect>
                        <rect id="Rectangle" fill="#FFFFFF" x="3" y="3" width="30" height="18"></rect>
                    </g>
                    <g id="Group-20" transform="translate(48.000000, 95.000000)">
                        <rect id="Rectangle" fill="#E6E8ED" x="0" y="0" width="36" height="24"></rect>
                        <rect id="Rectangle" fill="#D3D6DE" x="16.5" y="24" width="3" height="4.5"></rect>
                        <rect id="Rectangle" fill="#D3D6DE" x="9" y="28.5" width="19.5" height="1.5"></rect>
                        <rect id="Rectangle" fill="#FFFFFF" x="3" y="3" width="30" height="18"></rect>
                    </g>
                    <g id="Group-20" transform="translate(59.000000, 18.000000)">
                        <rect id="Rectangle" fill="#E6E8ED" x="0" y="0" width="36" height="24"></rect>
                        <rect id="Rectangle" fill="#D3D6DE" x="16.5" y="24" width="3" height="4.5"></rect>
                        <rect id="Rectangle" fill="#D3D6DE" x="9" y="28.5" width="19.5" height="1.5"></rect>
                        <rect id="Rectangle" fill="#FFFFFF" x="3" y="3" width="30" height="18"></rect>
                    </g>
                    <circle id="Oval" fill="#BEC2CE" cx="14.5" cy="69.5" r="2.5"></circle>
                    <circle id="Oval" fill="#BEC2CE" cx="48.5" cy="35.5" r="2.5"></circle>
                    <circle id="Oval" fill="#BEC2CE" cx="45.5" cy="87.5" r="2.5"></circle>
                    <circle id="Oval" fill="#BEC2CE" cx="76.5" cy="52.5" r="2.5"></circle>
                    <circle id="Oval" fill="#BEC2CE" cx="66.5" cy="129.5" r="2.5"></circle>
                    <circle id="Oval" fill="#BEC2CE" cx="33.5" cy="112.5" r="2.5"></circle>
                    <path d="M118.314104,76.9497047 L117.602418,77.6522026 C117.209365,78.0401815 117.205251,78.6733331 117.59323,79.0663864 C117.981209,79.4594396 118.61436,79.4635531 119.007414,79.0755743 L119.719099,78.3730763 C120.112153,77.9850975 120.116266,77.3519459 119.728287,76.9588926 C119.340308,76.5658394 118.707157,76.5617258 118.314104,76.9497047 Z M115.46736,79.7596964 L114.755675,80.4621943 C114.362621,80.8501731 114.358508,81.4833248 114.746487,81.876378 C115.134466,82.2694312 115.767617,82.2735448 116.16067,81.8855659 L116.872356,81.183068 C117.265409,80.7950891 117.269523,80.1619375 116.881544,79.7688843 C116.493565,79.375831 115.860414,79.3717175 115.46736,79.7596964 Z M112.620617,82.569688 L111.908931,83.2721859 C111.515878,83.6601648 111.511765,84.2933164 111.899743,84.6863696 C112.287722,85.0794228 112.920874,85.0835364 113.313927,84.6955575 L114.025613,83.9930596 C114.418666,83.6050807 114.42278,82.9719291 114.034801,82.5788759 C113.646822,82.1858227 113.01367,82.1817091 112.620617,82.569688 Z M109.773874,85.3796796 L109.062188,86.0821775 C108.669135,86.4701564 108.665021,87.103308 109.053,87.4963612 C109.440979,87.8894145 110.074131,87.893528 110.467184,87.5055491 L111.17887,86.8030512 C111.571923,86.4150724 111.576037,85.7819207 111.188058,85.3888675 C110.800079,84.9958143 110.166927,84.9917007 109.773874,85.3796796 Z M106.927131,88.1896712 L106.215445,88.8921692 C105.822392,89.280148 105.818278,89.9132997 106.206257,90.3063529 C106.594236,90.6994061 107.227388,90.7035197 107.620441,90.3155408 L108.332127,89.6130429 C108.72518,89.225064 108.729293,88.5919124 108.341314,88.1988591 C107.953336,87.8058059 107.320184,87.8016924 106.927131,88.1896712 Z M104.080387,90.9996629 L103.368702,91.7021608 C102.975648,92.0901397 102.971535,92.7232913 103.359514,93.1163445 C103.747493,93.5093977 104.380644,93.5135113 104.773697,93.1255324 L105.485383,92.4230345 C105.878437,92.0350556 105.88255,91.401904 105.494571,91.0088508 C105.106592,90.6157976 104.473441,90.611684 104.080387,90.9996629 Z M101.233644,93.8096545 L100.521958,94.5121524 C100.128905,94.9001313 100.124792,95.5332829 100.512771,95.9263361 C100.900749,96.3193893 101.533901,96.3235029 101.926954,95.935524 L102.63864,95.2330261 C103.031693,94.8450472 103.035807,94.2118956 102.647828,93.8188424 C102.259849,93.4257892 101.626697,93.4216756 101.233644,93.8096545 Z M98.386901,96.6196461 L97.6752152,97.322144 C97.282162,97.7101229 97.2780484,98.3432745 97.6660273,98.7363278 C98.0540062,99.129381 98.6871578,99.1334945 99.080211,98.7455157 L99.7918968,98.0430178 C100.18495,97.6550389 100.189064,97.0218873 99.8010847,96.628834 C99.4131058,96.2357808 98.7799542,96.2316673 98.386901,96.6196461 Z M95.5401578,99.4296378 L94.828472,100.132136 C94.4354188,100.520115 94.4313052,101.153266 94.8192841,101.546319 C95.2072629,101.939373 95.8404146,101.943486 96.2334678,101.555507 L96.9451536,100.853009 C97.3382068,100.46503 97.3423204,99.8318789 96.9543415,99.4388257 C96.5663626,99.0457724 95.933211,99.0416589 95.5401578,99.4296378 Z M92.6934145,102.239629 L91.9817287,102.942127 C91.5886755,103.330106 91.584562,103.963258 91.9725408,104.356311 C92.3605197,104.749364 92.9936713,104.753478 93.3867245,104.365499 L94.0984104,103.663001 C94.4914636,103.275022 94.4955771,102.641871 94.1075983,102.248817 C93.7196194,101.855764 93.0864678,101.851651 92.6934145,102.239629 Z M89.8466713,105.049621 L89.1349855,105.752119 C88.7419323,106.140098 88.7378187,106.773249 89.1257976,107.166303 C89.5137765,107.559356 90.1469281,107.563469 90.5399813,107.175491 L91.2516671,106.472993 C91.6447203,106.085014 91.6488339,105.451862 91.260855,105.058809 C90.8728761,104.665756 90.2397245,104.661642 89.8466713,105.049621 Z M86.9999281,107.859613 L86.2882423,108.562111 C85.895189,108.950089 85.8910755,109.583241 86.2790544,109.976294 C86.6670332,110.369347 87.3001849,110.373461 87.6932381,109.985482 L88.4049239,109.282984 C88.7979771,108.895005 88.8020907,108.261854 88.4141118,107.868801 C88.0261329,107.475747 87.3929813,107.471634 86.9999281,107.859613 Z M84.1531848,110.669604 L83.441499,111.372102 C83.0484458,111.760081 83.0443322,112.393233 83.4323111,112.786286 C83.82029,113.179339 84.4534416,113.183453 84.8464948,112.795474 L85.5581807,112.092976 C85.9512339,111.704997 85.9553474,111.071845 85.5673686,110.678792 C85.1793897,110.285739 84.5462381,110.281625 84.1531848,110.669604 Z M81.3064416,113.479596 L80.5947558,114.182094 C80.2017026,114.570073 80.197589,115.203224 80.5855679,115.596278 C80.9735468,115.989331 81.6066984,115.993444 81.9997516,115.605465 L82.7114374,114.902968 C83.1044906,114.514989 83.1086042,113.881837 82.7206253,113.488784 C82.3326464,113.095731 81.6994948,113.091617 81.3064416,113.479596 Z M78.4596984,116.289588 L77.7480126,116.992085 C77.3549593,117.380064 77.3508458,118.013216 77.7388247,118.406269 C78.1268035,118.799322 78.7599552,118.803436 79.1530084,118.415457 L79.8646942,117.712959 C80.2577474,117.32498 80.261861,116.691829 79.8738821,116.298775 C79.4859032,115.905722 78.8527516,115.901609 78.4596984,116.289588 Z M75.6129551,119.099579 L74.9012693,119.802077 C74.5082161,120.190056 74.5041025,120.823208 74.8920814,121.216261 C75.2800603,121.609314 75.9132119,121.613428 76.3062651,121.225449 L77.0179509,120.522951 C77.4110042,120.134972 77.4151177,119.50182 77.0271389,119.108767 C76.63916,118.715714 76.0060084,118.7116 75.6129551,119.099579 Z M72.7662119,121.909571 L72.0545261,122.612069 C71.6614729,123.000048 71.6573593,123.633199 72.0453382,124.026252 C72.4333171,124.419306 73.0664687,124.423419 73.4595219,124.03544 L74.1712077,123.332942 C74.5642609,122.944964 74.5683745,122.311812 74.1803956,121.918759 C73.7924167,121.525705 73.1592651,121.521592 72.7662119,121.909571 Z M69.9194687,124.719562 L69.2077829,125.42206 C68.8147296,125.810039 68.8106161,126.443191 69.198595,126.836244 C69.5865738,127.229297 70.2197255,127.233411 70.6127787,126.845432 L71.3244645,126.142934 C71.7175177,125.754955 71.7216313,125.121804 71.3336524,124.72875 C70.9456735,124.335697 70.3125219,124.331584 69.9194687,124.719562 Z M67.0727254,127.529554 L66.3610396,128.232052 C65.9679864,128.620031 65.9638728,129.253182 66.3518517,129.646236 C66.7398306,130.039289 67.3729822,130.043402 67.7660354,129.655424 L68.4777212,128.952926 C68.8707745,128.564947 68.874888,127.931795 68.4869091,127.538742 C68.0989303,127.145689 67.4657786,127.141575 67.0727254,127.529554 Z M64.9833995,127.608991 L64.0916501,127.156461 C63.5991505,126.906536 62.9972963,127.103181 62.7473711,127.595681 C62.4974459,128.08818 62.6940914,128.690035 63.186591,128.93996 L64.0783404,129.392489 C64.57084,129.642415 65.1726942,129.445769 65.4226193,128.95327 C65.6725445,128.46077 65.4758991,127.858916 64.9833995,127.608991 Z M61.4164018,125.798872 L60.5246524,125.346343 C60.0321528,125.096418 59.4302986,125.293063 59.1803735,125.785563 C58.9304483,126.278062 59.1270937,126.879916 59.6195933,127.129842 L60.5113427,127.582371 C61.0038423,127.832296 61.6056965,127.635651 61.8556217,127.143151 C62.1055469,126.650652 61.9089014,126.048798 61.4164018,125.798872 Z M57.8494042,123.988754 L56.9576548,123.536225 C56.4651552,123.286299 55.863301,123.482945 55.6133758,123.975444 C55.3634507,124.467944 55.5600961,125.069798 56.0525957,125.319723 L56.9443451,125.772253 C57.4368447,126.022178 58.0386989,125.825533 58.2886241,125.333033 C58.5385492,124.840534 58.3419038,124.238679 57.8494042,123.988754 Z M54.2824066,122.178636 L53.3906572,121.726106 C52.8981576,121.476181 52.2963034,121.672827 52.0463782,122.165326 C51.796453,122.657826 51.9930985,123.25968 52.4855981,123.509605 L53.3773475,123.962135 C53.8698471,124.21206 54.4717013,124.015415 54.7216264,123.522915 C54.9715516,123.030415 54.7749062,122.428561 54.2824066,122.178636 Z M50.7154089,120.368518 L49.8236595,119.915988 C49.3311599,119.666063 48.7293057,119.862708 48.4793806,120.355208 C48.2294554,120.847708 48.4261008,121.449562 48.9186004,121.699487 L49.8103498,122.152017 C50.3028494,122.401942 50.9047036,122.205296 51.1546288,121.712797 C51.404554,121.220297 51.2079085,120.618443 50.7154089,120.368518 Z M47.1484113,118.5584 L46.2566619,118.10587 C45.7641623,117.855945 45.1623081,118.05259 44.9123829,118.54509 C44.6624578,119.037589 44.8591032,119.639444 45.3516028,119.889369 L46.2433522,120.341898 C46.7358518,120.591824 47.337706,120.395178 47.5876312,119.902679 C47.8375563,119.410179 47.6409109,118.808325 47.1484113,118.5584 Z M43.5814137,116.748281 L42.6896643,116.295752 C42.1971647,116.045827 41.5953105,116.242472 41.3453853,116.734972 C41.0954601,117.227471 41.2921056,117.829325 41.7846052,118.079251 L42.6763546,118.53178 C43.1688542,118.781705 43.7707084,118.58506 44.0206335,118.09256 C44.2705587,117.600061 44.0739133,116.998207 43.5814137,116.748281 Z M40.014416,114.938163 L39.1226666,114.485634 C38.630167,114.235708 38.0283129,114.432354 37.7783877,114.924853 C37.5284625,115.417353 37.7251079,116.019207 38.2176075,116.269132 L39.1093569,116.721662 C39.6018565,116.971587 40.2037107,116.774942 40.4536359,116.282442 C40.7035611,115.789943 40.5069156,115.188088 40.014416,114.938163 Z M36.4474184,113.128045 L35.555669,112.675515 C35.0631694,112.42559 34.4613152,112.622236 34.2113901,113.114735 C33.9614649,113.607235 34.1581103,114.209089 34.6506099,114.459014 L35.5423593,114.911544 C36.0348589,115.161469 36.6367131,114.964823 36.8866383,114.472324 C37.1365634,113.979824 36.939918,113.37797 36.4474184,113.128045 Z M34.1832012,112.392152 L34.644554,111.504935 C34.8993521,111.014939 34.7086862,110.411164 34.2186899,110.156366 C33.7286936,109.901567 33.1249185,110.092233 32.8701204,110.58223 L32.4087676,111.469446 C32.1539696,111.959443 32.3446354,112.563218 32.8346317,112.818016 C33.324628,113.072814 33.9284032,112.882148 34.1832012,112.392152 Z M36.0286122,108.843285 L36.4899649,107.956068 C36.744763,107.466072 36.5540972,106.862296 36.0641009,106.607498 C35.5741045,106.3527 34.9703294,106.543366 34.7155313,107.033362 L34.2541786,107.920579 C33.9993805,108.410576 34.1900463,109.014351 34.6800426,109.269149 C35.170039,109.523947 35.7738141,109.333281 36.0286122,108.843285 Z M37.8740231,105.294417 L38.3353759,104.407201 C38.5901739,103.917204 38.3995081,103.313429 37.9095118,103.058631 C37.4195155,102.803833 36.8157403,102.994499 36.5609423,103.484495 L36.0995895,104.371712 C35.8447914,104.861708 36.0354573,105.465483 36.5254536,105.720282 C37.0154499,105.97508 37.619225,105.784414 37.8740231,105.294417 Z M39.7194341,101.74555 L40.1807868,100.858333 C40.4355849,100.368337 40.2449191,99.764562 39.7549227,99.5097639 C39.2649264,99.2549659 38.6611513,99.4456317 38.4063532,99.935628 L37.9450005,100.822845 C37.6902024,101.312841 37.8808682,101.916616 38.3708645,102.171414 C38.8608608,102.426212 39.464636,102.235547 39.7194341,101.74555 Z M41.564845,98.1966831 L42.0261978,97.3094663 C42.2809958,96.81947 42.09033,96.2156948 41.6003337,95.9608967 C41.1103374,95.7060987 40.5065622,95.8967645 40.2517642,96.3867608 L39.7904114,97.2739776 C39.5356133,97.7639739 39.7262792,98.3677491 40.2162755,98.6225471 C40.7062718,98.8773452 41.3100469,98.6866794 41.564845,98.1966831 Z M43.410256,94.6478159 L43.8716087,93.7605991 C44.1264068,93.2706028 43.9357409,92.6668276 43.4457446,92.4120295 C42.9557483,92.1572315 42.3519732,92.3478973 42.0971751,92.8378936 L41.6358224,93.7251104 C41.3810243,94.2151067 41.5716901,94.8188819 42.0616864,95.0736799 C42.5516827,95.328478 43.1554579,95.1378122 43.410256,94.6478159 Z M45.2556669,91.0989487 L45.7170197,90.2117319 C45.9718177,89.7217356 45.7811519,89.1179604 45.2911556,88.8631623 C44.8011593,88.6083643 44.1973841,88.7990301 43.942586,89.2890264 L43.4812333,90.1762432 C43.2264352,90.6662395 43.4171011,91.2700147 43.9070974,91.5248127 C44.3970937,91.7796108 45.0008688,91.588945 45.2556669,91.0989487 Z M46.0936629,86.4017706 L45.2254198,85.9056316 C44.7459024,85.6316217 44.1350477,85.7982184 43.8610377,86.2777358 C43.5870278,86.7572533 43.7536245,87.368108 44.2331419,87.6421179 L45.1013851,88.1382569 C45.5809025,88.4122668 46.1917572,88.2456701 46.4657672,87.7661527 C46.7397771,87.2866352 46.5731804,86.6757805 46.0936629,86.4017706 Z M42.6206904,84.4172148 L41.7524472,83.9210759 C41.2729298,83.6470659 40.6620751,83.8136626 40.3880652,84.2931801 C40.1140552,84.7726975 40.2806519,85.3835522 40.7601694,85.6575622 L41.6284125,86.1537011 C42.10793,86.4277111 42.7187846,86.2611144 42.9927946,85.7815969 C43.2668046,85.3020795 43.1002078,84.6912248 42.6206904,84.4172148 Z M39.1477178,82.4326591 L38.2794747,81.9365201 C37.7999572,81.6625102 37.1891026,81.8291069 36.9150926,82.3086243 C36.6410826,82.7881418 36.8076793,83.3989964 37.2871968,83.6730064 L38.1554399,84.1691454 C38.6349574,84.4431553 39.245812,84.2765586 39.519822,83.7970412 C39.793832,83.3175237 39.6272353,82.706669 39.1477178,82.4326591 Z M35.6747452,80.4481033 L34.8065021,79.9519644 C34.3269847,79.6779544 33.71613,79.8445511 33.44212,80.3240686 C33.1681101,80.803586 33.3347068,81.4144407 33.8142242,81.6884507 L34.6824674,82.1845896 C35.1619848,82.4585996 35.7728395,82.2920028 36.0468494,81.8124854 C36.3208594,81.332968 36.1542627,80.7221133 35.6747452,80.4481033 Z M32.2017727,78.4635476 L31.3335295,77.9674086 C30.8540121,77.6933987 30.2431574,77.8599954 29.9691475,78.3395128 C29.6951375,78.8190303 29.8617342,79.4298849 30.3412517,79.7038949 L31.2094948,80.2000338 C31.6890122,80.4740438 32.2998669,80.3074471 32.5738769,79.8279296 C32.8478868,79.3484122 32.6812901,78.7375575 32.2017727,78.4635476 Z M28.7288001,76.4789918 L27.860557,75.9828529 C27.3810395,75.7088429 26.7701849,75.8754396 26.4961749,76.3549571 C26.2221649,76.8344745 26.3887616,77.4453292 26.8682791,77.7193392 L27.7365222,78.2154781 C28.2160397,78.4894881 28.8268943,78.3228913 29.1009043,77.8433739 C29.3749143,77.3638564 29.2083176,76.7530018 28.7288001,76.4789918 Z M25.2558275,74.4944361 L24.3875844,73.9982971 C23.908067,73.7242872 23.2972123,73.8908839 23.0232023,74.3704013 C22.7491923,74.8499188 22.9157891,75.4607734 23.3953065,75.7347834 L24.2635497,76.2309223 C24.7430671,76.5049323 25.3539218,76.3383356 25.6279317,75.8588181 C25.9019417,75.3793007 25.735345,74.768446 25.2558275,74.4944361 Z M21.782855,72.5098803 L20.9146118,72.0137414 C20.4350944,71.7397314 19.8242397,71.9063281 19.5502297,72.3858456 C19.2762198,72.865363 19.4428165,73.4762177 19.922334,73.7502277 L20.7905771,74.2463666 C21.2700945,74.5203766 21.8809492,74.3537798 22.1549592,73.8742624 C22.4289691,73.3947449 22.2623724,72.7838903 21.782855,72.5098803 Z M18.3098824,70.5253246 L17.4416393,70.0291856 C16.9621218,69.7551756 16.3512671,69.9217724 16.0772572,70.4012898 C15.8032472,70.8808073 15.9698439,71.4916619 16.4493614,71.7656719 L17.3176045,72.2618108 C17.797122,72.5358208 18.4079766,72.3692241 18.6819866,71.8897066 C18.9559966,71.4101892 18.7893998,70.7993345 18.3098824,70.5253246 Z M15.3367847,70.0774288 L16.0438915,69.3703221 C16.4344158,68.9797978 16.4344158,68.3466328 16.0438915,67.9561085 C15.6533672,67.5655842 15.0202022,67.5655842 14.6296779,67.9561085 L13.9225712,68.6632153 C13.5320469,69.0537396 13.5320469,69.6869046 13.9225712,70.0774288 C14.3130954,70.4679531 14.9462604,70.4679531 15.3367847,70.0774288 Z M18.1652118,67.2490017 L18.8723186,66.5418949 C19.2628429,66.1513706 19.2628429,65.5182057 18.8723186,65.1276814 C18.4817943,64.7371571 17.8486294,64.7371571 17.4581051,65.1276814 L16.7509983,65.8347882 C16.360474,66.2253124 16.360474,66.8584774 16.7509983,67.2490017 C17.1415226,67.639526 17.7746876,67.639526 18.1652118,67.2490017 Z M20.993639,64.4205746 L21.7007457,63.7134678 C22.09127,63.3229435 22.09127,62.6897785 21.7007457,62.2992543 C21.3102215,61.90873 20.6770565,61.90873 20.2865322,62.2992543 L19.5794254,63.006361 C19.1889011,63.3968853 19.1889011,64.0300503 19.5794254,64.4205746 C19.9699497,64.8110989 20.6031147,64.8110989 20.993639,64.4205746 Z M23.8220661,61.5921475 L24.5291729,60.8850407 C24.9196972,60.4945164 24.9196972,59.8613514 24.5291729,59.4708271 C24.1386486,59.0803028 23.5054836,59.0803028 23.1149593,59.4708271 L22.4078525,60.1779339 C22.0173282,60.5684582 22.0173282,61.2016232 22.4078525,61.5921475 C22.7983768,61.9826718 23.4315418,61.9826718 23.8220661,61.5921475 Z M26.6504932,58.7637203 L27.3576,58.0566136 C27.7481243,57.6660893 27.7481243,57.0329243 27.3576,56.6424 C26.9670757,56.2518757 26.3339107,56.2518757 25.9433864,56.6424 L25.2362797,57.3495068 C24.8457554,57.7400311 24.8457554,58.3731961 25.2362797,58.7637203 C25.6268039,59.1542446 26.2599689,59.1542446 26.6504932,58.7637203 Z M29.4789203,55.9352932 L30.1860271,55.2281864 C30.5765514,54.8376621 30.5765514,54.2044972 30.1860271,53.8139729 C29.7955028,53.4234486 29.1623379,53.4234486 28.7718136,53.8139729 L28.0647068,54.5210797 C27.6741825,54.9116039 27.6741825,55.5447689 28.0647068,55.9352932 C28.4552311,56.3258175 29.0883961,56.3258175 29.4789203,55.9352932 Z M32.3073475,53.1068661 L33.0144542,52.3997593 C33.4049785,52.009235 33.4049785,51.37607 33.0144542,50.9855458 C32.62393,50.5950215 31.990765,50.5950215 31.6002407,50.9855458 L30.8931339,51.6926525 C30.5026096,52.0831768 30.5026096,52.7163418 30.8931339,53.1068661 C31.2836582,53.4973904 31.9168232,53.4973904 32.3073475,53.1068661 Z M35.1357746,50.278439 L35.8428814,49.5713322 C36.2334057,49.1808079 36.2334057,48.5476429 35.8428814,48.1571186 C35.4523571,47.7665943 34.8191921,47.7665943 34.4286678,48.1571186 L33.721561,48.8642254 C33.3310367,49.2547497 33.3310367,49.8879147 33.721561,50.278439 C34.1120853,50.6689633 34.7452503,50.6689633 35.1357746,50.278439 Z M37.9642017,47.4500118 L38.6713085,46.7429051 C39.0618328,46.3523808 39.0618328,45.7192158 38.6713085,45.3286915 C38.2807842,44.9381672 37.6476192,44.9381672 37.2570949,45.3286915 L36.5499882,46.0357983 C36.1594639,46.4263226 36.1594639,47.0594876 36.5499882,47.4500118 C36.9405124,47.8405361 37.5736774,47.8405361 37.9642017,47.4500118 Z M40.7926288,44.6215847 L41.4997356,43.9144779 C41.8902599,43.5239536 41.8902599,42.8907887 41.4997356,42.5002644 C41.1092113,42.1097401 40.4760464,42.1097401 40.0855221,42.5002644 L39.3784153,43.2073712 C38.987891,43.5978955 38.987891,44.2310604 39.3784153,44.6215847 C39.7689396,45.012109 40.4021045,45.012109 40.7926288,44.6215847 Z M43.621056,41.7931576 L44.3281627,41.0860508 C44.718687,40.6955265 44.718687,40.0623615 44.3281627,39.6718373 C43.9376385,39.281313 43.3044735,39.281313 42.9139492,39.6718373 L42.2068424,40.378944 C41.8163181,40.7694683 41.8163181,41.4026333 42.2068424,41.7931576 C42.5973667,42.1836819 43.2305317,42.1836819 43.621056,41.7931576 Z M46.4494831,38.9647305 L47.1565899,38.2576237 C47.5471142,37.8670994 47.5471142,37.2339344 47.1565899,36.8434101 C46.7660656,36.4528858 46.1329006,36.4528858 45.7423763,36.8434101 L45.0352695,37.5505169 C44.6447452,37.9410412 44.6447452,38.5742062 45.0352695,38.9647305 C45.4257938,39.3552548 46.0589588,39.3552548 46.4494831,38.9647305 Z M49.2779102,36.1363033 L49.985017,35.4291966 C50.3755413,35.0386723 50.3755413,34.4055073 49.985017,34.014983 C49.5944927,33.6244587 48.9613277,33.6244587 48.5708034,34.014983 L47.8636967,34.7220898 C47.4731724,35.1126141 47.4731724,35.7457791 47.8636967,36.1363033 C48.2542209,36.5268276 48.8873859,36.5268276 49.2779102,36.1363033 Z M51.34728,37.6462976 L52.1952783,38.1762966 C52.6636148,38.4690069 53.2805652,38.3266337 53.5732755,37.8582972 C53.8659859,37.3899607 53.7236127,36.7730103 53.2552762,36.4803 L52.4072779,35.950301 C51.9389413,35.6575907 51.321991,35.7999639 51.0292806,36.2683004 C50.7365703,36.7366369 50.8789435,37.3535873 51.34728,37.6462976 Z M54.7392732,39.7662934 L55.5872715,40.2962923 C56.055608,40.5890027 56.6725584,40.4466295 56.9652688,39.978293 C57.2579791,39.5099564 57.1156059,38.8930061 56.6472694,38.6002957 L55.7992711,38.0702968 C55.3309346,37.7775865 54.7139842,37.9199596 54.4212738,38.3882962 C54.1285635,38.8566327 54.2709367,39.4735831 54.7392732,39.7662934 Z M58.1312664,41.8862892 L58.9792647,42.4162881 C59.4476013,42.7089984 60.0645516,42.5666253 60.357262,42.0982887 C60.6499723,41.6299522 60.5075991,41.0130018 60.0392626,40.7202915 L59.1912643,40.1902925 C58.7229278,39.8975822 58.1059774,40.0399554 57.8132671,40.5082919 C57.5205567,40.9766284 57.6629299,41.5935788 58.1312664,41.8862892 Z M61.5232596,44.0062849 L62.3712579,44.5362839 C62.8395945,44.8289942 63.4565449,44.686621 63.7492552,44.2182845 C64.0419655,43.749948 63.8995924,43.1329976 63.4312558,42.8402872 L62.5832575,42.3102883 C62.114921,42.017578 61.4979706,42.1599511 61.2052603,42.6282877 C60.9125499,43.0966242 61.0549231,43.7135746 61.5232596,44.0062849 Z M64.9152529,46.1262807 L65.7632512,46.6562796 C66.2315877,46.9489899 66.8485381,46.8066168 67.1412484,46.3382803 C67.4339587,45.8699437 67.2915856,45.2529933 66.823249,44.960283 L65.9752507,44.4302841 C65.5069142,44.1375737 64.8899638,44.2799469 64.5972535,44.7482834 C64.3045432,45.21662 64.4469163,45.8335703 64.9152529,46.1262807 Z M68.3072461,48.2462764 L69.1552444,48.7762754 C69.6235809,49.0689857 70.2405313,48.9266125 70.5332416,48.458276 C70.825952,47.9899395 70.6835788,47.3729891 70.2152423,47.0802788 L69.367244,46.5502798 C68.8989074,46.2575695 68.281957,46.3999427 67.9892467,46.8682792 C67.6965364,47.3366157 67.8389095,47.9535661 68.3072461,48.2462764 Z M71.6992393,50.3662722 L72.5472376,50.8962711 C73.0155741,51.1889815 73.6325245,51.0466083 73.9252348,50.5782718 C74.2179452,50.1099352 74.075572,49.4929849 73.6072355,49.2002745 L72.7592372,48.6702756 C72.2909006,48.3775653 71.6739503,48.5199384 71.3812399,48.988275 C71.0885296,49.4566115 71.2309028,50.0735619 71.6992393,50.3662722 Z M75.0912325,52.486268 L75.9392308,53.0162669 C76.4075673,53.3089772 77.0245177,53.1666041 77.3172281,52.6982675 C77.6099384,52.229931 77.4675652,51.6129806 76.9992287,51.3202703 L76.1512304,50.7902713 C75.6828939,50.497561 75.0659435,50.6399342 74.7732331,51.1082707 C74.4805228,51.5766072 74.622896,52.1935576 75.0912325,52.486268 Z M78.4961255,54.5971204 L79.3473608,55.1219045 C79.8174851,55.4117348 80.43355,55.2655777 80.7233803,54.7954534 C81.0132106,54.3253291 80.8670534,53.7092642 80.3969291,53.4194339 L79.5456938,52.8946497 C79.0755695,52.6048194 78.4595046,52.7509766 78.1696743,53.2211009 C77.879844,53.6912252 78.0260012,54.3072901 78.4961255,54.5971204 Z M81.9010668,56.696257 L82.7523021,57.2210412 C83.2224264,57.5108715 83.8384913,57.3647143 84.1283216,56.89459 C84.4181519,56.4244657 84.2719947,55.8084008 83.8018705,55.5185705 L82.9506351,54.9937864 C82.4805108,54.7039561 81.8644459,54.8501132 81.5746156,55.3202375 C81.2847853,55.7903618 81.4309425,56.4064267 81.9010668,56.696257 Z M85.3060081,58.7953937 L86.1572435,59.3201778 C86.6273677,59.6100081 87.2434327,59.4638509 87.5332629,58.9937267 C87.8230932,58.5236024 87.6769361,57.9075375 87.2068118,57.6177072 L86.3555764,57.092923 C85.8854522,56.8030927 85.2693872,56.9492499 84.979557,57.4193742 C84.6897267,57.8894985 84.8358838,58.5055634 85.3060081,58.7953937 Z M88.7109494,60.8945303 L89.5621848,61.4193145 C90.0323091,61.7091448 90.648374,61.5629876 90.9382043,61.0928633 C91.2280345,60.622739 91.0818774,60.0066741 90.6117531,59.7168438 L89.7605178,59.1920596 C89.2903935,58.9022294 88.6743286,59.0483865 88.3844983,59.5185108 C88.094668,59.9886351 88.2408251,60.6047 88.7109494,60.8945303 Z M92.1158908,62.9936669 L92.9671261,63.5184511 C93.4372504,63.8082814 94.0533153,63.6621242 94.3431456,63.1919999 C94.6329759,62.7218757 94.4868187,62.1058107 94.0166944,61.8159805 L93.1654591,61.2911963 C92.6953348,61.001366 92.0792699,61.1475232 91.7894396,61.6176475 C91.4996093,62.0877718 91.6457665,62.7038367 92.1158908,62.9936669 Z M95.5208321,65.0928036 L96.3720674,65.6175878 C96.8421917,65.907418 97.4582566,65.7612609 97.7480869,65.2911366 C98.0379172,64.8210123 97.89176,64.2049474 97.4216357,63.9151171 L96.5704004,63.3903329 C96.1002761,63.1005026 95.4842112,63.2466598 95.1943809,63.7167841 C94.9045506,64.1869084 95.0507078,64.8029733 95.5208321,65.0928036 Z M98.9257734,67.1919402 L99.7770087,67.7167244 C100.247133,68.0065547 100.863198,67.8603975 101.153028,67.3902732 C101.442858,66.9201489 101.296701,66.304084 100.826577,66.0142537 L99.9753417,65.4894696 C99.5052174,65.1996393 98.8891525,65.3457965 98.5993222,65.8159207 C98.3094919,66.286045 98.4556491,66.9021099 98.9257734,67.1919402 Z M102.330715,69.2910769 L103.18195,69.815861 C103.652074,70.1056913 104.268139,69.9595342 104.55797,69.4894099 C104.8478,69.0192856 104.701643,68.4032207 104.231518,68.1133904 L103.380283,67.5886062 C102.910159,67.2987759 102.294094,67.4449331 102.004264,67.9150574 C101.714433,68.3851817 101.86059,69.0012466 102.330715,69.2910769 Z M105.735656,71.3902135 L106.586891,71.9149977 C107.057016,72.204828 107.673081,72.0586708 107.962911,71.5885465 C108.252741,71.1184222 108.106584,70.5023573 107.63646,70.212527 L106.785224,69.6877429 C106.3151,69.3979126 105.699035,69.5440697 105.409205,70.014194 C105.119375,70.4843183 105.265532,71.1003832 105.735656,71.3902135 Z M109.140597,73.4893502 L109.991833,74.0141343 C110.461957,74.3039646 111.078022,74.1578074 111.367852,73.6876831 C111.657682,73.2175589 111.511525,72.6014939 111.041401,72.3116637 L110.190166,71.7868795 C109.720041,71.4970492 109.103976,71.6432064 108.814146,72.1133307 C108.524316,72.583455 108.670473,73.1995199 109.140597,73.4893502 Z M112.545539,75.5884868 L113.396774,76.113271 C113.866898,76.4031012 114.482963,76.2569441 114.772793,75.7868198 C115.062624,75.3166955 114.916467,74.7006306 114.446342,74.4108003 L113.595107,73.8860161 C113.124983,73.5961859 112.508918,73.742343 112.219087,74.2124673 C111.929257,74.6825916 112.075414,75.2986565 112.545539,75.5884868 Z" id="Path-12" fill="#BEC2CE" fill-rule="nonzero"></path>
                    <path d="M46.9983492,87.2040806 L47.0557843,86.2057314 C47.0875049,85.6543583 46.6662433,85.1816676 46.1148702,85.1499471 C45.5634971,85.1182265 45.0908064,85.5394881 45.0590859,86.0908612 L45.0016508,87.0892104 C44.9699302,87.6405835 45.3911918,88.1132743 45.9425649,88.1449948 C46.493938,88.1767153 46.9666287,87.7554537 46.9983492,87.2040806 Z M47.2280896,83.2106837 L47.2855247,82.2123344 C47.3172453,81.6609614 46.8959837,81.1882706 46.3446106,81.1565501 C45.7932375,81.1248296 45.3205468,81.5460912 45.2888263,82.0974642 L45.2313912,83.0958135 C45.1996706,83.6471865 45.6209322,84.1198773 46.1723053,84.1515978 C46.7236784,84.1833183 47.1963691,83.7620567 47.2280896,83.2106837 Z M47.45783,79.2172867 L47.5152651,78.2189375 C47.5469857,77.6675644 47.125724,77.1948736 46.574351,77.1631531 C46.0229779,77.1314326 45.5502872,77.5526942 45.5185666,78.1040673 L45.4611315,79.1024165 C45.429411,79.6537896 45.8506726,80.1264803 46.4020457,80.1582008 C46.9534188,80.1899214 47.4261095,79.7686598 47.45783,79.2172867 Z M47.6875704,75.2238897 L47.7450055,74.2255405 C47.7767261,73.6741674 47.3554644,73.2014767 46.8040914,73.1697562 C46.2527183,73.1380356 45.7800276,73.5592972 45.748307,74.1106703 L45.6908719,75.1090195 C45.6591514,75.6603926 46.080413,76.1330833 46.6317861,76.1648039 C47.1831591,76.1965244 47.6558499,75.7752628 47.6875704,75.2238897 Z M47.9173108,71.2304928 L47.9747459,70.2321435 C48.0064664,69.6807705 47.5852048,69.2080797 47.0338318,69.1763592 C46.4824587,69.1446387 46.009768,69.5659003 45.9780474,70.1172733 L45.9206123,71.1156226 C45.8888918,71.6669956 46.3101534,72.1396864 46.8615265,72.1714069 C47.4128995,72.2031274 47.8855903,71.7818658 47.9173108,71.2304928 Z M48.1470512,67.2370958 L48.2044863,66.2387466 C48.2362068,65.6873735 47.8149452,65.2146827 47.2635722,65.1829622 C46.7121991,65.1512417 46.2395084,65.5725033 46.2077878,66.1238764 L46.1503527,67.1222256 C46.1186322,67.6735987 46.5398938,68.1462894 47.0912669,68.1780099 C47.6426399,68.2097305 48.1153307,67.7884689 48.1470512,67.2370958 Z M48.3767916,63.2436988 L48.4342267,62.2453496 C48.4659472,61.6939765 48.0446856,61.2212858 47.4933126,61.1895652 C46.9419395,61.1578447 46.4692488,61.5791063 46.4375282,62.1304794 L46.3800931,63.1288286 C46.3483726,63.6802017 46.7696342,64.1528924 47.3210073,64.184613 C47.8723803,64.2163335 48.3450711,63.7950719 48.3767916,63.2436988 Z M48.606532,59.2503019 L48.6639671,58.2519526 C48.6956876,57.7005796 48.274426,57.2278888 47.723053,57.1961683 C47.1716799,57.1644477 46.6989891,57.5857094 46.6672686,58.1370824 L46.6098335,59.1354317 C46.578113,59.6868047 46.9993746,60.1594955 47.5507477,60.191216 C48.1021207,60.2229365 48.5748115,59.8016749 48.606532,59.2503019 Z M48.8362724,55.2569049 L48.8937075,54.2585556 C48.925428,53.7071826 48.5041664,53.2344918 47.9527934,53.2027713 C47.4014203,53.1710508 46.9287295,53.5923124 46.897009,54.1436854 L46.8395739,55.1420347 C46.8078534,55.6934078 47.229115,56.1660985 47.7804881,56.197819 C48.3318611,56.2295396 48.8045519,55.808278 48.8362724,55.2569049 Z M49.0660128,51.2635079 L49.1234479,50.2651587 C49.1551684,49.7137856 48.7339068,49.2410949 48.1825337,49.2093743 C47.6311607,49.1776538 47.1584699,49.5989154 47.1267494,50.1502885 L47.0693143,51.1486377 C47.0375938,51.7000108 47.4588554,52.1727015 48.0102284,52.2044221 C48.5616015,52.2361426 49.0342923,51.814881 49.0660128,51.2635079 Z M49.2957532,47.270111 L49.3531883,46.2717617 C49.3849088,45.7203886 48.9636472,45.2476979 48.4122741,45.2159774 C47.8609011,45.1842568 47.3882103,45.6055185 47.3564898,46.1568915 L47.2990547,47.1552408 C47.2673342,47.7066138 47.6885958,48.1793046 48.2399688,48.2110251 C48.7913419,48.2427456 49.2640327,47.821484 49.2957532,47.270111 Z M49.5254936,43.276714 L49.5829287,42.2783647 C49.6146492,41.7269917 49.1933876,41.2543009 48.6420145,41.2225804 C48.0906415,41.1908599 47.6179507,41.6121215 47.5862302,42.1634945 L47.5287951,43.1618438 C47.4970746,43.7132168 47.9183362,44.1859076 48.4697092,44.2176281 C49.0210823,44.2493487 49.4937731,43.828087 49.5254936,43.276714 Z M49.755234,39.283317 L49.8126691,38.2849678 C49.8443896,37.7335947 49.423128,37.260904 48.8717549,37.2291834 C48.3203819,37.1974629 47.8476911,37.6187245 47.8159706,38.1700976 L47.7585355,39.1684468 C47.726815,39.7198199 48.1480766,40.1925106 48.6994496,40.2242312 C49.2508227,40.2559517 49.7235134,39.8346901 49.755234,39.283317 Z M49.9849744,35.28992 L50.0424095,34.2915708 C50.07413,33.7401977 49.6528684,33.267507 49.1014953,33.2357865 C48.5501223,33.2040659 48.0774315,33.6253275 48.045711,34.1767006 L47.9882759,35.1750498 C47.9565554,35.7264229 48.377817,36.1991137 48.92919,36.2308342 C49.4805631,36.2625547 49.9532538,35.8412931 49.9849744,35.28992 Z M48.702672,38.886241 L48.8847613,39.869523 C48.9853264,40.4125747 49.5070809,40.7712809 50.0501326,40.6707158 C50.5931842,40.5701507 50.9518904,40.0483962 50.8513253,39.5053445 L50.669236,38.5220625 C50.5686709,37.9790109 50.0469164,37.6203046 49.5038648,37.7208698 C48.9608131,37.8214349 48.6021069,38.3431894 48.702672,38.886241 Z M49.4310291,42.8193691 L49.6131183,43.8026511 C49.7136834,44.3457027 50.2354379,44.7044089 50.7784896,44.6038438 C51.3215412,44.5032787 51.6802475,43.9815242 51.5796823,43.4384725 L51.3975931,42.4551905 C51.297028,41.9121389 50.7752735,41.5534327 50.2322218,41.6539978 C49.6891702,41.7545629 49.3304639,42.2763174 49.4310291,42.8193691 Z M50.1593861,46.7524971 L50.3414754,47.7357791 C50.4420405,48.2788307 50.963795,48.6375369 51.5068466,48.5369718 C52.0498983,48.4364067 52.4086045,47.9146522 52.3080394,47.3716006 L52.1259501,46.3883186 C52.025385,45.8452669 51.5036305,45.4865607 50.9605789,45.5871258 C50.4175272,45.6876909 50.058821,46.2094454 50.1593861,46.7524971 Z M50.8877431,50.6856251 L51.0698324,51.6689071 C51.1703975,52.2119588 51.692152,52.570665 52.2352037,52.4700998 C52.7782553,52.3695347 53.1369615,51.8477802 53.0363964,51.3047286 L52.8543072,50.3214466 C52.753742,49.7783949 52.2319876,49.4196887 51.6889359,49.5202538 C51.1458842,49.6208189 50.787178,50.1425734 50.8877431,50.6856251 Z M51.6161002,54.6187531 L51.7981894,55.6020351 C51.8987546,56.1450868 52.4205091,56.503793 52.9635607,56.4032279 C53.5066124,56.3026627 53.8653186,55.7809083 53.7647535,55.2378566 L53.5826642,54.2545746 C53.4820991,53.7115229 52.9603446,53.3528167 52.4172929,53.4533818 C51.8742413,53.553947 51.5155351,54.0757015 51.6161002,54.6187531 Z M52.3444572,58.5518811 L52.5265465,59.5351631 C52.6271116,60.0782148 53.1488661,60.436921 53.6919178,60.3363559 C54.2349694,60.2357908 54.5936756,59.7140363 54.4931105,59.1709846 L54.3110212,58.1877026 C54.2104561,57.644651 53.6887016,57.2859447 53.14565,57.3865099 C52.6025983,57.487075 52.2438921,58.0088295 52.3444572,58.5518811 Z M53.0728143,62.4850092 L53.2549035,63.4682912 C53.3554687,64.0113428 53.8772231,64.370049 54.4202748,64.2694839 C54.9633265,64.1689188 55.3220327,63.6471643 55.2214675,63.1041126 L55.0393783,62.1208306 C54.9388132,61.577779 54.4170587,61.2190728 53.874007,61.3196379 C53.3309554,61.420203 52.9722491,61.9419575 53.0728143,62.4850092 Z M53.8011713,66.4181372 L53.9832606,67.4014192 C54.0838257,67.9444708 54.6055802,68.303177 55.1486318,68.2026119 C55.6916835,68.1020468 56.0503897,67.5802923 55.9498246,67.0372407 L55.7677353,66.0539587 C55.6671702,65.510907 55.1454157,65.1522008 54.6023641,65.2527659 C54.0593124,65.353331 53.7006062,65.8750855 53.8011713,66.4181372 Z M54.5295284,70.3512652 L54.7116176,71.3345472 C54.8121827,71.8775989 55.3339372,72.2363051 55.8769889,72.1357399 C56.4200405,72.0351748 56.7787467,71.5134203 56.6781816,70.9703687 L56.4960924,69.9870867 C56.3955272,69.444035 55.8737728,69.0853288 55.3307211,69.1858939 C54.7876694,69.286459 54.4289632,69.8082135 54.5295284,70.3512652 Z M55.2578854,74.2843932 L55.4399747,75.2676752 C55.5405398,75.8107269 56.0622943,76.1694331 56.6053459,76.068868 C57.1483976,75.9683028 57.5071038,75.4465484 57.4065387,74.9034967 L57.2244494,73.9202147 C57.1238843,73.377163 56.6021298,73.0184568 56.0590781,73.1190219 C55.5160265,73.2195871 55.1573203,73.7413416 55.2578854,74.2843932 Z M55.9862424,78.2175212 L56.1683317,79.2008032 C56.2688968,79.7438549 56.7906513,80.1025611 57.333703,80.001996 C57.8767546,79.9014309 58.2354608,79.3796764 58.1348957,78.8366247 L57.9528064,77.8533427 C57.8522413,77.3102911 57.3304868,76.9515848 56.7874352,77.05215 C56.2443835,77.1527151 55.8856773,77.6744696 55.9862424,78.2175212 Z M56.7145995,82.1506493 L56.8966887,83.1339313 C56.9972539,83.6769829 57.5190083,84.0356891 58.06206,83.935124 C58.6051117,83.8345589 58.9638179,83.3128044 58.8632527,82.7697527 L58.6811635,81.7864707 C58.5805984,81.2434191 58.0588439,80.8847129 57.5157922,80.985278 C56.9727406,81.0858431 56.6140344,81.6075976 56.7145995,82.1506493 Z M57.4429565,86.0837773 L57.6250458,87.0670593 C57.7256109,87.6101109 58.2473654,87.9688171 58.790417,87.868252 C59.3334687,87.7676869 59.6921749,87.2459324 59.5916098,86.7028808 L59.4095205,85.7195988 C59.3089554,85.1765471 58.7872009,84.8178409 58.2441493,84.918406 C57.7010976,85.0189711 57.3423914,85.5407256 57.4429565,86.0837773 Z M58.1713136,90.0169053 L58.3534028,91.0001873 C58.4539679,91.543239 58.9757224,91.9019452 59.5187741,91.80138 C60.0618257,91.7008149 60.4205319,91.1790604 60.3199668,90.6360088 L60.1378776,89.6527268 C60.0373124,89.1096751 59.515558,88.7509689 58.9725063,88.851534 C58.4294546,88.9520991 58.0707484,89.4738536 58.1713136,90.0169053 Z M58.8996706,93.9500333 L59.0817599,94.9333153 C59.182325,95.476367 59.7040795,95.8350732 60.2471311,95.7345081 C60.7901828,95.6339429 61.148889,95.1121885 61.0483239,94.5691368 L60.8662346,93.5858548 C60.7656695,93.0428031 60.243915,92.6840969 59.7008633,92.784662 C59.1578117,92.8852272 58.7991055,93.4069817 58.8996706,93.9500333 Z M59.6280276,97.8831613 L59.8101169,98.8664433 C59.910682,99.409495 60.4324365,99.7682012 60.9754882,99.6676361 C61.5185398,99.567071 61.877246,99.0453165 61.7766809,98.5022648 L61.5945916,97.5189828 C61.4940265,96.9759312 60.972272,96.6172249 60.4292204,96.7177901 C59.8861687,96.8183552 59.5274625,97.3401097 59.6280276,97.8831613 Z M60.3563847,101.816289 L60.5384739,102.799571 C60.6390391,103.342623 61.1607935,103.701329 61.7038452,103.600764 C62.2468969,103.500199 62.6056031,102.978444 62.5050379,102.435393 L62.3229487,101.452111 C62.2223836,100.909059 61.7006291,100.550353 61.1575774,100.650918 C60.6145258,100.751483 60.2558196,101.273238 60.3563847,101.816289 Z M61.0847417,105.749417 L61.266831,106.732699 C61.3673961,107.275751 61.8891506,107.634457 62.4322022,107.533892 C62.9752539,107.433327 63.3339601,106.911573 63.233395,106.368521 L63.0513057,105.385239 C62.9507406,104.842187 62.4289861,104.483481 61.8859345,104.584046 C61.3428828,104.684611 60.9841766,105.206366 61.0847417,105.749417 Z M61.8130988,109.682545 L61.995188,110.665827 C62.0957531,111.208879 62.6175076,111.567585 63.1605593,111.46702 C63.7036109,111.366455 64.0623172,110.844701 63.961752,110.301649 L63.7796628,109.318367 C63.6790976,108.775315 63.1573432,108.416609 62.6142915,108.517174 C62.0712398,108.617739 61.7125336,109.139494 61.8130988,109.682545 Z M62.5414558,113.615673 L62.7235451,114.598955 C62.8241102,115.142007 63.3458647,115.500713 63.8889163,115.400148 C64.431968,115.299583 64.7906742,114.777829 64.6901091,114.234777 L64.5080198,113.251495 C64.4074547,112.708443 63.8857002,112.349737 63.3426485,112.450302 C62.7995969,112.550867 62.4408907,113.072622 62.5414558,113.615673 Z M63.2698128,117.548801 L63.4519021,118.532083 C63.5524672,119.075135 64.0742217,119.433841 64.6172734,119.333276 C65.160325,119.232711 65.5190312,118.710957 65.4184661,118.167905 L65.2363769,117.184623 C65.1358117,116.641571 64.6140572,116.282865 64.0710056,116.38343 C63.5279539,116.483995 63.1692477,117.00575 63.2698128,117.548801 Z M63.9981699,121.481929 L64.1802591,122.465211 C64.2808243,123.008263 64.8025788,123.366969 65.3456304,123.266404 C65.8886821,123.165839 66.2473883,122.644085 66.1468232,122.101033 L65.9647339,121.117751 C65.8641688,120.574699 65.3424143,120.215993 64.7993626,120.316558 C64.256311,120.417123 63.8976048,120.938878 63.9981699,121.481929 Z M64.7265269,125.415057 L64.9086162,126.398339 C65.0091813,126.941391 65.5309358,127.300097 66.0739874,127.199532 C66.6170391,127.098967 66.9757453,126.577213 66.8751802,126.034161 L66.6930909,125.050879 C66.5925258,124.507827 66.0707713,124.149121 65.5277197,124.249686 C64.984668,124.350251 64.6259618,124.872006 64.7265269,125.415057 Z M65.454884,129.348185 L65.6369732,130.331467 C65.7375383,130.874519 66.2592928,131.233225 66.8023445,131.13266 C67.3453961,131.032095 67.7041024,130.510341 67.6035372,129.967289 L67.421448,128.984007 C67.3208829,128.440955 66.7991284,128.082249 66.2560767,128.182814 C65.7130251,128.283379 65.3543188,128.805134 65.454884,129.348185 Z M67.9912445,126.010751 L68.1280163,125.020149 C68.2035532,124.473054 67.8212802,123.968311 67.2741854,123.892774 C66.7270907,123.817237 66.2223481,124.19951 66.1468111,124.746605 L66.0100394,125.737208 C65.9345024,126.284302 66.3167755,126.789045 66.8638702,126.864582 C67.4109649,126.940119 67.9157076,126.557846 67.9912445,126.010751 Z M68.5383315,122.048341 L68.6751033,121.057738 C68.7506402,120.510643 68.3683672,120.005901 67.8212725,119.930364 C67.2741778,119.854827 66.7694351,120.2371 66.6938981,120.784195 L66.5571264,121.774797 C66.4815894,122.321892 66.8638625,122.826635 67.4109572,122.902172 C67.9580519,122.977709 68.4627946,122.595435 68.5383315,122.048341 Z M69.0854186,118.08593 L69.2221903,117.095328 C69.2977273,116.548233 68.9154542,116.04349 68.3683595,115.967953 C67.8212648,115.892417 67.3165221,116.27469 67.2409851,116.821784 L67.1042134,117.812387 C67.0286764,118.359482 67.4109495,118.864224 67.9580442,118.939761 C68.5051389,119.015298 69.0098816,118.633025 69.0854186,118.08593 Z M69.6325056,114.12352 L69.7692773,113.132917 C69.8448143,112.585823 69.4625412,112.08108 68.9154465,112.005543 C68.3683518,111.930006 67.8636091,112.312279 67.7880721,112.859374 L67.6513004,113.849977 C67.5757634,114.397071 67.9580365,114.901814 68.5051312,114.977351 C69.0522259,115.052888 69.5569686,114.670615 69.6325056,114.12352 Z M70.1795926,110.16111 L70.3163643,109.170507 C70.3919013,108.623412 70.0096282,108.11867 69.4625335,108.043133 C68.9154388,107.967596 68.4106961,108.349869 68.3351592,108.896964 L68.1983874,109.887566 C68.1228505,110.434661 68.5051235,110.939404 69.0522182,111.014941 C69.5993129,111.090477 70.1040556,110.708204 70.1795926,110.16111 Z M70.7266796,106.198699 L70.8634514,105.208097 C70.9389883,104.661002 70.5567152,104.156259 70.0096205,104.080722 C69.4625258,104.005185 68.9577831,104.387459 68.8822462,104.934553 L68.7454744,105.925156 C68.6699375,106.472251 69.0522106,106.976993 69.5993053,107.05253 C70.1464,107.128067 70.6511426,106.745794 70.7266796,106.198699 Z M71.2737666,102.236289 L71.4105384,101.245686 C71.4860753,100.698592 71.1038022,100.193849 70.5567075,100.118312 C70.0096128,100.042775 69.5048701,100.425048 69.4293332,100.972143 L69.2925614,101.962745 C69.2170245,102.50984 69.5992976,103.014583 70.1463923,103.09012 C70.693487,103.165657 71.1982297,102.783384 71.2737666,102.236289 Z M71.8208536,98.2738786 L71.9576254,97.283276 C72.0331623,96.7361813 71.6508892,96.2314387 71.1037945,96.1559017 C70.5566998,96.0803648 70.0519572,96.4626378 69.9764202,97.0097325 L69.8396484,98.0003351 C69.7641115,98.5474298 70.1463846,99.0521725 70.6934793,99.1277095 C71.240574,99.2032464 71.7453167,98.8209733 71.8208536,98.2738786 Z M72.3679406,94.3114683 L72.5047124,93.3208657 C72.5802493,92.773771 72.1979763,92.2690283 71.6508816,92.1934914 C71.1037869,92.1179544 70.5990442,92.5002275 70.5235072,93.0473222 L70.3867355,94.0379248 C70.3111985,94.5850195 70.6934716,95.0897622 71.2405663,95.1652991 C71.787661,95.2408361 72.2924037,94.858563 72.3679406,94.3114683 Z M72.9150277,90.3490579 L73.0517994,89.3584553 C73.1273364,88.8113606 72.7450633,88.306618 72.1979686,88.231081 C71.6508739,88.155544 71.1461312,88.5378171 71.0705942,89.0849118 L70.9338225,90.0755144 C70.8582855,90.6226091 71.2405586,91.1273518 71.7876533,91.2028888 C72.334748,91.2784257 72.8394907,90.8961526 72.9150277,90.3490579 Z M73.4621147,86.3866476 L73.5988864,85.396045 C73.6744234,84.8489503 73.2921503,84.3442076 72.7450556,84.2686706 C72.1979609,84.1931337 71.6932182,84.5754068 71.6176812,85.1225015 L71.4809095,86.1131041 C71.4053725,86.6601988 71.7876456,87.1649415 72.3347403,87.2404784 C72.881835,87.3160154 73.3865777,86.9337423 73.4621147,86.3866476 Z M74.0092017,82.4242372 L74.1459734,81.4336346 C74.2215104,80.8865399 73.8392373,80.3817973 73.2921426,80.3062603 C72.7450479,80.2307233 72.2403052,80.6129964 72.1647683,81.1600911 L72.0279965,82.1506937 C71.9524595,82.6977884 72.3347326,83.2025311 72.8818273,83.2780681 C73.428922,83.353605 73.9336647,82.9713319 74.0092017,82.4242372 Z M74.5562887,78.4618269 L74.6930604,77.4712243 C74.7685974,76.9241296 74.3863243,76.4193869 73.8392296,76.3438499 C73.2921349,76.268313 72.7873922,76.6505861 72.7118553,77.1976808 L72.5750835,78.1882834 C72.4995466,78.7353781 72.8818196,79.2401208 73.4289144,79.3156577 C73.9760091,79.3911947 74.4807517,79.0089216 74.5562887,78.4618269 Z M75.1033757,74.4994165 L75.2401475,73.5088139 C75.3156844,72.9617192 74.9334113,72.4569765 74.3863166,72.3814396 C73.8392219,72.3059026 73.3344792,72.6881757 73.2589423,73.2352704 L73.1221705,74.225873 C73.0466336,74.7729677 73.4289067,75.2777104 73.9760014,75.3532474 C74.5230961,75.4287843 75.0278388,75.0465112 75.1033757,74.4994165 Z M75.6504627,70.5370062 L75.7872345,69.5464036 C75.8627714,68.9993089 75.4804983,68.4945662 74.9334036,68.4190292 C74.3863089,68.3434923 73.8815663,68.7257654 73.8060293,69.2728601 L73.6692575,70.2634627 C73.5937206,70.8105574 73.9759937,71.3153001 74.5230884,71.390837 C75.0701831,71.466374 75.5749258,71.0841009 75.6504627,70.5370062 Z M76.1975497,66.5745958 L76.3343215,65.5839932 C76.4098584,65.0368985 76.0275854,64.5321558 75.4804907,64.4566189 C74.9333959,64.3810819 74.4286533,64.763355 74.3531163,65.3104497 L74.2163446,66.3010523 C74.1408076,66.848147 74.5230807,67.3528897 75.0701754,67.4284267 C75.6172701,67.5039636 76.1220128,67.1216905 76.1975497,66.5745958 Z M76.7446367,62.6121855 L76.8814085,61.6215829 C76.9569455,61.0744882 76.5746724,60.5697455 76.0275777,60.4942085 C75.480483,60.4186716 74.9757403,60.8009447 74.9002033,61.3480394 L74.7634316,62.338642 C74.6878946,62.8857367 75.0701677,63.3904793 75.6172624,63.4660163 C76.1643571,63.5415533 76.6690998,63.1592802 76.7446367,62.6121855 Z M77.2917238,58.6497751 L77.4284955,57.6591725 C77.5040325,57.1120778 77.1217594,56.6073351 76.5746647,56.5317982 C76.02757,56.4562612 75.5228273,56.8385343 75.4472903,57.385629 L75.3105186,58.3762316 C75.2349816,58.9233263 75.6172547,59.428069 76.1643494,59.5036059 C76.7114441,59.5791429 77.2161868,59.1968698 77.2917238,58.6497751 Z M77.8388108,54.6873648 L77.9755825,53.6967622 C78.0511195,53.1496675 77.6688464,52.6449248 77.1217517,52.5693878 C76.574657,52.4938509 76.0699143,52.876124 75.9943774,53.4232187 L75.8576056,54.4138213 C75.7820686,54.960916 76.1643417,55.4656586 76.7114364,55.5411956 C77.2585311,55.6167325 77.7632738,55.2344595 77.8388108,54.6873648 Z M75.2452289,53.354268 L74.6619062,54.1665085 C74.339746,54.6150965 74.442236,55.2399115 74.8908241,55.5620717 C75.3394121,55.8842319 75.964227,55.7817419 76.2863873,55.3331538 L76.8697099,54.5209133 C77.1918701,54.0723253 77.0893801,53.4475103 76.6407921,53.1253501 C76.192204,52.8031899 75.5673891,52.9056799 75.2452289,53.354268 Z M72.9119382,56.6032301 L72.3286155,57.4154706 C72.0064553,57.8640586 72.1089453,58.4888736 72.5575334,58.8110338 C73.0061215,59.133194 73.6309364,59.030704 73.9530966,58.5821159 L74.5364193,57.7698754 C74.8585795,57.3212873 74.7560895,56.6964724 74.3075014,56.3743122 C73.8589134,56.052152 73.2340984,56.154642 72.9119382,56.6032301 Z M70.5786475,59.8521921 L69.9953249,60.6644327 C69.6731647,61.1130207 69.7756547,61.7378356 70.2242427,62.0599959 C70.6728308,62.3821561 71.2976457,62.2796661 71.6198059,61.831078 L72.2031286,61.0188375 C72.5252888,60.5702494 72.4227988,59.9454345 71.9742107,59.6232743 C71.5256227,59.3011141 70.9008078,59.4036041 70.5786475,59.8521921 Z M68.2453569,63.1011542 L67.6620342,63.9133948 C67.339874,64.3619828 67.442364,64.9867977 67.8909521,65.3089579 C68.3395401,65.6311182 68.964355,65.5286281 69.2865152,65.0800401 L69.8698379,64.2677996 C70.1919981,63.8192115 70.0895081,63.1943966 69.6409201,62.8722364 C69.192332,62.5500762 68.5675171,62.6525662 68.2453569,63.1011542 Z M65.9120662,66.3501163 L65.3287435,67.1623568 C65.0065833,67.6109449 65.1090733,68.2357598 65.5576614,68.55792 C66.0062494,68.8800802 66.6310644,68.7775902 66.9532246,68.3290022 L67.5365472,67.5167617 C67.8587075,67.0681736 67.7562174,66.4433587 67.3076294,66.1211985 C66.8590413,65.7990382 66.2342264,65.9015283 65.9120662,66.3501163 Z M63.5787755,69.5990784 L62.9954529,70.4113189 C62.6732926,70.859907 62.7757827,71.4847219 63.2243707,71.8068821 C63.6729588,72.1290423 64.2977737,72.0265523 64.6199339,71.5779643 L65.2032566,70.7657237 C65.5254168,70.3171357 65.4229268,69.6923208 64.9743387,69.3701605 C64.5257507,69.0480003 63.9009357,69.1504903 63.5787755,69.5990784 Z M61.2454849,72.8480405 L60.6621622,73.660281 C60.340002,74.1088691 60.442492,74.733684 60.89108,75.0558442 C61.3396681,75.3780044 61.964483,75.2755144 62.2866432,74.8269263 L62.8699659,74.0146858 C63.1921261,73.5660978 63.0896361,72.9412828 62.641048,72.6191226 C62.19246,72.2969624 61.5676451,72.3994524 61.2454849,72.8480405 Z M58.9121942,76.0970026 L58.3288715,76.9092431 C58.0067113,77.3578311 58.1092013,77.9826461 58.5577894,78.3048063 C59.0063774,78.6269665 59.6311923,78.5244765 59.9533526,78.0758884 L60.5366752,77.2636479 C60.8588354,76.8150599 60.7563454,76.1902449 60.3077574,75.8680847 C59.8591693,75.5459245 59.2343544,75.6484145 58.9121942,76.0970026 Z M56.5789035,79.3459647 L55.9955808,80.1582052 C55.6734206,80.6067932 55.7759106,81.2316082 56.2244987,81.5537684 C56.6730867,81.8759286 57.2979017,81.7734386 57.6200619,81.3248505 L58.2033845,80.51261 C58.5255448,80.0640219 58.4230547,79.439207 57.9744667,79.1170468 C57.5258786,78.7948866 56.9010637,78.8973766 56.5789035,79.3459647 Z M54.2456128,82.5949267 L53.6622902,83.4071673 C53.3401299,83.8557553 53.44262,84.4805702 53.891208,84.8027305 C54.3397961,85.1248907 54.964611,85.0224007 55.2867712,84.5738126 L55.8700939,83.7615721 C56.1922541,83.312984 56.0897641,82.6881691 55.641176,82.3660089 C55.192588,82.0438487 54.567773,82.1463387 54.2456128,82.5949267 Z M51.9123222,85.8438888 L51.3289995,86.6561294 C51.0068393,87.1047174 51.1093293,87.7295323 51.5579173,88.0516925 C52.0065054,88.3738528 52.6313203,88.2713627 52.9534805,87.8227747 L53.5368032,87.0105342 C53.8589634,86.5619461 53.7564734,85.9371312 53.3078853,85.614971 C52.8592973,85.2928108 52.2344824,85.3953008 51.9123222,85.8438888 Z M49.5790315,89.0928509 L48.9957088,89.9050914 C48.6735486,90.3536795 48.7760386,90.9784944 49.2246267,91.3006546 C49.6732147,91.6228148 50.2980296,91.5203248 50.6201899,91.0717368 L51.2035125,90.2594963 C51.5256727,89.8109082 51.4231827,89.1860933 50.9745947,88.8639331 C50.5260066,88.5417729 49.9011917,88.6442629 49.5790315,89.0928509 Z M47.2457408,92.341813 L46.6624181,93.1540535 C46.3402579,93.6026416 46.4427479,94.2274565 46.891336,94.5496167 C47.3399241,94.8717769 47.964739,94.7692869 48.2868992,94.3206989 L48.8702219,93.5084583 C49.1923821,93.0598703 49.0898921,92.4350554 48.641304,92.1128952 C48.1927159,91.7907349 47.567901,91.893225 47.2457408,92.341813 Z M44.9124501,95.5907751 L44.3291275,96.4030156 C44.0069673,96.8516037 44.1094573,97.4764186 44.5580453,97.7985788 C45.0066334,98.120739 45.6314483,98.018249 45.9536085,97.5696609 L46.5369312,96.7574204 C46.8590914,96.3088324 46.7566014,95.6840175 46.3080133,95.3618572 C45.8594253,95.039697 45.2346104,95.142187 44.9124501,95.5907751 Z M42.5791595,98.8397372 L41.9958368,99.6519777 C41.6736766,100.100566 41.7761666,100.725381 42.2247547,101.047541 C42.6733427,101.369701 43.2981576,101.267211 43.6203178,100.818623 L44.2036405,100.006383 C44.5258007,99.5577945 44.4233107,98.9329795 43.9747227,98.6108193 C43.5261346,98.2886591 42.9013197,98.3911491 42.5791595,98.8397372 Z M40.2458688,102.088699 L39.6625461,102.90094 C39.3403859,103.349528 39.4428759,103.974343 39.891464,104.296503 C40.340052,104.618663 40.964867,104.516173 41.2870272,104.067585 L41.8703498,103.255345 C42.1925101,102.806757 42.09002,102.181942 41.641432,101.859781 C41.1928439,101.537621 40.568029,101.640111 40.2458688,102.088699 Z M37.9125781,105.337661 L37.3292555,106.149902 C37.0070952,106.59849 37.1095853,107.223305 37.5581733,107.545465 C38.0067614,107.867625 38.6315763,107.765135 38.9537365,107.316547 L39.5370592,106.504307 C39.8592194,106.055719 39.7567294,105.430904 39.3081413,105.108743 C38.8595533,104.786583 38.2347383,104.889073 37.9125781,105.337661 Z M35.5792874,108.586623 L34.9959648,109.398864 C34.6738046,109.847452 34.7762946,110.472267 35.2248826,110.794427 C35.6734707,111.116587 36.2982856,111.014097 36.6204458,110.565509 L37.2037685,109.753269 C37.5259287,109.304681 37.4234387,108.679866 36.9748506,108.357706 C36.5262626,108.035545 35.9014477,108.138035 35.5792874,108.586623 Z M33.2459968,111.835586 L32.6626741,112.647826 C32.3405139,113.096414 32.4430039,113.721229 32.891592,114.043389 C33.34018,114.365549 33.9649949,114.263059 34.2871552,113.814471 L34.8704778,113.002231 C35.192638,112.553643 35.090148,111.928828 34.64156,111.606668 C34.1929719,111.284507 33.568157,111.386997 33.2459968,111.835586 Z M37.9747729,111.857777 L38.8914215,111.458083 C39.3976726,111.237338 39.629121,110.647991 39.4083761,110.14174 C39.1876312,109.635489 38.5982846,109.404041 38.0920335,109.624786 L37.1753849,110.02448 C36.6691338,110.245225 36.4376854,110.834571 36.6584303,111.340822 C36.8791752,111.847073 37.4685218,112.078522 37.9747729,111.857777 Z M41.6413674,110.259001 L42.558016,109.859307 C43.0642671,109.638562 43.2957155,109.049215 43.0749706,108.542964 C42.8542257,108.036713 42.2648791,107.805265 41.758628,108.02601 L40.8419794,108.425704 C40.3357283,108.646449 40.1042799,109.235795 40.3250248,109.742046 C40.5457697,110.248297 41.1351163,110.479746 41.6413674,110.259001 Z M45.3079619,108.660225 L46.2246105,108.260531 C46.7308616,108.039786 46.96231,107.450439 46.7415651,106.944188 C46.5208202,106.437937 45.9314736,106.206489 45.4252225,106.427234 L44.5085739,106.826928 C44.0023228,107.047673 43.7708744,107.637019 43.9916193,108.14327 C44.2123642,108.649521 44.8017108,108.88097 45.3079619,108.660225 Z M48.9745564,107.061449 L49.891205,106.661755 C50.3974561,106.44101 50.6289046,105.851663 50.4081597,105.345412 C50.1874147,104.839161 49.5980681,104.607713 49.091817,104.828458 L48.1751684,105.228152 C47.6689173,105.448897 47.4374689,106.038243 47.6582138,106.544494 C47.8789587,107.050745 48.4683053,107.282194 48.9745564,107.061449 Z M52.6411509,105.462673 L53.5577995,105.062979 C54.0640506,104.842234 54.2954991,104.252887 54.0747542,103.746636 C53.8540093,103.240385 53.2646626,103.008937 52.7584115,103.229682 L51.8417629,103.629376 C51.3355118,103.850121 51.1040634,104.439467 51.3248083,104.945718 C51.5455532,105.451969 52.1348998,105.683418 52.6411509,105.462673 Z M56.3077454,103.863897 L57.224394,103.464203 C57.7306451,103.243458 57.9620936,102.654111 57.7413487,102.14786 C57.5206038,101.641609 56.9312571,101.410161 56.425006,101.630906 L55.5083574,102.0306 C55.0021064,102.251345 54.7706579,102.840691 54.9914028,103.346942 C55.2121477,103.853193 55.8014944,104.084642 56.3077454,103.863897 Z M59.9743399,102.265121 L60.8909885,101.865427 C61.3972396,101.644682 61.6286881,101.055335 61.4079432,100.549084 C61.1871983,100.042833 60.5978516,99.8113847 60.0916005,100.03213 L59.1749519,100.431824 C58.6687009,100.652569 58.4372524,101.241915 58.6579973,101.748166 C58.8787422,102.254417 59.4680889,102.485866 59.9743399,102.265121 Z M63.6409344,100.666345 L64.5575831,100.266651 C65.0638341,100.045906 65.2952826,99.4565593 65.0745377,98.9503082 C64.8537928,98.4440572 64.2644461,98.2126087 63.758195,98.4333536 L62.8415464,98.8330476 C62.3352954,99.0537925 62.1038469,99.6431392 62.3245918,100.14939 C62.5453367,100.655641 63.1346834,100.88709 63.6409344,100.666345 Z M67.3075289,99.0675689 L68.2241776,98.6678749 C68.7304286,98.44713 68.9618771,97.8577833 68.7411322,97.3515322 C68.5203873,96.8452812 67.9310406,96.6138327 67.4247896,96.8345776 L66.5081409,97.2342716 C66.0018899,97.4550165 65.7704414,98.0443632 65.9911863,98.5506142 C66.2119312,99.0568653 66.8012779,99.2883138 67.3075289,99.0675689 Z M70.9741234,97.4687929 L71.8907721,97.0690989 C72.3970231,96.8483539 72.6284716,96.2590073 72.4077267,95.7527562 C72.1869818,95.2465052 71.5976351,95.0150567 71.0913841,95.2358016 L70.1747354,95.6354956 C69.6684844,95.8562405 69.4370359,96.4455872 69.6577808,96.9518382 C69.8785257,97.4580893 70.4678724,97.6895378 70.9741234,97.4687929 Z M74.6407179,95.8700168 L75.5573666,95.4703228 C76.0636176,95.2495779 76.2950661,94.6602313 76.0743212,94.1539802 C75.8535763,93.6477292 75.2642296,93.4162807 74.7579786,93.6370256 L73.8413299,94.0367196 C73.3350789,94.2574645 73.1036304,94.8468112 73.3243753,95.3530622 C73.5451202,95.8593133 74.1344669,96.0907617 74.6407179,95.8700168 Z M78.3073124,94.2712408 L79.2239611,93.8715468 C79.7302121,93.6508019 79.9616606,93.0614553 79.7409157,92.5552042 C79.5201708,92.0489531 78.9308241,91.8175047 78.4245731,92.0382496 L77.5079244,92.4379436 C77.0016734,92.6586885 76.7702249,93.2480352 76.9909698,93.7542862 C77.2117147,94.2605373 77.8010614,94.4919857 78.3073124,94.2712408 Z M81.973907,92.6724648 L82.8905556,92.2727708 C83.3968066,92.0520259 83.6282551,91.4626792 83.4075102,90.9564282 C83.1867653,90.4501771 82.5974186,90.2187287 82.0911676,90.4394736 L81.1745189,90.8391676 C80.6682679,91.0599125 80.4368194,91.6492591 80.6575643,92.1555102 C80.8783092,92.6617613 81.4676559,92.8932097 81.973907,92.6724648 Z M85.6405015,91.0736888 L86.5571501,90.6739948 C87.0634011,90.4532499 87.2948496,89.8639032 87.0741047,89.3576522 C86.8533598,88.8514011 86.2640131,88.6199527 85.7577621,88.8406976 L84.8411135,89.2403916 C84.3348624,89.4611365 84.1034139,90.0504831 84.3241588,90.5567342 C84.5449037,91.0629852 85.1342504,91.2944337 85.6405015,91.0736888 Z M89.307096,89.4749128 L90.2237446,89.0752188 C90.7299956,88.8544739 90.9614441,88.2651272 90.7406992,87.7588762 C90.5199543,87.2526251 89.9306076,87.0211766 89.4243566,87.2419215 L88.507708,87.6416155 C88.0014569,87.8623605 87.7700084,88.4517071 87.9907533,88.9579582 C88.2114982,89.4642092 88.8008449,89.6956577 89.307096,89.4749128 Z M92.9736905,87.8761368 L93.8903391,87.4764428 C94.3965902,87.2556979 94.6280386,86.6663512 94.4072937,86.1601002 C94.1865488,85.6538491 93.5972021,85.4224006 93.0909511,85.6431455 L92.1743025,86.0428395 C91.6680514,86.2635844 91.4366029,86.8529311 91.6573478,87.3591822 C91.8780927,87.8654332 92.4674394,88.0968817 92.9736905,87.8761368 Z M96.640285,86.2773608 L97.5569336,85.8776668 C98.0631847,85.6569219 98.2946331,85.0675752 98.0738882,84.5613242 C97.8531433,84.0550731 97.2637967,83.8236246 96.7575456,84.0443695 L95.840897,84.4440635 C95.3346459,84.6648084 95.1031974,85.2541551 95.3239423,85.7604062 C95.5446872,86.2666572 96.1340339,86.4981057 96.640285,86.2773608 Z M100.306879,84.6785848 L101.223528,84.2788908 C101.729779,84.0581459 101.961228,83.4687992 101.740483,82.9625481 C101.519738,82.4562971 100.930391,82.2248486 100.42414,82.4455935 L99.5074915,82.8452875 C99.0012404,83.0660324 98.769792,83.6553791 98.9905369,84.1616301 C99.2112818,84.6678812 99.8006284,84.8993297 100.306879,84.6785848 Z M103.973474,83.0798088 L104.890123,82.6801148 C105.396374,82.4593699 105.627822,81.8700232 105.407077,81.3637721 C105.186332,80.8575211 104.596986,80.6260726 104.090735,80.8468175 L103.174086,81.2465115 C102.667835,81.4672564 102.436386,82.0566031 102.657131,82.5628541 C102.877876,83.0691052 103.467223,83.3005537 103.973474,83.0798088 Z M107.640068,81.4810328 L108.556717,81.0813387 C109.062968,80.8605938 109.294417,80.2712472 109.073672,79.7649961 C108.852927,79.2587451 108.26358,79.0272966 107.757329,79.2480415 L106.84068,79.6477355 C106.334429,79.8684804 106.102981,80.4578271 106.323726,80.9640781 C106.544471,81.4703292 107.133817,81.7017777 107.640068,81.4810328 Z M111.306663,79.8822567 L112.223312,79.4825627 C112.729563,79.2618178 112.961011,78.6724712 112.740266,78.1662201 C112.519521,77.6599691 111.930175,77.4285206 111.423924,77.6492655 L110.507275,78.0489595 C110.001024,78.2697044 109.769575,78.8590511 109.99032,79.3653021 C110.211065,79.8715532 110.800412,80.1030016 111.306663,79.8822567 Z M114.973258,78.2834807 L115.889906,77.8837867 C116.396157,77.6630418 116.627606,77.0736952 116.406861,76.5674441 C116.186116,76.061193 115.596769,75.8297446 115.090518,76.0504895 L114.173869,76.4501835 C113.667618,76.6709284 113.43617,77.2602751 113.656915,77.7665261 C113.87766,78.2727772 114.467006,78.5042256 114.973258,78.2834807 Z" id="Path-13" fill="#BEC2CE" fill-rule="nonzero"></path>
                    <g id="Group-19" transform="translate(134.000000, 70.000000) rotate(20.000000) translate(-134.000000, -70.000000) translate(107.000000, 41.000000)">
                        <g id="Group-9" transform="translate(7.409042, 11.117349)">
                            <circle id="Oval-6" fill="url(#linearGradient-1)" cx="22.5146484" cy="22.5146484" r="22.5146484"></circle>
                            <circle id="Oval-7" fill="#303542" cx="25.375" cy="14.5" r="2.41666667"></circle>
                            <circle id="Oval-7" fill="#303542" cx="33.6735861" cy="9.53289618" r="2.41666667"></circle>
                            <path d="M36.7017209,21.1664441 C34.3470915,24.443133 31.6138104,26.0357059 28.4421082,26.0357059 C27.8898235,26.0357059 27.4421082,26.4834211 27.4421082,27.0357059 C27.4421082,27.5879906 27.8898235,28.0357059 28.4421082,28.0357059 C32.3015743,28.0357059 35.6160837,26.1044748 38.3258669,22.3335559 C38.6481559,21.8850603 38.5458453,21.260216 38.0973498,20.937927 C37.6488543,20.615638 37.0240099,20.7179486 36.7017209,21.1664441 Z" id="Line-3" fill="#303542" fill-rule="nonzero"></path>
                        </g>
                        <path d="M12.5132088,40.8492848 C16.468998,45.1681223 18.6171758,47.4015569 18.9577422,47.5495886 C20.1190227,48.0543545 21.7246015,46.3198655 21.1936686,44.6223614 C20.4289416,42.1773685 17.2791853,37.8188951 18.0616953,36.0173355 C19.37058,33.0039125 25.3645985,33.9773531 24.9049915,31.9999956 C24.049624,28.3199664 19.9784001,25.5087453 19.9784001,23.8809968 C19.9784001,18.5422442 23.3338742,16.4370702 25.9130718,13.6307437 C28.5612456,10.7493667 28.9823563,8.37342871 25.1491425,4.90762087 C22.4165448,2.43693728 18.497678,0.899148587 14.9864073,4.74890955 C12.5608206,7.40832546 13.247348,9.96523142 12.8326671,11.9622143 C11.6872566,17.4781796 6.62841453,19.3194476 7.31350367,27.4953366 C7.77022976,32.9459292 9.50346482,37.3972453 12.5132088,40.8492848 Z" id="Oval" fill="#303542" transform="translate(17.606666, 25.027584) rotate(20.000000) translate(-17.606666, -25.027584) "></path>
                    </g>
                    <polygon id="Path-14" fill="#303542" fill-rule="nonzero" points="7.5493864 25.7076409 88.7642301 105.016235 90.1615511 103.585328 8.94670735 24.2767341"></polygon>
                    <path d="M41.7897577,68.7800162 L77.4079218,21.753649 L79.0022345,22.9611948 L43.3840704,69.987562 L41.7897577,68.7800162 Z M43.3840704,69.987562 L41.7897577,68.7800162 L43.3840704,69.987562 Z" id="Path-15" fill="#303542" fill-rule="nonzero"></path>
                </g>
            </g>
        </g>
    </g>
</svg>