<?xml version="1.0" encoding="UTF-8"?>
<svg width="280px" height="170px" viewBox="0 0 280 170" version="1.1" xmlns="http://www.w3.org/2000/svg" xmlns:xlink="http://www.w3.org/1999/xlink">
    <!-- Generator: Sketch 55 (78076) - https://sketchapp.com -->
    <title>7@2x</title>
    <desc>Created with Sketch.</desc>
    <defs>
        <linearGradient x1="13.4451845%" y1="18.1313167%" x2="85.143683%" y2="80.6586413%" id="linearGradient-1">
            <stop stop-color="#FF7800" offset="0%"></stop>
            <stop stop-color="#FFAB2C" offset="100%"></stop>
        </linearGradient>
        <linearGradient x1="13.4451845%" y1="20.3534512%" x2="85.143683%" y2="78.5208804%" id="linearGradient-2">
            <stop stop-color="#FF7800" offset="0%"></stop>
            <stop stop-color="#FFAB2C" offset="100%"></stop>
        </linearGradient>
        <linearGradient x1="13.4451845%" y1="16.0190374%" x2="85.143683%" y2="82.6907181%" id="linearGradient-3">
            <stop stop-color="#FF7800" offset="0%"></stop>
            <stop stop-color="#FFAB2C" offset="100%"></stop>
        </linearGradient>
        <linearGradient x1="13.4451845%" y1="17.534724%" x2="85.143683%" y2="81.2325816%" id="linearGradient-4">
            <stop stop-color="#FF7800" offset="0%"></stop>
            <stop stop-color="#FFAB2C" offset="100%"></stop>
        </linearGradient>
        <linearGradient x1="13.4451845%" y1="15.2998835%" x2="85.143683%" y2="83.3825659%" id="linearGradient-5">
            <stop stop-color="#FF7800" offset="0%"></stop>
            <stop stop-color="#FFAB2C" offset="100%"></stop>
        </linearGradient>
    </defs>
    <g id="7" stroke="none" stroke-width="1" fill="none" fill-rule="evenodd">
        <g id="Group-52" transform="translate(4.000000, 5.000000)">
            <ellipse id="Oval" fill="#F3F4F7" cx="136" cy="79.5" rx="115.5" ry="71.5"></ellipse>
            <path d="M42.2841424,100.277234 C54.1443395,96.7623744 63.8932022,97.67761 72.8530456,102.416075 C79.69244,106.033129 84.4708455,110.353213 94.519836,121.000865 L94.7052399,121.197315 C103.979847,131.024323 108.418468,135.138074 114.683115,138.885388 C122.995546,143.857622 131.844707,145.61375 142.239985,143.758027 C142.783675,143.66097 143.145742,143.141542 143.048685,142.597853 C142.951628,142.054163 142.4322,141.692096 141.88851,141.789153 C131.978703,143.558211 123.616906,141.898802 115.709794,137.169017 C109.657609,133.548791 105.306731,129.516361 96.1597431,119.824573 L95.974348,119.628132 C85.7730185,108.819066 80.8889244,104.40343 73.7880533,100.648093 C64.3623552,95.663258 54.0736571,94.697342 41.7158576,98.3596701 C41.1863369,98.5165976 40.8842904,99.0730738 41.0412179,99.6025946 C41.1981454,100.132115 41.7546217,100.434162 42.2841424,100.277234 Z" id="Line-2" fill="#D3D6DE" fill-rule="nonzero" transform="translate(92.032078, 120.313422) scale(-1, -1) translate(-92.032078, -120.313422) "></path>
            <path d="M42,89.3879514 C92.0321239,74.5605501 55.5628825,33.8200566 87.0831247,22.1443687" id="Line-2" stroke="#D3D6DE" stroke-width="2" stroke-linecap="round" transform="translate(64.541562, 55.766160) scale(-1, -1) translate(-64.541562, -55.766160) "></path>
            <path d="M115.652982,118.818783 C117.213836,118.006814 118.679618,117.13906 120.051109,116.217184 C120.50947,115.909087 120.631283,115.28775 120.323186,114.829389 C120.015089,114.371028 119.393752,114.249215 118.935391,114.557312 C117.626643,115.437014 116.225219,116.266668 114.729986,117.044501 C114.240031,117.299379 114.049465,117.903186 114.304343,118.39314 C114.559221,118.883095 115.163028,119.073662 115.652982,118.818783 Z M124.133768,113.071131 C125.451963,111.904174 126.648958,110.672785 127.725938,109.380372 C128.079497,108.95609 128.022164,108.325526 127.597882,107.971968 C127.1736,107.61841 126.543036,107.675743 126.189478,108.100025 C125.177506,109.314425 124.051017,110.473283 122.808072,111.573623 C122.394546,111.939704 122.356085,112.571699 122.722166,112.985225 C123.088246,113.39875 123.720242,113.437212 124.133768,113.071131 Z M130.712592,105.128124 C131.587425,103.629316 132.325884,102.070949 132.930239,100.459153 C133.12414,99.9420259 132.862113,99.3656235 132.344985,99.1717226 C131.827858,98.9778217 131.251455,99.2398486 131.057554,99.7569762 C130.492686,101.263463 129.802755,102.719422 128.985299,104.119928 C128.706894,104.596907 128.867869,105.209267 129.344848,105.487672 C129.821827,105.766078 130.434187,105.605103 130.712592,105.128124 Z M134.335148,95.5074205 C134.666453,93.8379115 134.870175,92.1307527 134.950016,90.3947469 C134.975389,89.8430453 134.548716,89.3752336 133.997014,89.3498602 C133.445313,89.3244869 132.977501,89.7511602 132.952128,90.3028618 C132.876817,91.9403636 132.684952,93.548162 132.373402,95.1181229 C132.265901,95.6598441 132.617905,96.1861431 133.159626,96.2936447 C133.701347,96.4011463 134.227647,96.0491417 134.335148,95.5074205 Z M134.83023,85.2126758 C134.678792,83.5284592 134.420182,81.8366615 134.060213,80.1501176 C133.944933,79.6099984 133.413626,79.2655986 132.873507,79.3808793 C132.333387,79.49616 131.988988,80.0274666 132.104268,80.5675858 C132.44768,82.1765573 132.694136,83.7888419 132.838266,85.3917852 C132.887726,85.9418508 133.373737,86.3476721 133.923803,86.2982124 C134.473868,86.2487527 134.87969,85.7627414 134.83023,85.2126758 Z M132.723698,75.2467548 C132.183973,73.6226643 131.55696,72.0312018 130.854068,70.4931665 C130.624507,69.9908517 130.031204,69.7697411 129.52889,69.9993022 C129.026575,70.2288633 128.805464,70.822166 129.035025,71.3244808 C129.708185,72.7974567 130.308825,74.3219832 130.825758,75.8774874 C130.99993,76.4015891 131.565993,76.6852631 132.090094,76.5110911 C132.614196,76.3369192 132.89787,75.7708565 132.723698,75.2467548 Z M128.465985,65.957214 C127.54111,64.4231192 126.553313,63.0050881 125.530937,61.7405956 C125.1837,61.3111257 124.554054,61.2444635 124.124584,61.5917013 C123.695114,61.9389391 123.628452,62.5685851 123.97569,62.9980549 C124.939241,64.1897922 125.87469,65.5326756 126.753179,66.9898299 C127.038328,67.4628082 127.652911,67.6150739 128.12589,67.3299249 C128.598868,67.0447759 128.751134,66.4301923 128.465985,65.957214 Z M121.845483,57.995316 C120.827109,57.1811742 119.821508,56.5618701 118.850482,56.1591224 C118.340337,55.947532 117.755255,56.1895582 117.543665,56.6997032 C117.332074,57.2098482 117.5741,57.7949304 118.084245,58.0065209 C118.869184,58.3320862 119.716765,58.8540728 120.596614,59.5574703 C121.027991,59.902336 121.65726,59.8322047 122.002126,59.4008277 C122.346991,58.9694507 122.27686,58.3401817 121.845483,57.995316 Z" id="Line-2" fill="#D3D6DE" fill-rule="nonzero" transform="translate(124.571185, 87.507204) scale(-1, -1) translate(-124.571185, -87.507204) "></path>
            <path d="M194.774285,92.5638546 C196.336041,91.7507274 197.802279,90.8813024 199.173784,89.95726 C199.631811,89.6486673 199.752952,89.027199 199.444359,88.5691717 C199.135766,88.1111445 198.514298,87.9900038 198.056271,88.2985966 C196.747873,89.1801205 195.346389,90.0111492 193.850673,90.7898927 C193.360807,91.0449411 193.17045,91.6488136 193.425498,92.1386796 C193.680547,92.6285457 194.284419,92.818903 194.774285,92.5638546 Z M203.249482,86.8074422 C204.565769,85.6381205 205.7605,84.4038982 206.834868,83.1082167 C207.187392,82.6830751 207.128523,82.0526527 206.703382,81.7001288 C206.27824,81.347605 205.647818,81.4064734 205.295294,81.831615 C204.286041,83.0487686 203.161995,84.2099689 201.921206,85.3122227 C201.508312,85.6790161 201.470941,86.3110773 201.837734,86.7239707 C202.204528,87.1368642 202.836589,87.1742356 203.249482,86.8074422 Z M209.811,78.8463686 C210.680994,77.3457045 211.414674,75.7852661 212.014328,74.171206 C212.206667,73.6534955 211.942901,73.0778866 211.42519,72.8855476 C210.90748,72.6932086 210.331871,72.9569743 210.139532,73.4746848 C209.579055,74.9832952 208.893613,76.441138 208.080742,77.8432705 C207.803744,78.3210681 207.966524,78.9329509 208.444322,79.2099488 C208.92212,79.4869467 209.534002,79.3241663 209.811,78.8463686 Z M213.40481,69.2155856 C213.731359,67.5461499 213.930824,65.8390213 214.006906,64.1029891 C214.031087,63.551234 213.603403,63.0843458 213.051648,63.0601651 C212.499893,63.0359845 212.033004,63.4636681 212.008824,64.0154232 C211.937043,65.6533291 211.749146,67.2614503 211.442007,68.831652 C211.335987,69.3736651 211.689428,69.8989999 212.231442,70.0050202 C212.773455,70.1110406 213.298789,69.7575986 213.40481,69.2155856 Z M213.877691,58.9227461 C213.7238,57.2392833 213.463309,55.5481525 213.102012,53.8621455 C212.98629,53.3221208 212.454702,52.9781559 211.914677,53.0938784 C211.374652,53.2096009 211.030687,53.7411891 211.14641,54.2812139 C211.491178,55.8900932 211.739492,57.502166 211.885995,59.1048143 C211.936272,59.6548058 212.422886,60.0599047 212.972877,60.0096279 C213.522869,59.9593512 213.927968,59.4727376 213.877691,58.9227461 Z M211.763089,48.9596678 C211.223266,47.336314 210.596711,45.7453349 209.89476,44.2074243 C209.665437,43.7050004 209.07224,43.4836077 208.569816,43.71293 C208.067392,43.9422522 207.846,44.5354496 208.075322,45.0378735 C208.747755,46.5111128 209.348111,48.0355661 209.865269,49.590761 C210.03954,50.1148296 210.605657,50.3983961 211.129725,50.2241245 C211.653794,50.0498529 211.93736,49.4837364 211.763089,48.9596678 Z M207.509962,39.668835 C206.587278,38.1343597 205.602102,36.7152075 204.582543,35.4486589 C204.236226,35.0184463 203.606724,34.9504354 203.176511,35.2967525 C202.746299,35.6430695 202.678288,36.2725712 203.024605,36.7027839 C203.985923,37.8969821 204.919247,39.2414415 205.795961,40.6994673 C206.080563,41.1727755 206.69497,41.3257526 207.168278,41.0411513 C207.641586,40.7565501 207.794563,40.1421431 207.509962,39.668835 Z M200.908934,31.6932306 C199.879776,30.8636058 198.863635,30.2330364 197.883021,29.8240264 C197.373297,29.6114228 196.787735,29.8522862 196.575132,30.3620098 C196.362528,30.8717334 196.603391,31.4572953 197.113115,31.6698989 C197.906238,32.0007072 198.763588,32.5327386 199.653743,33.2503093 C200.083718,33.5969209 200.713266,33.5293412 201.059878,33.0993658 C201.406489,32.6693903 201.33891,32.0398422 200.908934,31.6932306 Z" id="Line-2" fill="#D3D6DE" fill-rule="nonzero" transform="translate(203.660078, 61.211891) scale(-1, -1) rotate(-225.000000) translate(-203.660078, -61.211891) "></path>
            <ellipse id="Oval-11" fill="#FFFFFF" cx="156.429668" cy="54.3328394" rx="27.1579294" ry="27.0816534"></ellipse>
            <ellipse id="Oval-11" fill="#FFFFFF" cx="97.1366222" cy="27.0816534" rx="27.1579294" ry="27.0816534"></ellipse>
            <ellipse id="Oval-11" fill="#FFFFFF" cx="155.48619" cy="128.220707" rx="27.1579294" ry="27.0816534"></ellipse>
            <ellipse id="Oval-11" fill="#FFFFFF" cx="228.605755" cy="97.0096707" rx="27.1579294" ry="27.0816534"></ellipse>
            <path d="M186.035266,73.0191093 L185.316052,73.0191093 L185.316052,71.5847218 C185.316052,69.6052671 183.705013,67.9987531 181.719983,67.9987531 C179.734953,67.9987531 178.123915,69.6052671 178.123915,71.5847218 L178.123915,73.0191093 L177.404701,73.0191093 C176.613566,73.0191093 175.966273,73.6645837 175.966273,74.4534968 L175.966273,81.6254341 C175.966273,82.4143472 176.613566,83.0598216 177.404701,83.0598216 L186.035266,83.0598216 C186.826401,83.0598216 187.473693,82.4143472 187.473693,81.6254341 L187.473693,74.4534968 C187.473693,73.6645837 186.826401,73.0191093 186.035266,73.0191093 Z M181.719983,79.4738529 C180.928848,79.4738529 180.281556,78.8283785 180.281556,78.0394654 C180.281556,77.2505523 180.928848,76.605078 181.719983,76.605078 C182.511118,76.605078 183.158411,77.2505523 183.158411,78.0394654 C183.158411,78.8283785 182.511118,79.4738529 181.719983,79.4738529 Z M183.949546,73.0191093 L179.490421,73.0191093 L179.490421,71.5847218 C179.490421,70.3583205 180.490128,69.3614212 181.719983,69.3614212 C182.949839,69.3614212 183.949546,70.3583205 183.949546,71.5847218 L183.949546,73.0191093 Z" id="Shape" fill="#303542" fill-rule="nonzero"></path>
            <path d="M256.173507,117.186389 L255.454293,117.186389 L255.454293,115.752001 C255.454293,113.772547 253.843254,112.166033 251.858224,112.166033 C249.873195,112.166033 248.262156,113.772547 248.262156,115.752001 L248.262156,117.186389 L247.542942,117.186389 C246.751807,117.186389 246.104515,117.831863 246.104515,118.620776 L246.104515,125.792714 C246.104515,126.581627 246.751807,127.227101 247.542942,127.227101 L256.173507,127.227101 C256.964642,127.227101 257.611934,126.581627 257.611934,125.792714 L257.611934,118.620776 C257.611934,117.831863 256.964642,117.186389 256.173507,117.186389 Z M251.858224,123.641132 C251.067089,123.641132 250.419797,122.995658 250.419797,122.206745 C250.419797,121.417832 251.067089,120.772357 251.858224,120.772357 C252.64936,120.772357 253.296652,121.417832 253.296652,122.206745 C253.296652,122.995658 252.64936,123.641132 251.858224,123.641132 Z M254.087787,117.186389 L249.628662,117.186389 L249.628662,115.752001 C249.628662,114.5256 250.628369,113.528701 251.858224,113.528701 C253.08808,113.528701 254.087787,114.5256 254.087787,115.752001 L254.087787,117.186389 Z" id="Shape" fill="#303542" fill-rule="nonzero"></path>
            <path d="M182.258887,148.496981 C183.02837,148.496981 183.657947,149.12479 183.657947,149.892112 L183.657947,156.867765 C183.657947,157.635087 183.02837,158.262896 182.258887,158.262896 L173.864527,158.262896 C173.095044,158.262896 172.465466,157.635087 172.465466,156.867765 L172.465466,149.892112 C172.465466,149.12479 173.095044,148.496981 173.864527,148.496981 L180.23025,148.496981 L180.23025,147.10185 C180.23025,145.909014 179.257903,144.939398 178.061707,144.939398 C176.86551,144.939398 175.893164,145.909014 175.893164,147.10185 L174.564057,147.10185 C174.564057,145.17657 176.131004,143.614024 178.061707,143.614024 C179.99241,143.614024 181.559357,145.17657 181.559357,147.10185 L181.559357,148.496981 L182.258887,148.496981 Z M178.061707,154.775069 C178.83119,154.775069 179.460767,154.14726 179.460767,153.379938 C179.460767,152.612616 178.83119,151.984808 178.061707,151.984808 C177.292224,151.984808 176.662647,152.612616 176.662647,153.379938 C176.662647,154.14726 177.292224,154.775069 178.061707,154.775069 Z" id="Combined-Shape" fill="#C1C5CF" fill-rule="nonzero"></path>
            <ellipse id="Oval-6" fill="url(#linearGradient-1)" cx="156" cy="129.416667" rx="10" ry="9.58333333"></ellipse>
            <path d="M152.609395,118.223379 C151.266611,118.747128 150.34604,118.917172 149.847682,118.733509 C147.851058,117.997684 147.134231,116.953596 147.126663,117.001359 C146.350728,121.898408 148.328767,122.534003 149.847682,122.534003 C150.562885,122.534003 154.578237,120.669662 156.659722,122.534003 C157.252876,123.065278 162.202116,122.489416 162.980369,119.305662 C163.960872,115.294527 160.503881,114.933766 152.609395,118.223379 Z" id="Path-10" fill="#303542"></path>
            <ellipse id="Oval-7" fill="#303542" cx="153.619048" cy="126.541667" rx="1" ry="1"></ellipse>
            <ellipse id="Oval-7" fill="#303542" cx="158.380952" cy="126.541667" rx="1" ry="1"></ellipse>
            <path d="M159.959579,129.996007 C158.813826,130.981961 157.682828,131.561867 156.565943,131.747067 C155.47235,131.928405 153.919539,131.559308 151.928385,130.615826 C151.678839,130.497582 151.380687,130.604024 151.262443,130.853569 C151.1442,131.103115 151.250641,131.401267 151.500186,131.519511 C153.658605,132.542248 155.39476,132.954926 156.729528,132.733597 C158.041002,132.51613 159.335324,131.852481 160.611849,130.753993 C160.821161,130.573874 160.844827,130.258177 160.664708,130.048865 C160.484588,129.839553 160.168892,129.815887 159.959579,129.996007 Z" id="Line-3" fill="#303542" fill-rule="nonzero"></path>
            <ellipse id="Oval-6" fill="url(#linearGradient-2)" cx="227.82" cy="98.3518519" rx="11.52" ry="10.6481481"></ellipse>
            <path d="M222.78,85.9534095 C222.78,84.5625137 222.058744,83.9143927 220.616233,84.0090465 C217.919771,84.1859814 217.470801,85.9025598 217.462028,85.9534095 C216.562564,91.1669473 218.855507,91.8436193 220.616233,91.8436193 C221.445297,91.8436193 226.099893,89.8587895 228.512749,91.8436193 C228.976965,92.2254859 239.34,98.336427 239.34,95.0900232 C239.34,91.8436193 239.070629,90.5579392 238.680185,89.7834324 C236.348921,85.1590087 231.048859,83.8823344 222.78,85.9534095 Z" id="Path-10" fill="#303542"></path>
            <ellipse id="Oval-7" fill="#303542" cx="220.14" cy="95.1111111" rx="1" ry="1"></ellipse>
            <ellipse id="Oval-7" fill="#303542" cx="225.9" cy="95.1111111" rx="1" ry="1"></ellipse>
            <path d="M229.44197,100.265197 C228.149091,101.224963 226.867343,101.791906 225.594661,101.973958 C224.339397,102.153518 222.57813,101.792367 220.329186,100.873085 C220.073574,100.7686 219.781658,100.891113 219.677173,101.146726 C219.572689,101.402338 219.695202,101.694254 219.950814,101.798738 C222.349391,102.779185 224.271767,103.173372 225.736266,102.963882 C227.183346,102.756883 228.617957,102.122324 230.03803,101.068137 C230.259756,100.903539 230.306067,100.590362 230.14147,100.368637 C229.976872,100.146911 229.663696,100.100599 229.44197,100.265197 Z" id="Line-3" fill="#303542" fill-rule="nonzero"></path>
            <ellipse id="Oval-6" fill="url(#linearGradient-3)" cx="28.0455163" cy="94.8865277" rx="25.3269808" ry="25.0631581"></ellipse>
            <ellipse id="Oval-7" fill="#303542" cx="25.4404056" cy="88.6706543" rx="2.71853547" ry="2.69021739"></ellipse>
            <ellipse id="Oval-7" fill="#303542" cx="39.033083" cy="88.6706543" rx="2.71853547" ry="2.69021739"></ellipse>
            <path d="M42.7497933,98.3245977 C40.0794195,102.001966 36.967626,103.796196 33.3541146,103.796196 C29.6095995,103.796196 25.935505,102.565975 22.3133651,100.085107 C21.8577108,99.7730211 21.2353344,99.8894063 20.9232486,100.345061 C20.6111628,100.800715 20.727548,101.423091 21.1832024,101.735177 C25.1260635,104.435713 29.1891896,105.796196 33.3541146,105.796196 C37.6500434,105.796196 41.3414773,103.667751 44.3681182,99.4997678 C44.6926325,99.0528797 44.5934289,98.4275345 44.1465408,98.1030203 C43.6996527,97.7785061 43.0743076,97.8777097 42.7497933,98.3245977 Z" id="Line-3" fill="#303542" fill-rule="nonzero"></path>
            <path d="M2.60036702,76.4537243 C8.15603102,75.610154 12.0435027,75.1883688 14.2627821,75.1883688 C18.9018573,75.1883688 22.37718,77.798833 25.136924,77.798833 C27.1119212,77.798833 33.409704,76.5309197 37.0691955,81.2952207 C39.5735756,84.5556793 39.2741956,93.8111684 41.7297059,95.6549728 C44.2976813,97.5832256 44.7893471,97.6175583 46.2726769,92.9647554 C47.7560066,88.3119525 47.257812,84.3601969 46.3076447,81.2952207 C42.46182,68.8896577 36.839634,67.4814264 32.3813323,66.0625815 C24.0416465,63.4084945 18.3803893,68.021347 11.3173971,61.8262438 C7.58560742,58.5530104 1.93884303,59.9076313 0.472018048,67.9478798 C0.216037218,69.3510121 0.925486876,72.1862936 2.60036702,76.4537243 Z" id="Path-11" fill="#303542" transform="translate(23.815972, 78.526461) scale(-1, 1) translate(-23.815972, -78.526461) "></path>
            <ellipse id="Oval-6" fill="url(#linearGradient-4)" cx="97.4640119" cy="31.4472682" rx="10.8880435" ry="10.5315897"></ellipse>
            <path d="M104.133224,33.1388566 C103.29365,34.9939161 101.8313,35.8180742 99.7461729,35.6113307 C97.4718413,35.3858273 97.0107178,34.2053373 96.2499148,33.9784031 C95.6462323,33.7983353 95.14854,33.7983353 94.7568379,33.9784031" id="Line-3" stroke="#303542" stroke-linecap="round"></path>
            <path d="M85.9990126,23.701767 C88.3873869,23.347297 90.0586071,23.170062 91.0126731,23.170062 C93.0070068,23.170062 94.5010445,24.2669844 95.6874557,24.2669844 C96.536505,24.2669844 99.2439154,23.7342047 100.817127,25.7361735 C101.893758,27.1062248 101.765054,30.9954001 102.820676,31.7701704 C103.924646,32.5804261 104.136013,32.5948528 104.773694,30.6397356 C105.411376,28.6846184 105.97274,23.4126281 105.564264,22.1247189 C103.910948,16.9118762 100.915003,18.1514716 98.9983832,17.5552701 C95.4131607,16.4400174 91.6099989,15.8206324 89.4065934,16.5880238 C87.1858913,17.3614391 85.7146241,16.7490653 85.0840375,20.1275939 C84.9739916,20.717193 85.2789833,21.908584 85.9990126,23.701767 Z" id="Path-11" fill="#303542" transform="translate(95.382658, 24.266533) scale(-1, 1) translate(-95.382658, -24.266533) "></path>
            <path d="M94.9181818,28.2121212 L103.590909,28.2121212 C104.569959,28.2121212 105.363636,29.0057982 105.363636,29.9848485 L105.363636,29.9848485 C105.363636,30.9638987 104.569959,31.7575758 103.590909,31.7575758 L102.66521,31.7575758 C101.767201,31.7575758 100.959303,31.2118563 100.624016,30.3787879 L100.624016,30.3787879 C100.483509,30.0296797 100.086598,29.8605747 99.7374897,30.0010812 C99.5860658,30.0620252 99.4615504,30.1753016 99.3865962,30.3203024 L99.3563636,30.3787879 C98.9185837,31.2256836 98.0448832,31.7575758 97.0915294,31.7575758 L94.9181818,31.7575758 C93.9391316,31.7575758 93.1454545,30.9638987 93.1454545,29.9848485 L93.1454545,29.9848485 C93.1454545,29.0057982 93.9391316,28.2121212 94.9181818,28.2121212 Z" id="Rectangle" fill="#303542"></path>
            <circle id="Oval-6" fill="url(#linearGradient-5)" cx="157.48" cy="57.44" r="10.56"></circle>
            <path d="M152.836339,45.4935613 C151.892998,45.9286722 149.149193,44.9125486 147.407672,46.88 C145.569082,48.9571114 144.819965,54.0472837 147.407672,55.5005492 C147.642558,55.6324625 148.645061,52.2742131 149.8,51.540232 C151.618556,50.3845125 153.864506,51.589559 154.464114,51.540232 C154.700965,51.5207474 159.712466,53.024408 161.8,52.9629688 C163.421369,52.9152494 162.937115,49.7097519 163.557812,50.2321654 C164.127583,50.7117162 165.572631,51.0902724 166.12,51.540232 C167.303313,52.5129641 167.05911,54.694142 167.383994,54.5899371 C168.627345,54.1911386 169.718114,49.2426852 168.04,46.88 C166.760347,45.078324 163.47365,44.8991826 161.32,44.547012 C159.032821,44.1730065 154.7756,44.5990875 152.836339,45.4935613 Z" id="Path-7" fill="#303542"></path>
            <circle id="Oval-7" fill="#303542" cx="154.6" cy="55.52" r="1"></circle>
            <circle id="Oval-7" fill="#303542" cx="160.36" cy="55.52" r="1"></circle>
            <path d="M156.71368,61.9787054 C157.358359,61.6069196 157.767381,60.8315392 157.767381,60.3079828 C157.767381,59.7844263 157.331978,59.36 156.794881,59.36 C155.26201,59.36 155.420901,60.3090523 152.817188,60.5911235 C151.953779,60.6846602 150.94805,60.5127543 149.8,60.0754056 C150.473953,61.6482624 151.479682,62.4975516 152.817188,62.6232731 C154.823445,62.8118554 156.079757,62.3442876 156.71368,61.9787054 Z" id="Oval" fill="#303542"></path>
            <path d="M164.5923,61.7895982 C164.942255,61.5400934 165.646002,60.8315392 165.646002,60.3079828 C165.646002,59.7844263 165.210599,59.36 164.673502,59.36 C163.140631,59.36 163.299522,60.3090523 160.695808,60.5911235 C159.832399,60.6846602 158.82667,60.5127543 157.678621,60.0754056 C158.352574,61.6482624 159.358303,62.4975516 160.695808,62.6232731 C162.702066,62.8118554 164.061066,62.1683482 164.5923,61.7895982 Z" id="Oval" fill="#303542" transform="translate(161.662311, 61.008568) scale(-1, 1) translate(-161.662311, -61.008568) "></path>
        </g>
    </g>
</svg>