<?xml version="1.0" encoding="UTF-8"?>
<svg width="280px" height="170px" viewBox="0 0 280 170" version="1.1" xmlns="http://www.w3.org/2000/svg" xmlns:xlink="http://www.w3.org/1999/xlink">
    <!-- Generator: Sketch 55 (78076) - https://sketchapp.com -->
    <title>8@2x</title>
    <desc>Created with Sketch.</desc>
    <defs>
        <polygon id="path-1" points="3.87118947 43.6707743 0 54.3022573 3.87118947 59.4502909 11.4397942 54.3022573 14.7477458 59.4502909 17.6237439 54.3022573 26.4854795 54.3022573 29.8317253 59.4502909 26.4854795 64.6380301 14.7477458 68.9561277 0 68.9561277 0 76.4647695 0 84.0350123 11.4397942 94.6165413 23.2976858 108.476401 26.4854795 113.256077 36.9226516 111.119298 43.348616 99.3542895 43.348616 88.291509 48.3866816 80.9123187 51.5758317 79.0608455 56.0324279 88.291509 60.7502055 92.5171978 65.8702626 86.0439723 69.0134463 79.0608455 73.208861 86.0439723 80.496424 92.5171978 88.240304 94.6165413 102.659321 88.291509 98.1817106 78.0462671 113.91264 81.8247003 119.74827 88.367456 124.019161 87.4986487 113.91264 71.1451402 117.870889 68.9561277 124.019161 59.4502909 131.462832 45.7360528 137.747699 33.7749645 152.192234 24.0025308 131.462832 18.4591974 124.019161 12.2625355 109.421519 6.62241726 91.9523829 6.66403476 73.208861 7.63605278 65.8702626 14.5391538 51.5758317 14.5391538 48.3866816 7.63605278 36.9226516 2.30909091 32.0442624 0 23.2976858 6.62241726 26.4854795 12.2625355 26.4854795 21.3042304 17.6237439 25.9356638 17.6237439 33.7749645 3.87118947 36.9454545"></polygon>
        <linearGradient x1="13.8235682%" y1="15.2998835%" x2="84.7799061%" y2="83.3825659%" id="linearGradient-3">
            <stop stop-color="#FF7800" offset="0%"></stop>
            <stop stop-color="#FFAB2C" offset="100%"></stop>
        </linearGradient>
    </defs>
    <g id="8" stroke="none" stroke-width="1" fill="none" fill-rule="evenodd">
        <g id="Group-51" transform="translate(4.000000, 6.000000)">
            <ellipse id="Oval" fill="#F3F4F7" cx="105" cy="86" rx="105" ry="72"></ellipse>
            <g id="Group-39" transform="translate(17.000000, 0.000000)">
                <g id="Group-3" transform="translate(0.000000, 28.000000)">
                    <path d="M9.80331074,16.9300673 L0,28.8636364 L4.90165537,34.1988991 L7.21401185,46.1682884 L9.80331074,46.2367502 L17.0698591,55.7113281 L12.4691628,58.8653028 L8.53492955,69.1614959 L2.06093181,78.2622851 L17.0698591,105.114475 L27.6432048,109.907627 L40.5251544,109.907627 L50.7577634,96.2898781 L40.5251544,82.5187817 L44.8541619,73.2881182 L44.8541619,58.8653028 L48.7493681,49.251273 L40.5251544,46.2367502 L44.8541619,43.0168509 L54.6064372,43.0168509 C61.3581279,49.1828141 64.7339732,51.2609548 64.7339732,49.251273 C64.7339732,47.2415911 65.6411034,44.1456086 67.4553639,39.9633255 L70.508485,28.0022372 L58.69828,20.6540811 L58.69828,12.6864702 L44.8541619,6.48980824 L24.5165326,12.6864702 L9.80331074,16.9300673 Z" id="Path-2" fill="#E3E5EB"></path>
                    <g id="Rectangle" transform="translate(74.320739, 0.000000)">
                        <mask id="mask-2" fill="white">
                            <use xlink:href="#path-1"></use>
                        </mask>
                        <use id="Mask" fill="#E3E5EB" xlink:href="#path-1"></use>
                    </g>
                    <polygon id="Path-4" fill="#E3E5EB" points="79.7009929 19.0718157 81.2779128 25.4177815 87.7616982 25.4177815 87.7616982 20.5357952 82.3703871 16.2708376"></polygon>
                    <polygon id="Path-5" fill="#E3E5EB" points="204.848661 92.3501065 192.725777 95.6985562 188.649746 101.98195 196.749203 118.398772 218.025339 126.468372 224.758766 109.409239 224.758766 98.293328 209.507613 95.6985562"></polygon>
                    <polygon id="Path-6" fill="#E3E5EB" points="217.901866 41.4900882 214.718421 46.1682884 208.393955 58.1987176 214.718421 63.1834004 220.622048 53.021207 226.512973 46.1682884"></polygon>
                </g>
                <g id="Group-30" transform="translate(22.000000, 0.000000)">
                    <g id="Group-28" transform="translate(34.045603, 38.027545) rotate(10.000000) translate(-34.045603, -38.027545) translate(5.545603, 9.027545)">
                        <ellipse id="Oval-6" fill="url(#linearGradient-3)" cx="28.3684211" cy="28.5163934" rx="28.3684211" ry="28.5163934"></ellipse>
                        <path d="M44.3317758,35.5184714 C41.330692,39.9182412 37.8324881,42.0655738 33.7809519,42.0655738 C33.2286672,42.0655738 32.7809519,42.513289 32.7809519,43.0655738 C32.7809519,43.6178585 33.2286672,44.0655738 33.7809519,44.0655738 C38.5473137,44.0655738 42.6337383,41.5571687 45.9840136,36.6454631 C46.2952238,36.1892102 46.1776435,35.5670585 45.7213906,35.2558483 C45.2651377,34.9446382 44.642986,35.0622185 44.3317758,35.5184714 Z" id="Line-3" fill="#303542" fill-rule="nonzero"></path>
                        <path d="M14.366331,20.9728993 C23.6239753,19.4237183 30.2133449,18.5174002 34.13444,18.2539448 C37.95197,17.9974479 43.4428008,18.0679414 50.6069326,18.4654254 C52.1224048,18.5495117 53.3363249,19.7522245 53.4344595,21.2668519 L53.7681979,26.417834 C53.9869754,29.7944879 51.4270108,32.7091609 48.050357,32.9279384 C47.5595527,32.9597383 47.0667049,32.9323236 46.5824553,32.8462863 L44.4716776,32.4712618 C40.849055,31.827626 37.8724966,29.246653 36.7222326,25.7517204 L36.2936156,24.4494213 C35.9129929,23.2929472 34.6669298,22.6639953 33.5104557,23.0446179 C32.8067329,23.2762295 32.266409,23.8458363 32.0722259,24.5607927 L31.263168,27.539636 C30.3449069,30.9205514 27.7243146,33.5743782 24.3552393,34.5351718 L20.2555969,35.7043085 C16.8279024,36.6818191 13.2567781,34.6955525 12.2792676,31.267858 C12.1330641,30.7551874 12.0509457,30.2263768 12.034789,29.6935113 L11.8628418,24.022682 C11.8173745,22.5231171 12.8866516,21.2205099 14.366331,20.9728993 Z" id="Rectangle" fill="#303542"></path>
                    </g>
                    <path d="M9.41339433,15.9831469 C10.037195,16.7174259 10.7064145,18.5230019 11.4210526,21.3998749 C22.7764987,21.8083931 30.3028144,21.8083931 34,21.3998749 C46.4805326,20.0208465 52.4718443,17.0459191 52.8123972,17.0459191 C53.5502159,17.0459191 64.4094722,2.64304811 57.7832031,0.514412916 C51.156934,-1.61422228 34.9456254,3.41713665 27.5541221,5.52251358 C17.5570736,8.37004738 8.32887094,14.706549 9.41339433,15.9831469 Z" id="Path-21" fill="#303542"></path>
                    <polygon id="Path-22" fill="#FF9A1E" points="38.9261246 7.11740279 38.9261246 11.9991721 42.3859653 15.4770596 45.8458059 11.9991721 45.8458059 7.11740279"></polygon>
                </g>
                <path d="M109.706641,98.3082114 L108.293359,99.7233553 L113.174623,104.598199 L113.839167,103.527262 C116.549245,99.1598668 119.065473,96.6469484 121.296215,95.9551213 L120.703785,94.0448787 C118.120008,94.8461937 115.514806,97.3111802 112.816096,101.413577 L109.706641,98.3082114 Z" id="Path-16" fill="#C1C5CF" fill-rule="nonzero"></path>
                <path d="M29.7066413,86.3082114 L28.2933587,87.7233553 L33.1746231,92.5981995 L33.8391667,91.5272619 C36.5492451,87.1598668 39.065473,84.6469484 41.2962148,83.9551213 L40.7037852,82.0448787 C38.1200079,82.8461937 35.5148056,85.3111802 32.8160962,89.4135765 L29.7066413,86.3082114 Z" id="Path-16" fill="#C1C5CF" fill-rule="nonzero"></path>
                <path d="M83.7066413,70.3082114 L82.2933587,71.7233553 L87.1746231,76.5981995 L87.8391667,75.5272619 C90.5492451,71.1598668 93.065473,68.6469484 95.2962148,67.9551213 L94.7037852,66.0448787 C92.1200079,66.8461937 89.5148056,69.3111802 86.8160962,73.4135765 L83.7066413,70.3082114 Z" id="Path-16" fill="#C1C5CF" fill-rule="nonzero"></path>
                <path d="M142.706641,63.3082114 L141.293359,64.7233553 L146.174623,69.5981995 L146.839167,68.5272619 C149.549245,64.1598668 152.065473,61.6469484 154.296215,60.9551213 L153.703785,59.0448787 C151.120008,59.8461937 148.514806,62.3111802 145.816096,66.4135765 L142.706641,63.3082114 Z" id="Path-16" fill="#BFC4CE" fill-rule="nonzero"></path>
                <path d="M127.706641,79.3082114 L126.293359,80.7233553 L131.174623,85.5981995 L131.839167,84.5272619 C134.549245,80.1598668 137.065473,77.6469484 139.296215,76.9551213 L138.703785,75.0448787 C136.120008,75.8461937 133.514806,78.3111802 130.816096,82.4135765 L127.706641,79.3082114 Z" id="Path-16" fill="#BFC4CE" fill-rule="nonzero"></path>
                <path d="M136.706641,87.3082114 L135.293359,88.7233553 L140.174623,93.5981995 L140.839167,92.5272619 C143.549245,88.1598668 146.065473,85.6469484 148.296215,84.9551213 L147.703785,83.0448787 C145.120008,83.8461937 142.514806,86.3111802 139.816096,90.4135765 L136.706641,87.3082114 Z" id="Path-16" fill="#BFC4CE" fill-rule="nonzero"></path>
            </g>
        </g>
    </g>
</svg>