<?xml version="1.0" encoding="UTF-8"?>
<svg width="280px" height="170px" viewBox="0 0 280 170" version="1.1" xmlns="http://www.w3.org/2000/svg" xmlns:xlink="http://www.w3.org/1999/xlink">
    <!-- Generator: Sketch 55 (78076) - https://sketchapp.com -->
    <title>9@2x</title>
    <desc>Created with Sketch.</desc>
    <defs>
        <linearGradient x1="39.4504451%" y1="15.2998835%" x2="60.1423084%" y2="83.3825659%" id="linearGradient-1">
            <stop stop-color="#FF7800" offset="0%"></stop>
            <stop stop-color="#FFAB2C" offset="100%"></stop>
        </linearGradient>
        <linearGradient x1="39.9148595%" y1="15.2998835%" x2="59.695822%" y2="83.3825659%" id="linearGradient-2">
            <stop stop-color="#FF7800" offset="0%"></stop>
            <stop stop-color="#FFAB2C" offset="100%"></stop>
        </linearGradient>
        <linearGradient x1="42.6213121%" y1="15.2998835%" x2="57.093847%" y2="83.3825659%" id="linearGradient-3">
            <stop stop-color="#FF7800" offset="0%"></stop>
            <stop stop-color="#FFAB2C" offset="100%"></stop>
        </linearGradient>
        <linearGradient x1="26.515186%" y1="15.2998835%" x2="72.5782253%" y2="83.3825659%" id="linearGradient-4">
            <stop stop-color="#FF7800" offset="0%"></stop>
            <stop stop-color="#FFAB2C" offset="100%"></stop>
        </linearGradient>
    </defs>
    <g id="9" stroke="none" stroke-width="1" fill="none" fill-rule="evenodd">
        <g id="Group-50" transform="translate(2.000000, 27.000000)">
            <ellipse id="Oval" fill="#F3F4F7" cx="105" cy="75" rx="105" ry="65"></ellipse>
            <g id="Group-41" transform="translate(53.000000, 0.000000)">
                <g id="Group-40">
                    <path d="M21.7011368,14.4807796 L20.1856022,16.1573821 C17.5580534,13.77464 13.348648,12.9412 10.1737722,14.0547877 C6.88519993,15.2082545 5.54777661,18.0686782 7.04415075,22.3350151 C7.69698865,24.1963319 8.53331527,25.6100402 10.6420926,28.7007733 L10.6962218,28.7801085 C13.0941235,32.2947627 14.0663567,33.9915819 14.7538098,36.3417086 C15.2768623,38.1298154 15.5186434,40.2032103 15.7281683,43.7348088 C15.7480036,44.0691378 15.7563046,44.2145397 15.7991991,44.9727108 C16.0825396,49.9808257 16.3784516,48.6097053 17.1071414,49.5134072 C17.6813426,50.2255164 19.2594452,52.8521834 22.516333,49.0602888 L24.2281239,50.5352743 C20.1373972,55.2979818 17.2595638,56.6946 15.350447,54.3269637 C14.1673515,52.8597198 13.8680601,50.8152321 13.5447513,45.1006681 C13.5019987,44.3450052 13.4937394,44.2003334 13.4740801,43.8689696 C13.2745772,40.5062958 13.0462285,38.5480904 12.586838,36.9776184 C11.9885856,34.9324333 11.0963556,33.375242 8.83187852,30.056151 L8.77777732,29.9768568 C6.55729786,26.7224073 1.13807942,25.1958447 0.397594792,23.0846368 C-1.50906934,17.6485154 3.8222891,12.3593708 8.29842865,10.7893647 C12.2505942,9.40314258 18.4575364,11.5393831 21.7011368,14.4807796 Z" id="Path-18" fill="url(#linearGradient-1)"></path>
                    <path d="M101.530599,14.4807796 L100.015064,16.1573821 C97.3875152,13.77464 93.1781098,12.9412 90.0032341,14.0547877 C86.7146617,15.2082545 85.3772384,18.0686782 86.8736126,22.3350151 C87.5264505,24.1963319 88.3627771,25.6100402 90.4715545,28.7007733 L90.5256836,28.7801085 C92.9235853,32.2947627 93.8958185,33.9915819 94.5832716,36.3417086 C95.1063241,38.1298154 95.3481052,40.2032103 95.5576301,43.7348088 C95.5774654,44.0691378 95.5857664,44.2145397 95.6286609,44.9727108 C95.9120014,49.9808257 97.3369456,48.6097053 98.0656354,49.5134072 C98.6398366,50.2255164 99.088907,52.8521834 102.345795,49.0602888 L104.057586,50.5352743 C99.966859,55.2979818 97.0890256,56.6946 95.1799088,54.3269637 C93.9968133,52.8597198 93.6975219,50.8152321 93.3742131,45.1006681 C93.3314606,44.3450052 93.3232013,44.2003334 93.3035419,43.8689696 C93.104039,40.5062958 92.8756903,38.5480904 92.4162999,36.9776184 C91.8180474,34.9324333 90.9258174,33.375242 88.6613403,30.056151 L88.6072391,29.9768568 C86.3867597,26.7224073 80.9675412,25.1958447 80.2270566,23.0846368 C78.3203925,17.6485154 83.6517509,11.2285297 88.1278905,9.6585236 C92.080056,8.27230145 98.2869982,11.5393831 101.530599,14.4807796 Z" id="Path-18" fill="url(#linearGradient-2)" transform="translate(91.943524, 32.393281) scale(-1, 1) translate(-91.943524, -32.393281) "></path>
                    <polygon id="Rectangle" fill="#FF9015" points="29.0173897 101.775701 75.3077123 101.775701 75.3077123 121 29.0173897 121"></polygon>
                    <path d="M47.0819059,79.1588785 L57.2431962,79.1588785 C55.3952879,83.3220031 54.4713338,87.2335649 54.4713338,90.8935638 C54.4713338,94.5535627 55.3952879,98.1809418 57.2431962,101.775701 L47.0819059,101.775701 C48.9636263,98.4258093 49.9044865,94.7984303 49.9044865,90.8935638 C49.9044865,86.9886973 48.9636263,83.0771356 47.0819059,79.1588785 Z" id="Rectangle" fill="url(#linearGradient-3)"></path>
                    <path d="M41.5701556,108.146621 C42.3560034,107.481783 42.7323475,106.865932 42.6991879,106.299065 L62.7461259,106.299065 C63.1089705,107.191046 63.4853146,107.806898 63.8751581,108.146621 C64.2650016,108.486344 65.0651003,108.895685 66.2754542,109.374644 L66.2754542,114.784791 C65.5313606,114.920083 64.7312619,115.29703 63.8751581,115.915632 C63.0190544,116.534234 62.5170172,117.098182 62.3690467,117.607477 L42.2890316,117.607477 C41.8035536,116.775216 41.4003803,116.211268 41.0795117,115.915632 C40.7586431,115.619997 40.1250325,115.228693 39.1786801,114.741722 L39.1786801,109.277462 C39.9871493,109.188406 40.7843078,108.811459 41.5701556,108.146621 Z" id="Rectangle" fill="#FFFFFF"></path>
                    <path d="M20.9851317,0 L83.3399704,0 C83.8922551,-1.01453063e-16 84.3399704,0.44771525 84.3399704,1 L84.3399704,48.1123003 C84.3399704,65.8833983 69.933649,80.2897196 52.162551,80.2897196 C34.391453,80.2897196 19.9851317,65.8833983 19.9851317,48.1123003 L19.9851317,1 C19.9851317,0.44771525 20.4328469,1.01453063e-16 20.9851317,0 Z" id="Rectangle" fill="url(#linearGradient-4)"></path>
                    <path d="M48.2980412,33.4172386 C49.3043206,26.4127969 50.4043185,22.9105761 51.5980349,22.9105761 C52.7917513,22.9105761 54.2971276,26.4127969 56.1141639,33.4172386 L66.8410729,33.4172386 L60.1187002,41.6202541 L64.5819059,51.341733 L51.5980349,46.7256042 L42.662803,53.6729885 L45.5214101,41.6202541 C38.1410417,36.1515771 34.4508575,33.4172386 34.4508575,33.4172386 C34.4508575,33.4172386 39.0665854,33.4172386 48.2980412,33.4172386 Z" id="Path-17" fill="#FFFFFF"></path>
                </g>
                <polygon id="Rectangle" fill="#303542" transform="translate(52.500000, 124.000000) scale(1, -1) translate(-52.500000, -124.000000) " points="26 121 79 121 75.6170213 127 29.3829787 127"></polygon>
            </g>
        </g>
    </g>
</svg>